<svg width="27" height="25" viewBox="0 0 27 25" fill="none" xmlns="http://www.w3.org/2000/svg">
<path d="M2.25 0.5C1.00781 0.5 0 1.50781 0 2.75V12.5H6.75C7.1625 12.5 7.5 12.8375 7.5 13.25C7.5 13.6625 7.1625 14 6.75 14H0V17H6.75C7.1625 17 7.5 17.3375 7.5 17.75C7.5 18.1625 7.1625 18.5 6.75 18.5H0V22.25C0 23.4922 1.00781 24.5 2.25 24.5H12.4641C12.1687 24.0219 12 23.4594 12 22.8547C12 20.6562 13.2094 18.7391 15 17.7359V2.75C15 1.50781 13.9922 0.5 12.75 0.5H2.25ZM7.125 3.5H7.875C8.2875 3.5 8.625 3.8375 8.625 4.25V5.375H9.75C10.1625 5.375 10.5 5.7125 10.5 6.125V6.875C10.5 7.2875 10.1625 7.625 9.75 7.625H8.625V8.75C8.625 9.1625 8.2875 9.5 7.875 9.5H7.125C6.7125 9.5 6.375 9.1625 6.375 8.75V7.625H5.25C4.8375 7.625 4.5 7.2875 4.5 6.875V6.125C4.5 5.7125 4.8375 5.375 5.25 5.375H6.375V4.25C6.375 3.8375 6.7125 3.5 7.125 3.5ZM24 13.25C24 12.2554 23.6049 11.3016 22.9016 10.5983C22.1984 9.89509 21.2446 9.5 20.25 9.5C19.2554 9.5 18.3016 9.89509 17.5984 10.5983C16.8951 11.3016 16.5 12.2554 16.5 13.25C16.5 14.2446 16.8951 15.1984 17.5984 15.9017C18.3016 16.6049 19.2554 17 20.25 17C21.2446 17 22.1984 16.6049 22.9016 15.9017C23.6049 15.1984 24 14.2446 24 13.25ZM13.5 22.8641C13.5 23.7688 14.2312 24.5 15.1359 24.5H25.3641C26.2687 24.5 27 23.7688 27 22.8641C27 20.4547 25.0453 18.5 22.6359 18.5H17.8641C15.4547 18.5 13.5 20.4547 13.5 22.8641Z" fill="#3D7C85"/>
</svg>
