<svg width="18" height="19" viewBox="0 0 18 19" fill="none" xmlns="http://www.w3.org/2000/svg">
<g clip-path="url(#clip0_4032_21123)">
<path d="M9 9.5C10.2124 9.5 11.3752 9.02589 12.2325 8.18198C13.0898 7.33807 13.5714 6.19347 13.5714 5C13.5714 3.80653 13.0898 2.66193 12.2325 1.81802C11.3752 0.974106 10.2124 0.5 9 0.5C7.78758 0.5 6.62482 0.974106 5.76751 1.81802C4.9102 2.66193 4.42857 3.80653 4.42857 5C4.42857 6.19347 4.9102 7.33807 5.76751 8.18198C6.62482 9.02589 7.78758 9.5 9 9.5ZM5.57143 11.4406C2.92857 12.2035 1 14.6082 1 17.4559C1 18.0324 1.475 18.5 2.06071 18.5H15.9393C16.525 18.5 17 18.0324 17 17.4559C17 14.6082 15.0714 12.2035 12.4286 11.4406V13.2266C13.4143 13.4762 14.1429 14.3586 14.1429 15.4062V16.8125C14.1429 17.1219 13.8857 17.375 13.5714 17.375H13C12.6857 17.375 12.4286 17.1219 12.4286 16.8125C12.4286 16.5031 12.6857 16.25 13 16.25V15.4062C13 14.784 12.4893 14.2812 11.8571 14.2812C11.225 14.2812 10.7143 14.784 10.7143 15.4062V16.25C11.0286 16.25 11.2857 16.5031 11.2857 16.8125C11.2857 17.1219 11.0286 17.375 10.7143 17.375H10.1429C9.82857 17.375 9.57143 17.1219 9.57143 16.8125V15.4062C9.57143 14.3586 10.3 13.4762 11.2857 13.2266V11.2191C11.0714 11.198 10.8536 11.1875 10.6321 11.1875H7.36786C7.14643 11.1875 6.92857 11.198 6.71429 11.2191V13.5184C7.53929 13.7609 8.14286 14.5133 8.14286 15.4062C8.14286 16.4926 7.24643 17.375 6.14286 17.375C5.03929 17.375 4.14286 16.4926 4.14286 15.4062C4.14286 14.5133 4.74643 13.7609 5.57143 13.5184V11.4406ZM6.14286 16.25C6.37019 16.25 6.5882 16.1611 6.74895 16.0029C6.90969 15.8446 7 15.63 7 15.4062C7 15.1825 6.90969 14.9679 6.74895 14.8096C6.5882 14.6514 6.37019 14.5625 6.14286 14.5625C5.91553 14.5625 5.69751 14.6514 5.53677 14.8096C5.37602 14.9679 5.28571 15.1825 5.28571 15.4062C5.28571 15.63 5.37602 15.8446 5.53677 16.0029C5.69751 16.1611 5.91553 16.25 6.14286 16.25Z" fill="#10996E"/>
</g>
<defs>
<clipPath id="clip0_4032_21123">
<rect width="18" height="18" fill="white" transform="translate(0 0.5)"/>
</clipPath>
</defs>
</svg>
