<svg width="18" height="18" viewBox="0 0 18 18" fill="none" xmlns="http://www.w3.org/2000/svg">
<path d="M12.5556 3.66667C12.5556 2.19391 11.3617 1 9.88889 1H8.11111C6.63836 1 5.44444 2.19391 5.44444 3.66667M7.22222 10.7778H10.7778M9 9V12.5556M5.26667 17H12.7333C14.2268 17 14.9735 17 15.544 16.7093C16.0458 16.4537 16.4537 16.0458 16.7093 15.544C17 14.9735 17 14.2268 17 12.7333V8.82222C17 7.32871 17 6.58201 16.7093 6.01158C16.4537 5.50981 16.0458 5.10187 15.544 4.8462C14.9735 4.55556 14.2268 4.55556 12.7333 4.55556H5.26667C3.77319 4.55556 3.02645 4.55556 2.45603 4.8462C1.95426 5.10187 1.54631 5.50981 1.29065 6.01158C1 6.58201 1 7.32871 1 8.82222V12.7333C1 14.2268 1 14.9735 1.29065 15.544C1.54631 16.0458 1.95426 16.4537 2.45603 16.7093C3.02645 17 3.77319 17 5.26667 17Z" stroke="#3D7C85" stroke-width="1.5" stroke-linecap="round" stroke-linejoin="round"/>
</svg>
