<svg width="18" height="18" viewBox="0 0 18 18" fill="none" xmlns="http://www.w3.org/2000/svg">
<path d="M14.881 2.46575C14.92 1.29776 14.8897 0.0432588 14.8854 0H3.08436C3.08436 0.0432588 3.04975 1.29776 3.08868 2.46575H0C0 5.40735 0.428262 6.89113 0.908436 7.94665C1.38861 9.00216 2.05047 9.90627 3.44773 10.9877C4.74982 11.9957 7.57895 13.3064 7.95963 13.4795V14.7037C7.76064 15.1363 6.94304 15.9236 4.35616 15.9236H3.46071V18H14.535V15.9236H13.4232C10.7974 15.9236 10.1788 15.0973 10.036 14.7037V13.4795C10.4384 13.2805 13.5357 11.7361 14.5523 10.9921C15.6424 10.1961 16.7541 8.76424 17.0916 7.95097C17.429 7.13771 17.9957 5.1478 17.9957 2.46575H14.881ZM2.66474 7.09012C2.28407 6.30281 2.05912 5.45061 1.98558 4.4124H3.22711C3.25739 4.67195 3.28767 4.90123 3.3266 5.11752C3.61211 6.81327 3.96684 8.15429 4.43836 9.292C3.68998 8.708 3.08435 7.95962 2.66474 7.09012ZM15.3309 7.09012C14.9027 7.96828 14.2927 8.72098 13.5314 9.3093C14.0072 8.17592 14.3533 6.8522 14.6474 5.11752C14.682 4.90123 14.7167 4.67195 14.7469 4.4124H16.0144C15.9366 5.45061 15.7159 6.30281 15.3309 7.09012Z" fill="#C3F1C2"/>
</svg>
