<svg width="20" height="18" viewBox="0 0 20 18" fill="none" xmlns="http://www.w3.org/2000/svg">
<path d="M1.66667 0C0.746528 0 0 0.755859 0 1.6875V9H5C5.30556 9 5.55556 9.25313 5.55556 9.5625C5.55556 9.87187 5.30556 10.125 5 10.125H0V12.375H5C5.30556 12.375 5.55556 12.6281 5.55556 12.9375C5.55556 13.2469 5.30556 13.5 5 13.5H0V16.3125C0 17.2441 0.746528 18 1.66667 18H9.23264C9.01389 17.6414 8.88889 17.2195 8.88889 16.766C8.88889 15.1172 9.78472 13.6793 11.1111 12.927V1.6875C11.1111 0.755859 10.3646 0 9.44444 0H1.66667ZM5.27778 2.25H5.83333C6.13889 2.25 6.38889 2.50312 6.38889 2.8125V3.65625H7.22222C7.52778 3.65625 7.77778 3.90937 7.77778 4.21875V4.78125C7.77778 5.09062 7.52778 5.34375 7.22222 5.34375H6.38889V6.1875C6.38889 6.49687 6.13889 6.75 5.83333 6.75H5.27778C4.97222 6.75 4.72222 6.49687 4.72222 6.1875V5.34375H3.88889C3.58333 5.34375 3.33333 5.09062 3.33333 4.78125V4.21875C3.33333 3.90937 3.58333 3.65625 3.88889 3.65625H4.72222V2.8125C4.72222 2.50312 4.97222 2.25 5.27778 2.25ZM17.7778 9.5625C17.7778 8.81658 17.4851 8.10121 16.9642 7.57376C16.4433 7.04632 15.7367 6.75 15 6.75C14.2633 6.75 13.5567 7.04632 13.0358 7.57376C12.5149 8.10121 12.2222 8.81658 12.2222 9.5625C12.2222 10.3084 12.5149 11.0238 13.0358 11.5512C13.5567 12.0787 14.2633 12.375 15 12.375C15.7367 12.375 16.4433 12.0787 16.9642 11.5512C17.4851 11.0238 17.7778 10.3084 17.7778 9.5625ZM10 16.773C10 17.4516 10.5417 18 11.2118 18H18.7882C19.4583 18 20 17.4516 20 16.773C20 14.966 18.5521 13.5 16.7674 13.5H13.2326C11.4479 13.5 10 14.966 10 16.773Z" fill="#C3F1C2"/>
</svg>
