<svg width="25" height="25" viewBox="0 0 25 25" fill="none" xmlns="http://www.w3.org/2000/svg">
<path d="M18.875 5.42187C18.9172 4.15625 18.8844 2.79687 18.8797 2.75H6.09219C6.09219 2.79687 6.05469 4.15625 6.09688 5.42187H2.75C2.75 8.60937 3.21406 10.2172 3.73438 11.3609C4.25469 12.5047 4.97187 13.4844 6.48594 14.6562C7.89687 15.7484 10.9625 17.1687 11.375 17.3562V18.6828C11.1594 19.1516 10.2734 20.0047 7.47031 20.0047H6.5V22.2547H18.5V20.0047H17.2953C14.45 20.0047 13.7797 19.1094 13.625 18.6828V17.3562C14.0609 17.1406 17.4172 15.4672 18.5187 14.6609C19.7 13.7984 20.9047 12.2469 21.2703 11.3656C21.6359 10.4844 22.25 8.32812 22.25 5.42187H18.875ZM5.6375 10.4328C5.225 9.57969 4.98125 8.65625 4.90156 7.53125H6.24687C6.27969 7.8125 6.3125 8.06094 6.35469 8.29531C6.66406 10.1328 7.04844 11.5859 7.55938 12.8187C6.74844 12.1859 6.09219 11.375 5.6375 10.4328ZM19.3625 10.4328C18.8984 11.3844 18.2375 12.2 17.4125 12.8375C17.9281 11.6094 18.3031 10.175 18.6219 8.29531C18.6594 8.06094 18.6969 7.8125 18.7297 7.53125H20.1031C20.0188 8.65625 19.7797 9.57969 19.3625 10.4328Z" fill="#3D7C85"/>
</svg>
