<svg width="24" height="16" viewBox="0 0 24 16" fill="none" xmlns="http://www.w3.org/2000/svg">
<path d="M10.8281 0.879687C6.99375 1.26406 3.48281 3.3125 0.61875 6.84219C0.0421875 7.55 0 7.63437 0 8.01406C0 8.37031 0.0703125 8.49219 0.721875 9.28437C3.84844 13.0859 7.84219 15.1719 12 15.1719C16.2094 15.1719 20.2172 13.0531 23.3813 9.15781C23.9578 8.45 24 8.36562 24 7.98594C24 7.62969 23.9297 7.50781 23.2781 6.71562C20.1234 2.87656 16.0969 0.795312 11.9109 0.832812C11.5359 0.8375 11.0484 0.85625 10.8281 0.879687ZM13.0594 3.09687C14.7141 3.45312 16.1016 4.66719 16.7109 6.28437C16.9313 6.87031 16.9875 7.2125 16.9828 8.02344C16.9828 8.68437 16.9688 8.82969 16.8609 9.22812C16.3875 11.0047 15.0047 12.3875 13.2281 12.8609C12.8297 12.9688 12.6844 12.9828 12.0234 12.9828C11.2125 12.9875 10.8703 12.9312 10.2844 12.7109C8.66719 12.1016 7.47656 10.7375 7.09219 9.05937C6.97031 8.52969 6.98438 7.38594 7.11563 6.86094C7.61719 4.86406 9.13594 3.43906 11.175 3.05C11.5922 2.97031 12.6 2.99375 13.0594 3.09687Z" fill="#206175"/>
<path d="M11.1797 5.39375C10.6969 5.55312 10.4203 5.72656 10.0547 6.10156C9.525 6.63594 9.28125 7.23594 9.28125 8C9.28125 8.7875 9.525 9.37812 10.0734 9.92656C10.6219 10.475 11.2125 10.7188 12 10.7188C12.7641 10.7188 13.3641 10.475 13.8984 9.94531C14.4703 9.38281 14.7188 8.79687 14.7188 8.00469C14.7188 7.75156 14.6859 7.43281 14.6484 7.28281C14.4094 6.36406 13.6359 5.59062 12.7172 5.35156C12.2953 5.24375 11.5781 5.2625 11.1797 5.39375Z" fill="#206175"/>
</svg>
