<svg width="23" height="27" viewBox="0 0 23 27" fill="none" xmlns="http://www.w3.org/2000/svg">
<path fill-rule="evenodd" clip-rule="evenodd" d="M0.5 11.2112C0.5 5.04769 5.54634 0.0683594 11.75 0.0683594C17.9537 0.0683594 23 5.04769 23 11.2112C23 15.0446 20.7645 18.828 18.3953 21.5821C17.1963 22.9757 15.9238 24.1524 14.8013 24.9891C14.241 25.4068 13.7024 25.7516 13.2163 25.9964C12.7606 26.2259 12.2402 26.4255 11.75 26.4255C11.2598 26.4255 10.7394 26.2259 10.2837 25.9964C9.79756 25.7516 9.259 25.4068 8.69867 24.9891C7.5762 24.1524 6.30366 22.9757 5.10471 21.5821C2.7355 18.828 0.5 15.0446 0.5 11.2112ZM11.75 14.5335C9.61976 14.5335 7.89286 12.8066 7.89286 10.6763C7.89286 8.5461 9.61976 6.8192 11.75 6.8192C13.8802 6.8192 15.6071 8.5461 15.6071 10.6763C15.6071 12.8066 13.8802 14.5335 11.75 14.5335Z" fill="#2B3F6C"/>
</svg>
