<svg width="30" height="31" viewBox="0 0 30 31" fill="none" xmlns="http://www.w3.org/2000/svg">
<rect y="0.5" width="30" height="30" rx="5" fill="#C3F1C2"/>
<path d="M20.8333 15.5C20.8333 18.7217 18.2217 21.3333 15 21.3333M20.8333 15.5C20.8333 12.2783 18.2217 9.66667 15 9.66667M20.8333 15.5H22.5M15 21.3333C11.7783 21.3333 9.16667 18.7217 9.16667 15.5M15 21.3333V23M15 9.66667C11.7783 9.66667 9.16667 12.2783 9.16667 15.5M15 9.66667V8M9.16667 15.5H7.5M17.5 15.5C17.5 16.8808 16.3808 18 15 18C13.6193 18 12.5 16.8808 12.5 15.5C12.5 14.1193 13.6193 13 15 13C16.3808 13 17.5 14.1193 17.5 15.5Z" stroke="#0F5658" stroke-width="1.5" stroke-linecap="round" stroke-linejoin="round"/>
</svg>
