<svg width="128" height="53" viewBox="0 0 128 53" fill="none" xmlns="http://www.w3.org/2000/svg">
<path d="M0 28.2659V1.07368H10.0967L10.3835 3.13891C11.4161 2.4505 12.7738 1.83858 14.4566 1.30315C16.1777 0.767715 18.0134 0.5 19.9639 0.5C23.3677 0.5 25.8537 1.34139 27.4217 3.02417C28.9897 4.70696 29.7738 7.30762 29.7738 10.8262V28.2659H18.9887V11.9161C18.9887 10.6923 18.721 9.81267 18.1855 9.27724C17.6501 8.74181 16.7131 8.47409 15.3745 8.47409C14.5714 8.47409 13.73 8.66532 12.8503 9.04777C12.0089 9.43022 11.3205 9.88916 10.7851 10.4246V28.2659H0Z" fill="#C3F1C2"/>
<path d="M49.0296 28.8396C43.5988 28.8396 39.583 27.6349 36.9824 25.2254C34.4199 22.816 33.1387 19.2974 33.1387 14.6698C33.1387 10.0804 34.4391 6.58096 37.0397 4.17153C39.6404 1.72384 43.637 0.5 49.0296 0.5C54.4604 0.5 58.4761 1.72384 61.0767 4.17153C63.7157 6.58096 65.0351 10.0804 65.0351 14.6698C65.0351 19.2974 63.7348 22.816 61.1341 25.2254C58.5335 27.6349 54.4986 28.8396 49.0296 28.8396ZM49.0296 20.9802C50.7888 20.9802 52.0509 20.483 52.8158 19.4887C53.619 18.4943 54.0205 16.888 54.0205 14.6698C54.0205 12.4898 53.619 10.9027 52.8158 9.90828C52.0509 8.87567 50.7888 8.35936 49.0296 8.35936C47.3085 8.35936 46.0656 8.87567 45.3007 9.90828C44.5358 10.9027 44.1533 12.4898 44.1533 14.6698C44.1533 16.888 44.5358 18.4943 45.3007 19.4887C46.0656 20.483 47.3085 20.9802 49.0296 20.9802Z" fill="#C3F1C2"/>
<path d="M75.5195 28.2659L64.7917 1.07368H76.0358L81.1989 17.0219L86.362 1.07368H97.606L86.8783 28.2659H75.5195Z" fill="#C3F1C2"/>
<path d="M107.539 28.8396C105.818 28.8396 104.212 28.5336 102.72 27.9217C101.267 27.3098 100.1 26.3537 99.2208 25.0533C98.3412 23.753 97.9014 22.1085 97.9014 20.1197C97.9014 17.2513 98.8575 15.0331 100.77 13.4651C102.682 11.8588 105.569 11.0556 109.432 11.0556H116.488V10.5393C116.488 9.46847 116.049 8.68444 115.169 8.18726C114.289 7.69007 112.74 7.44148 110.522 7.44148C107.386 7.44148 104.288 7.91954 101.229 8.87567V2.39313C102.605 1.8577 104.327 1.41788 106.392 1.07368C108.457 0.691225 110.56 0.5 112.702 0.5C117.024 0.5 120.447 1.37964 122.971 3.13891C125.495 4.89818 126.757 7.69007 126.757 11.5146V28.2659H117.349L116.833 26.0859C115.877 26.9273 114.634 27.5966 113.104 28.0938C111.612 28.591 109.757 28.8396 107.539 28.8396ZM111.211 22.5292C112.434 22.5292 113.467 22.3188 114.308 21.8981C115.188 21.4774 115.915 20.9611 116.488 20.3492V16.9645H111.268C108.897 16.9645 107.711 17.9015 107.711 19.7755C107.711 21.6113 108.878 22.5292 111.211 22.5292Z" fill="#C3F1C2"/>
<path d="M41.7425 37.6016H43.8781L48.8998 49.8672H49.073L54.0947 37.6016H56.2304V52.3781H54.5565V41.1514H54.4122L49.7945 52.3781H48.1783L43.5607 41.1514H43.4164V52.3781H41.7425V37.6016ZM61.8669 52.3781V37.6016H70.7847V39.1889H63.6562V44.1817H70.323V45.769H63.6562V50.7907H70.9002V52.3781H61.8669ZM80.6187 52.3781H76.0587V37.6016H80.8207C82.2541 37.6016 83.4807 37.8974 84.5004 38.489C85.5201 39.0758 86.3018 39.92 86.8453 41.0215C87.3888 42.1182 87.6606 43.4313 87.6606 44.9609C87.6606 46.5002 87.3864 47.8253 86.8381 48.9365C86.2897 50.0428 85.4913 50.8941 84.4427 51.4906C83.3941 52.0822 82.1194 52.3781 80.6187 52.3781ZM77.8481 50.7907H80.5032C81.725 50.7907 82.7375 50.555 83.5408 50.0837C84.3441 49.6123 84.9429 48.9413 85.3373 48.0706C85.7318 47.2 85.929 46.1635 85.929 44.9609C85.929 43.768 85.7342 42.7411 85.3446 41.8801C84.9549 41.0143 84.3729 40.3505 83.5985 39.8887C82.8241 39.4222 81.8597 39.1889 80.7053 39.1889H77.8481V50.7907ZM94.5003 37.6016V52.3781H92.7109V37.6016H94.5003ZM100.137 52.3781V37.6016H101.926V44.9321H102.099L108.737 37.6016H111.075L104.87 44.2683L111.075 52.3781H108.91L103.773 45.5093L101.926 47.5872V52.3781H100.137ZM116.046 52.3781H114.17L119.596 37.6016H121.443L126.868 52.3781H124.993L120.577 39.9392H120.461L116.046 52.3781ZM116.738 46.606H124.3V48.1933H116.738V46.606Z" fill="#C3F1C2"/>
<circle cx="60.4356" cy="23.0376" r="5.1221" fill="#0F5658" stroke="#C3F1C2" stroke-width="2.04884"/>
</svg>
