<svg width="97" height="39" viewBox="0 0 97 39" fill="none" xmlns="http://www.w3.org/2000/svg">
<path d="M0 21.0171V0.560479H7.59569L7.81148 2.11414C8.58831 1.59626 9.6097 1.13591 10.8757 0.733109C12.1704 0.330307 13.5514 0.128906 15.0188 0.128906C17.5794 0.128906 19.4496 0.761881 20.6292 2.02783C21.8088 3.29378 22.3987 5.25024 22.3987 7.89723V21.0171H14.2851V8.71722C14.2851 7.79653 14.0837 7.13478 13.6809 6.73198C13.2781 6.32918 12.5732 6.12778 11.5662 6.12778C10.962 6.12778 10.329 6.27163 9.66725 6.55935C9.03427 6.84707 8.51638 7.19233 8.11358 7.59513V21.0171H0Z" fill="#0F5658"/>
<path d="M36.8847 21.4486C32.7991 21.4486 29.7781 20.5423 27.8217 18.7297C25.894 16.9171 24.9301 14.2701 24.9301 10.7888C24.9301 7.33618 25.9083 4.70358 27.8648 2.89098C29.8213 1.0496 32.8279 0.128906 36.8847 0.128906C40.9703 0.128906 43.9913 1.0496 45.9477 2.89098C47.933 4.70358 48.9256 7.33618 48.9256 10.7888C48.9256 14.2701 47.9474 16.9171 45.9909 18.7297C44.0344 20.5423 40.999 21.4486 36.8847 21.4486ZM36.8847 15.5361C38.2082 15.5361 39.1576 15.162 39.7331 14.414C40.3373 13.6659 40.6394 12.4575 40.6394 10.7888C40.6394 9.14879 40.3373 7.95477 39.7331 7.20671C39.1576 6.42988 38.2082 6.04146 36.8847 6.04146C35.59 6.04146 34.6549 6.42988 34.0795 7.20671C33.504 7.95477 33.2163 9.14879 33.2163 10.7888C33.2163 12.4575 33.504 13.6659 34.0795 14.414C34.6549 15.162 35.59 15.5361 36.8847 15.5361Z" fill="#0F5658"/>
<path d="M56.8129 21.0171L48.7425 0.560479H57.2014L61.0855 12.5582L64.9697 0.560479H73.4285L65.3581 21.0171H56.8129Z" fill="#0F5658"/>
<path d="M80.9011 21.4486C79.6064 21.4486 78.398 21.2185 77.2759 20.7581C76.1826 20.2978 75.3051 19.5785 74.6433 18.6003C73.9816 17.622 73.6507 16.3848 73.6507 14.8887C73.6507 12.7309 74.37 11.0621 75.8086 9.88247C77.2472 8.67406 79.4194 8.06986 82.3253 8.06986H87.6337V7.68144C87.6337 6.87584 87.3028 6.28602 86.6411 5.91199C85.9793 5.53796 84.8141 5.35095 83.1453 5.35095C80.7861 5.35095 78.4556 5.71059 76.1538 6.42988V1.5531C77.1896 1.1503 78.4843 0.819423 80.038 0.560479C81.5917 0.272764 83.1741 0.128906 84.7853 0.128906C88.0365 0.128906 90.6115 0.790652 92.5105 2.11414C94.4094 3.43764 95.3588 5.53796 95.3588 8.41512V21.0171H88.2811L87.8926 19.3771C87.1733 20.0101 86.2383 20.5136 85.0874 20.8876C83.9653 21.2616 82.5699 21.4486 80.9011 21.4486ZM83.6632 16.7013C84.5839 16.7013 85.3607 16.5431 85.9937 16.2266C86.6555 15.9101 87.2021 15.5217 87.6337 15.0613V12.5151H83.7064C81.9225 12.5151 81.0306 13.22 81.0306 14.6298C81.0306 16.0108 81.9081 16.7013 83.6632 16.7013Z" fill="#0F5658"/>
<path d="M31.4008 27.7568H33.0075L36.7853 36.9841H36.9155L40.6933 27.7568H42.3V38.873H41.0407V30.4273H40.9321L37.4583 38.873H36.2425L32.7686 30.4273H32.6601V38.873H31.4008V27.7568ZM46.5403 38.873V27.7568H53.2492V28.9509H47.8864V32.707H52.9018V33.9011H47.8864V37.6789H53.336V38.873H46.5403ZM60.6472 38.873H57.2168V27.7568H60.7992C61.8775 27.7568 62.8002 27.9793 63.5674 28.4244C64.3345 28.8659 64.9225 29.5009 65.3314 30.3296C65.7403 31.1546 65.9448 32.1425 65.9448 33.2932C65.9448 34.4511 65.7385 35.4481 65.326 36.284C64.9135 37.1162 64.3128 37.7567 63.5239 38.2054C62.7351 38.6505 61.7762 38.873 60.6472 38.873ZM58.5629 37.6789H60.5603C61.4795 37.6789 62.2412 37.5016 62.8455 37.147C63.4498 36.7924 63.9003 36.2876 64.197 35.6326C64.4937 34.9776 64.6421 34.1978 64.6421 33.2932C64.6421 32.3958 64.4955 31.6232 64.2024 30.9755C63.9093 30.3241 63.4715 29.8248 62.8889 29.4774C62.3063 29.1264 61.5808 28.9509 60.7123 28.9509H58.5629V37.6789ZM71.0902 27.7568V38.873H69.7441V27.7568H71.0902ZM75.3306 38.873V27.7568H76.6767V33.2715H76.8069L81.8006 27.7568H83.5592L78.8912 32.7721L83.5592 38.873H81.9309L78.0662 33.7057L76.6767 35.2689V38.873H75.3306ZM87.2988 38.873H85.8876L89.9694 27.7568H91.3589L95.4407 38.873H94.0294L90.7075 29.5154H90.6207L87.2988 38.873ZM87.8199 34.5307H93.5083V35.7249H87.8199V34.5307Z" fill="#0F5658" fill-opacity="0.6"/>
<circle cx="45.4678" cy="17.083" r="3.85333" fill="#9CF79A" stroke="#0F5658" stroke-width="1.54133"/>
</svg>
