<svg width="22" height="22" viewBox="0 0 22 22" fill="none" xmlns="http://www.w3.org/2000/svg">
<path d="M0 3.21495C0 13.4677 8.31154 21.7793 18.5643 21.7793C19.0269 21.7793 19.4855 21.7624 19.9397 21.7291C20.4608 21.6909 20.7213 21.6719 20.9585 21.5353C21.155 21.4223 21.3412 21.2218 21.4397 21.0176C21.5586 20.7711 21.5586 20.4835 21.5586 19.9085V16.5342C21.5586 16.0506 21.5586 15.8088 21.4789 15.6016C21.4088 15.4184 21.2945 15.2554 21.1465 15.1268C20.9789 14.9812 20.7516 14.8985 20.2972 14.7332L16.4564 13.3366C15.9276 13.1444 15.6632 13.0482 15.4124 13.0645C15.1911 13.0788 14.9783 13.1544 14.7975 13.2826C14.5924 13.4279 14.4477 13.6691 14.1582 14.1516L13.1747 15.7908C10.0009 14.3534 7.42801 11.7772 5.9885 8.6046L7.62771 7.62107C8.11016 7.3316 8.35139 7.18686 8.49672 6.98179C8.62487 6.80096 8.70045 6.58812 8.71482 6.36694C8.73111 6.1161 8.63494 5.85172 8.4427 5.32296L7.04605 1.48213C6.88078 1.02766 6.79816 0.800426 6.65253 0.632832C6.52388 0.484784 6.36085 0.370595 6.17776 0.30029C5.97048 0.220703 5.72869 0.220703 5.24511 0.220703H1.87082C1.29577 0.220703 1.00824 0.220703 0.761713 0.339575C0.557529 0.438038 0.357082 0.62434 0.243971 0.820787C0.10741 1.05798 0.0883302 1.31854 0.0501715 1.83967C0.0169234 2.29375 0 2.75238 0 3.21495Z" fill="#C3F1C2"/>
</svg>
