<svg width="14" height="15" viewBox="0 0 14 15" fill="none" xmlns="http://www.w3.org/2000/svg">
<path d="M0 2.18468C0 8.84277 5.39746 14.2402 12.0556 14.2402C12.3559 14.2402 12.6537 14.2293 12.9487 14.2076C13.2871 14.1828 13.4563 14.1705 13.6103 14.0818C13.7379 14.0084 13.8588 13.8782 13.9228 13.7456C14 13.5855 14 13.3988 14 13.0253V10.8341C14 10.52 14 10.363 13.9483 10.2285C13.9027 10.1095 13.8285 10.0037 13.7324 9.92015C13.6236 9.82557 13.4759 9.7719 13.1808 9.66457L10.6867 8.7576C10.3433 8.63277 10.1715 8.57031 10.0087 8.58089C9.86502 8.59022 9.72681 8.6393 9.60937 8.72252C9.47621 8.81687 9.38226 8.97351 9.19427 9.28688L8.55556 10.3513C6.49452 9.41793 4.8237 7.74493 3.88889 5.68468L4.95338 5.04598C5.26668 4.858 5.42334 4.76401 5.51771 4.63084C5.60093 4.51341 5.65001 4.37519 5.65934 4.23156C5.66992 4.06867 5.60747 3.89698 5.48263 3.55361L4.57566 1.0594C4.46833 0.76427 4.41467 0.616702 4.3201 0.507868C4.23656 0.411727 4.13069 0.337573 4.01179 0.291918C3.87719 0.240234 3.72017 0.240234 3.40614 0.240234H1.2149C0.841462 0.240234 0.654741 0.240234 0.494651 0.317429C0.362055 0.38137 0.231887 0.502353 0.158433 0.629924C0.0697512 0.783955 0.057361 0.953161 0.032581 1.29158C0.0109899 1.58646 0 1.88429 0 2.18468Z" fill="#316E70"/>
</svg>
