<svg width="17" height="18" viewBox="0 0 17 18" fill="none" xmlns="http://www.w3.org/2000/svg">
<path d="M11.8333 4C11.8333 2.61929 10.7141 1.5 9.33333 1.5H7.66667C6.28596 1.5 5.16667 2.61929 5.16667 4M6.83333 10.6667H10.1667M8.5 9V12.3333M5 16.5H12C13.4002 16.5 14.1002 16.5 14.635 16.2275C15.1054 15.9878 15.4878 15.6054 15.7275 15.135C16 14.6002 16 13.9002 16 12.5V8.83333C16 7.43317 16 6.73313 15.7275 6.19836C15.4878 5.72795 15.1054 5.3455 14.635 5.10582C14.1002 4.83333 13.4002 4.83333 12 4.83333H5C3.59987 4.83333 2.8998 4.83333 2.36502 5.10582C1.89462 5.3455 1.51217 5.72795 1.27248 6.19836C1 6.73313 1 7.43317 1 8.83333V12.5C1 13.9002 1 14.6002 1.27248 15.135C1.51217 15.6054 1.89462 15.9878 2.36502 16.2275C2.8998 16.5 3.59987 16.5 5 16.5Z" stroke="#3D7C85" stroke-width="1.5" stroke-linecap="round" stroke-linejoin="round"/>
</svg>
