<svg width="17" height="17" viewBox="0 0 17 17" fill="none" xmlns="http://www.w3.org/2000/svg">
<path fill-rule="evenodd" clip-rule="evenodd" d="M5.78594 2.09961C5.57376 2.09961 5.37028 2.18389 5.22025 2.33392C5.07022 2.48395 4.98594 2.68744 4.98594 2.89961V3.69961H4.18594C3.76159 3.69961 3.35462 3.86818 3.05457 4.16824C2.75451 4.4683 2.58594 4.87526 2.58594 5.29961V13.2996C2.58594 13.724 2.75451 14.1309 3.05457 14.431C3.35462 14.731 3.76159 14.8996 4.18594 14.8996H13.7859C14.2103 14.8996 14.6173 14.731 14.9173 14.431C15.2174 14.1309 15.3859 13.724 15.3859 13.2996V5.29961C15.3859 4.87526 15.2174 4.4683 14.9173 4.16824C14.6173 3.86818 14.2103 3.69961 13.7859 3.69961H12.9859V2.89961C12.9859 2.68744 12.9017 2.48395 12.7516 2.33392C12.6016 2.18389 12.3981 2.09961 12.1859 2.09961C11.9738 2.09961 11.7703 2.18389 11.6203 2.33392C11.4702 2.48395 11.3859 2.68744 11.3859 2.89961V3.69961H6.58594V2.89961C6.58594 2.68744 6.50165 2.48395 6.35162 2.33392C6.20159 2.18389 5.99811 2.09961 5.78594 2.09961ZM5.78594 6.09961C5.57376 6.09961 5.37028 6.1839 5.22025 6.33392C5.07022 6.48395 4.98594 6.68744 4.98594 6.89961C4.98594 7.11178 5.07022 7.31527 5.22025 7.46529C5.37028 7.61532 5.57376 7.69961 5.78594 7.69961H12.1859C12.3981 7.69961 12.6016 7.61532 12.7516 7.46529C12.9017 7.31527 12.9859 7.11178 12.9859 6.89961C12.9859 6.68744 12.9017 6.48395 12.7516 6.33392C12.6016 6.1839 12.3981 6.09961 12.1859 6.09961H5.78594Z" fill="#10996E"/>
</svg>
