<svg width="14" height="15" viewBox="0 0 14 15" fill="none" xmlns="http://www.w3.org/2000/svg">
<path fill-rule="evenodd" clip-rule="evenodd" d="M4.19844 1.90039C4.01279 1.90039 3.83474 1.97414 3.70346 2.10542C3.57219 2.23669 3.49844 2.41474 3.49844 2.60039V3.30039H2.79844C2.42713 3.30039 2.07104 3.44789 1.80849 3.71044C1.54594 3.97299 1.39844 4.32909 1.39844 4.70039V11.7004C1.39844 12.0717 1.54594 12.4278 1.80849 12.6903C2.07104 12.9529 2.42713 13.1004 2.79844 13.1004H11.1984C11.5697 13.1004 11.9258 12.9529 12.1884 12.6903C12.4509 12.4278 12.5984 12.0717 12.5984 11.7004V4.70039C12.5984 4.32909 12.4509 3.97299 12.1884 3.71044C11.9258 3.44789 11.5697 3.30039 11.1984 3.30039H10.4984V2.60039C10.4984 2.41474 10.4247 2.23669 10.2934 2.10542C10.1621 1.97414 9.98409 1.90039 9.79844 1.90039C9.61279 1.90039 9.43474 1.97414 9.30346 2.10542C9.17219 2.23669 9.09844 2.41474 9.09844 2.60039V3.30039H4.89844V2.60039C4.89844 2.41474 4.82469 2.23669 4.69341 2.10542C4.56214 1.97414 4.38409 1.90039 4.19844 1.90039ZM4.19844 5.40039C4.01279 5.40039 3.83474 5.47414 3.70346 5.60542C3.57219 5.73669 3.49844 5.91474 3.49844 6.10039C3.49844 6.28604 3.57219 6.46409 3.70346 6.59537C3.83474 6.72664 4.01279 6.80039 4.19844 6.80039H9.79844C9.98409 6.80039 10.1621 6.72664 10.2934 6.59537C10.4247 6.46409 10.4984 6.28604 10.4984 6.10039C10.4984 5.91474 10.4247 5.73669 10.2934 5.60542C10.1621 5.47414 9.98409 5.40039 9.79844 5.40039H4.19844Z" fill="#C3F1C2"/>
</svg>
