<svg width="11" height="13" viewBox="0 0 11 13" fill="none" xmlns="http://www.w3.org/2000/svg">
<g clip-path="url(#clip0_4226_2525)">
<path d="M5.5 6.5C6.33354 6.5 7.13294 6.15759 7.72234 5.5481C8.31174 4.9386 8.64286 4.11195 8.64286 3.25C8.64286 2.38805 8.31174 1.5614 7.72234 0.951903C7.13294 0.34241 6.33354 0 5.5 0C4.66646 0 3.86706 0.34241 3.27766 0.951903C2.68826 1.5614 2.35714 2.38805 2.35714 3.25C2.35714 4.11195 2.68826 4.9386 3.27766 5.5481C3.86706 6.15759 4.66646 6.5 5.5 6.5ZM3.14286 7.90156C1.32589 8.45254 0 10.1893 0 12.2459C0 12.6623 0.326563 13 0.729241 13H10.2708C10.6734 13 11 12.6623 11 12.2459C11 10.1893 9.67411 8.45254 7.85714 7.90156V9.19141C8.53482 9.37168 9.03571 10.009 9.03571 10.7656V11.7812C9.03571 12.0047 8.85893 12.1875 8.64286 12.1875H8.25C8.03393 12.1875 7.85714 12.0047 7.85714 11.7812C7.85714 11.5578 8.03393 11.375 8.25 11.375V10.7656C8.25 10.3162 7.89888 9.95312 7.46429 9.95312C7.02969 9.95312 6.67857 10.3162 6.67857 10.7656V11.375C6.89464 11.375 7.07143 11.5578 7.07143 11.7812C7.07143 12.0047 6.89464 12.1875 6.67857 12.1875H6.28571C6.06964 12.1875 5.89286 12.0047 5.89286 11.7812V10.7656C5.89286 10.009 6.39375 9.37168 7.07143 9.19141V7.7416C6.92411 7.72637 6.77433 7.71875 6.6221 7.71875H4.3779C4.22567 7.71875 4.07589 7.72637 3.92857 7.7416V9.40215C4.49576 9.57734 4.91071 10.1207 4.91071 10.7656C4.91071 11.5502 4.29442 12.1875 3.53571 12.1875C2.77701 12.1875 2.16071 11.5502 2.16071 10.7656C2.16071 10.1207 2.57567 9.57734 3.14286 9.40215V7.90156ZM3.53571 11.375C3.692 11.375 3.84189 11.3108 3.9524 11.1965C4.06291 11.0822 4.125 10.9272 4.125 10.7656C4.125 10.604 4.06291 10.449 3.9524 10.3347C3.84189 10.2205 3.692 10.1562 3.53571 10.1562C3.37943 10.1562 3.22954 10.2205 3.11903 10.3347C3.00851 10.449 2.94643 10.604 2.94643 10.7656C2.94643 10.9272 3.00851 11.0822 3.11903 11.1965C3.22954 11.3108 3.37943 11.375 3.53571 11.375Z" fill="#C3F1C2"/>
</g>
<defs>
<clipPath id="clip0_4226_2525">
<rect width="11" height="13" fill="white"/>
</clipPath>
</defs>
</svg>
