<svg width="20" height="20" viewBox="0 0 20 20" fill="none" xmlns="http://www.w3.org/2000/svg">
<g clip-path="url(#clip0_1919_27289)">
<path d="M3.85547 0.0937405C3.10547 0.359365 2.49219 0.980459 2.21484 1.7578L2.125 2.01171V9.96093V17.9101L2.21484 18.1641C2.49609 18.9492 3.11719 19.5703 3.90234 19.8516L4.15625 19.9414L9.93359 19.9531C16.3828 19.9648 15.8984 19.9844 16.5195 19.6836C16.7891 19.5508 16.9141 19.457 17.1836 19.1836C17.5313 18.8359 17.6914 18.582 17.8555 18.125L17.9453 17.8711L17.957 11.6797C17.9648 5.6953 17.9648 5.48437 17.8906 5.37108C17.8516 5.30468 16.6914 4.0703 15.3125 2.62499L12.8047 -9.53674e-06H8.46094H4.11719L3.85547 0.0937405ZM12.0352 2.66405C12.0469 4.08983 12.0625 4.42577 12.1094 4.5703C12.3594 5.29687 12.8516 5.79296 13.5508 6.02343C13.7891 6.10155 13.9023 6.10937 15.3789 6.12499L16.9492 6.14062V11.8711C16.9492 17.5937 16.9492 17.6016 16.8672 17.8437C16.6719 18.418 16.1641 18.8476 15.5547 18.9453C15.25 18.9961 4.82031 18.9961 4.51172 18.9453C4.01953 18.8672 3.52344 18.5234 3.3125 18.1211C3.08984 17.6992 3.10547 18.2773 3.08984 10.1367C3.08594 5.39452 3.09375 2.54687 3.11719 2.39062C3.22656 1.67968 3.78906 1.09374 4.47656 0.976553C4.57813 0.960928 6.32031 0.945303 8.34375 0.941397L12.0234 0.93749L12.0352 2.66405ZM14.5703 3.33202C15.3945 4.19921 16.1133 4.95702 16.168 5.01562L16.2656 5.12108L15.0938 5.10937L13.9219 5.09765L13.6992 4.98827C13.4219 4.85155 13.2305 4.64452 13.125 4.35937C13.0469 4.15233 13.043 4.0664 13.043 2.94921C13.043 2.29296 13.0508 1.7578 13.0586 1.7578C13.0664 1.7578 13.75 2.46483 14.5703 3.33202Z" fill="#3D7C85"/>
<path d="M9.77667 6.67956C9.5423 6.82018 9.55011 6.69909 9.53058 9.61706L9.51105 12.2967L8.53449 11.2421C7.99933 10.6639 7.51105 10.1639 7.45245 10.1327C7.31183 10.0585 7.03058 10.0624 6.9212 10.1405C6.73761 10.2694 6.65949 10.6132 6.76886 10.8046C6.8587 10.9647 9.72199 14.0077 9.82355 14.0546C9.96808 14.121 10.1165 14.1132 10.261 14.0311C10.3314 13.996 11.0462 13.2577 11.8509 12.3905C13.4329 10.6874 13.4212 10.7108 13.3235 10.3866C13.2923 10.2811 13.2337 10.2069 13.1517 10.1561C13.0189 10.0741 12.7376 10.0507 12.6204 10.1171C12.5814 10.1366 12.1009 10.6327 11.5579 11.2186L10.5657 12.2811L10.5462 9.60534C10.5267 7.06237 10.5228 6.92956 10.4525 6.82409C10.304 6.60143 10.0071 6.53893 9.77667 6.67956Z" fill="#3D7C85"/>
<path d="M5.92188 15.6641C5.72656 15.7266 5.54688 15.9492 5.54688 16.1328C5.54688 16.2773 5.67188 16.4883 5.79688 16.5664C5.91406 16.6367 6.07422 16.6406 10.0352 16.6406C14.0586 16.6406 14.1523 16.6406 14.2734 16.5625C14.5742 16.3789 14.5898 15.9687 14.3086 15.7539L14.168 15.6445L10.1016 15.6367C7.86328 15.6328 5.98438 15.6445 5.92188 15.6641Z" fill="#3D7C85"/>
</g>
<defs>
<clipPath id="clip0_1919_27289">
<rect width="20" height="20" fill="white"/>
</clipPath>
</defs>
</svg>
