<svg width="18" height="19" viewBox="0 0 18 19" fill="none" xmlns="http://www.w3.org/2000/svg">
<g clip-path="url(#clip0_4032_21127)">
<path d="M8.5 12.1129C8.31199 12.1129 8.12542 12.1042 7.94138 12.0879C6.99173 12.0023 6.07343 11.7022 5.25475 11.2098C4.43608 10.7175 3.7381 10.0454 3.21271 9.24379L0 15.0161H4.14195L6.23093 18.5L9.20341 12.0733C8.96984 12.0995 8.73501 12.1127 8.5 12.1129ZM13.7945 9.23653C13.0336 10.3976 11.919 11.2781 10.6185 11.7456L9.1375 14.998L10.7691 18.5L12.8581 15.0161H17L13.7945 9.23653Z" fill="#10996E"/>
<path d="M8.50072 7.46774C9.45552 7.46774 10.2295 6.68785 10.2295 5.72581C10.2295 4.76376 9.45552 3.98387 8.50072 3.98387C7.54592 3.98387 6.77191 4.76376 6.77191 5.72581C6.77191 6.68785 7.54592 7.46774 8.50072 7.46774Z" fill="#10996E"/>
<path d="M8.5 0.5C5.64025 0.5 3.31356 2.84435 3.31356 5.72581C3.31356 8.60726 5.64025 10.9516 8.5 10.9516C11.3597 10.9516 13.6864 8.60726 13.6864 5.72581C13.6864 2.84435 11.3597 0.5 8.5 0.5ZM8.5 8.62903C7.93012 8.62903 7.37304 8.45876 6.8992 8.13975C6.42537 7.82074 6.05606 7.36732 5.83797 6.83682C5.61989 6.30633 5.56283 5.72259 5.67401 5.15942C5.78519 4.59624 6.05961 4.07894 6.46257 3.67292C6.86554 3.26689 7.37895 2.99039 7.93788 2.87837C8.4968 2.76634 9.07615 2.82384 9.60265 3.04358C10.1291 3.26331 10.5792 3.63543 10.8958 4.11286C11.2124 4.59029 11.3814 5.1516 11.3814 5.72581C11.3805 6.49552 11.0767 7.23347 10.5365 7.77774C9.99631 8.32202 9.26392 8.62817 8.5 8.62903Z" fill="#10996E"/>
</g>
<defs>
<clipPath id="clip0_4032_21127">
<rect width="18" height="18" fill="white" transform="translate(0 0.5)"/>
</clipPath>
</defs>
</svg>
