<svg width="18" height="18" viewBox="0 0 18 18" fill="none" xmlns="http://www.w3.org/2000/svg">
<path d="M8.5 11.6129C8.31199 11.6129 8.12542 11.6042 7.94138 11.5879C6.99173 11.5023 6.07343 11.2022 5.25475 10.7098C4.43608 10.2175 3.7381 9.54544 3.21271 8.74379L0 14.5161H4.14195L6.23093 18L9.20341 11.5733C8.96984 11.5995 8.73501 11.6127 8.5 11.6129ZM13.7945 8.73653C13.0336 9.89757 11.919 10.7781 10.6185 11.2456L9.1375 14.498L10.7691 18L12.8581 14.5161H17L13.7945 8.73653Z" fill="#3D7C85"/>
<path d="M8.50072 6.96774C9.45552 6.96774 10.2295 6.18785 10.2295 5.22581C10.2295 4.26376 9.45552 3.48387 8.50072 3.48387C7.54592 3.48387 6.77191 4.26376 6.77191 5.22581C6.77191 6.18785 7.54592 6.96774 8.50072 6.96774Z" fill="#3D7C85"/>
<path d="M8.5 0C5.64025 0 3.31356 2.34435 3.31356 5.22581C3.31356 8.10726 5.64025 10.4516 8.5 10.4516C11.3597 10.4516 13.6864 8.10726 13.6864 5.22581C13.6864 2.34435 11.3597 0 8.5 0ZM8.5 8.12903C7.93012 8.12903 7.37304 7.95876 6.8992 7.63975C6.42537 7.32074 6.05606 6.86732 5.83797 6.33682C5.61989 5.80633 5.56283 5.22259 5.67401 4.65942C5.78519 4.09624 6.05961 3.57894 6.46257 3.17292C6.86554 2.76689 7.37895 2.49039 7.93788 2.37837C8.4968 2.26634 9.07615 2.32384 9.60265 2.54358C10.1291 2.76331 10.5792 3.13543 10.8958 3.61286C11.2124 4.09029 11.3814 4.6516 11.3814 5.22581C11.3805 5.99552 11.0767 6.73347 10.5365 7.27774C9.99631 7.82202 9.26392 8.12817 8.5 8.12903Z" fill="#3D7C85"/>
</svg>
