<svg width="14" height="15" viewBox="0 0 14 15" fill="none" xmlns="http://www.w3.org/2000/svg">
<path d="M11.6719 4.00033H9.33854V2.83366C9.33854 2.19199 8.81354 1.66699 8.17188 1.66699H5.83854C5.19688 1.66699 4.67188 2.19199 4.67188 2.83366V4.00033H2.33854C1.69688 4.00033 1.17188 4.52533 1.17188 5.16699V12.167C1.17188 12.8087 1.69688 13.3337 2.33854 13.3337H11.6719C12.3135 13.3337 12.8385 12.8087 12.8385 12.167V5.16699C12.8385 4.52533 12.3135 4.00033 11.6719 4.00033ZM5.83854 2.83366H8.17188V4.00033H5.83854V2.83366ZM8.75521 9.25033H7.58854V10.417C7.58854 10.7378 7.32604 11.0003 7.00521 11.0003C6.68438 11.0003 6.42188 10.7378 6.42188 10.417V9.25033H5.25521C4.93438 9.25033 4.67188 8.98783 4.67188 8.66699C4.67188 8.34616 4.93438 8.08366 5.25521 8.08366H6.42188V6.91699C6.42188 6.59616 6.68438 6.33366 7.00521 6.33366C7.32604 6.33366 7.58854 6.59616 7.58854 6.91699V8.08366H8.75521C9.07604 8.08366 9.33854 8.34616 9.33854 8.66699C9.33854 8.98783 9.07604 9.25033 8.75521 9.25033Z" fill="#10996E"/>
</svg>
