<svg width="14" height="15" viewBox="0 0 14 15" fill="none" xmlns="http://www.w3.org/2000/svg">
<g clip-path="url(#clip0_4021_20252)">
<path d="M7 9.68777C6.85727 9.68777 6.71563 9.68121 6.5759 9.66891C5.85493 9.60447 5.15777 9.37835 4.53624 9.00734C3.91471 8.63634 3.38481 8.13 2.98594 7.52598L0.546875 11.8753H3.69141L5.27734 14.5003L7.53402 9.65797C7.3567 9.67768 7.17842 9.68763 7 9.68777ZM11.0195 7.52051C10.4419 8.39532 9.59571 9.0588 8.60836 9.41106L7.48398 11.8616L8.72266 14.5003L10.3086 11.8753H13.4531L11.0195 7.52051Z" fill="#10996E"/>
<path d="M7 6.1875C7.72487 6.1875 8.3125 5.59987 8.3125 4.875C8.3125 4.15013 7.72487 3.5625 7 3.5625C6.27513 3.5625 5.6875 4.15013 5.6875 4.875C5.6875 5.59987 6.27513 6.1875 7 6.1875Z" fill="#10996E"/>
<path d="M7 0.9375C4.82891 0.9375 3.0625 2.70391 3.0625 4.875C3.0625 7.04609 4.82891 8.8125 7 8.8125C9.17109 8.8125 10.9375 7.04609 10.9375 4.875C10.9375 2.70391 9.17109 0.9375 7 0.9375ZM7 7.0625C6.56735 7.0625 6.14442 6.93421 5.78469 6.69384C5.42496 6.45347 5.14458 6.11183 4.97901 5.71212C4.81345 5.31241 4.77013 4.87257 4.85453 4.44824C4.93894 4.02391 5.14728 3.63413 5.4532 3.3282C5.75913 3.02228 6.14891 2.81394 6.57324 2.72953C6.99757 2.64513 7.43741 2.68845 7.83712 2.85401C8.23683 3.01958 8.57847 3.29996 8.81884 3.65969C9.05921 4.01942 9.1875 4.44235 9.1875 4.875C9.18685 5.45496 8.95617 6.01098 8.54608 6.42108C8.13598 6.83117 7.57996 7.06185 7 7.0625Z" fill="#10996E"/>
</g>
<defs>
<clipPath id="clip0_4021_20252">
<rect width="14" height="14" fill="white" transform="translate(0 0.5)"/>
</clipPath>
</defs>
</svg>
