<svg width="172" height="248" viewBox="0 0 172 248" fill="none" xmlns="http://www.w3.org/2000/svg">
<path fill-rule="evenodd" clip-rule="evenodd" d="M62.6216 50.2201C78.9006 33.9411 100.98 24.7957 124.002 24.7957C147.024 24.7957 169.103 33.9411 185.382 50.2201C201.661 66.4991 210.806 88.5781 210.806 111.6C210.806 134.622 201.661 156.701 185.382 172.98L124.002 234.36L62.6216 172.98C54.5605 164.92 48.1661 155.351 43.8034 144.819C39.4408 134.287 37.1953 123 37.1953 111.6C37.1953 100.201 39.4408 88.9128 43.8034 78.3811C48.1661 67.8495 54.5605 58.2803 62.6216 50.2201ZM124.002 136.4C130.579 136.4 136.887 133.787 141.538 129.136C146.189 124.485 148.802 118.177 148.802 111.6C148.802 105.023 146.189 98.7147 141.538 94.0638C136.887 89.4129 130.579 86.8001 124.002 86.8001C117.424 86.8001 111.116 89.4129 106.465 94.0638C101.814 98.7147 99.2016 105.023 99.2016 111.6C99.2016 118.177 101.814 124.485 106.465 129.136C111.116 133.787 117.424 136.4 124.002 136.4Z" fill="#206175" fill-opacity="0.03"/>
</svg>
