<svg width="32" height="32" viewBox="0 0 32 32" fill="none" xmlns="http://www.w3.org/2000/svg">
<path d="M14.1307 22.1337L23.5307 12.7337L21.6641 10.867L14.1307 18.4003L10.3307 14.6003L8.46406 16.467L14.1307 22.1337ZM15.9974 29.3337C14.153 29.3337 12.4196 28.9834 10.7974 28.283C9.17518 27.5826 7.76406 26.6328 6.56406 25.4337C5.36406 24.2346 4.41429 22.8234 3.71473 21.2003C3.01518 19.5772 2.66495 17.8439 2.66406 16.0003C2.66318 14.1568 3.0134 12.4234 3.71473 10.8003C4.41606 9.17722 5.36584 7.7661 6.56406 6.56699C7.76229 5.36788 9.1734 4.4181 10.7974 3.71766C12.4214 3.01721 14.1547 2.66699 15.9974 2.66699C17.8401 2.66699 19.5734 3.01721 21.1974 3.71766C22.8214 4.4181 24.2325 5.36788 25.4307 6.56699C26.629 7.7661 27.5792 9.17722 28.2814 10.8003C28.9836 12.4234 29.3334 14.1568 29.3307 16.0003C29.3281 17.8439 28.9778 19.5772 28.2801 21.2003C27.5823 22.8234 26.6325 24.2346 25.4307 25.4337C24.229 26.6328 22.8178 27.583 21.1974 28.2843C19.577 28.9857 17.8436 29.3354 15.9974 29.3337Z" fill="#C3F1C2"/>
</svg>
