<svg width="18" height="18" viewBox="0 0 18 18" fill="none" xmlns="http://www.w3.org/2000/svg">
<path d="M9 4.55556V16.1111M9 4.55556H5.85715C5.39406 4.55556 4.94996 4.36826 4.62252 4.03485C4.29507 3.70146 4.11111 3.24927 4.11111 2.77778C4.11111 2.30628 4.29507 1.8541 4.62252 1.5207C4.94996 1.1873 5.39406 1 5.85715 1C8.3016 1 9 4.55556 9 4.55556ZM9 4.55556H12.1428C12.606 4.55556 13.05 4.36826 13.3775 4.03485C13.7049 3.70146 13.8889 3.24927 13.8889 2.77778C13.8889 2.30628 13.7049 1.8541 13.3775 1.5207C13.05 1.1873 12.606 1 12.1428 1C9.6984 1 9 4.55556 9 4.55556ZM2.77778 9H15.2222V14.1556C15.2222 15.1512 15.2222 15.6491 15.0284 16.0293C14.858 16.3638 14.586 16.6358 14.2516 16.8062C13.8713 17 13.3734 17 12.3778 17H5.62222C4.62657 17 4.12875 17 3.74846 16.8062C3.41395 16.6358 3.14198 16.3638 2.97155 16.0293C2.77778 15.6491 2.77778 15.1512 2.77778 14.1556V9ZM2.42222 9H15.5778C16.0756 9 16.3245 9 16.5147 8.90311C16.682 8.81787 16.8179 8.68196 16.9031 8.51467C17 8.32453 17 8.07564 17 7.57778V5.97778C17 5.47996 17 5.23104 16.9031 5.0409C16.8179 4.87364 16.682 4.73766 16.5147 4.65244C16.3245 4.55556 16.0756 4.55556 15.5778 4.55556H2.42222C1.9244 4.55556 1.67548 4.55556 1.48534 4.65244C1.31809 4.73766 1.18211 4.87364 1.09688 5.0409C1 5.23104 1 5.47996 1 5.97778V7.57778C1 8.07564 1 8.32453 1.09688 8.51467C1.18211 8.68196 1.31809 8.81787 1.48534 8.90311C1.67548 9 1.9244 9 2.42222 9Z" stroke="white" stroke-width="1.5" stroke-linecap="round" stroke-linejoin="round"/>
</svg>
