<svg width="16" height="18" viewBox="0 0 16 18" fill="none" xmlns="http://www.w3.org/2000/svg">
<path d="M11.5 15.2222H15M13.25 13.4444V17M8 1H3.8C2.81991 1 2.32986 1 1.95552 1.19377C1.62623 1.3642 1.35851 1.63617 1.19074 1.97068C1 2.35097 1 2.8488 1 3.84444V14.1556C1 15.1512 1 15.6491 1.19074 16.0293C1.35851 16.3638 1.62623 16.6358 1.95552 16.8062C2.32986 17 2.81991 17 3.8 17H7.125M8 1L13.25 6.33333M8 1V4.91111C8 5.40893 8 5.65785 8.09537 5.84799C8.17929 6.01524 8.31307 6.15123 8.47775 6.23645C8.66491 6.33333 8.90991 6.33333 9.4 6.33333H13.25M13.25 6.33333V9M4.5 13.4444H7.125M4.5 9.88889H9.75M4.5 6.33333H5.375" stroke="#206175" stroke-width="1.5" stroke-linecap="round" stroke-linejoin="round"/>
</svg>
