<svg width="16" height="17" viewBox="0 0 16 17" fill="none" xmlns="http://www.w3.org/2000/svg">
<path d="M13.3333 8.5C13.3333 11.7217 10.7217 14.3333 7.5 14.3333M13.3333 8.5C13.3333 5.27834 10.7217 2.66667 7.5 2.66667M13.3333 8.5H15M7.5 14.3333C4.27834 14.3333 1.66667 11.7217 1.66667 8.5M7.5 14.3333V16M7.5 2.66667C4.27834 2.66667 1.66667 5.27834 1.66667 8.5M7.5 2.66667V1M1.66667 8.5H0M10 8.5C10 9.88075 8.88075 11 7.5 11C6.11925 11 5 9.88075 5 8.5C5 7.11925 6.11925 6 7.5 6C8.88075 6 10 7.11925 10 8.5Z" stroke="#10996E" stroke-width="1.5" stroke-linecap="round" stroke-linejoin="round"/>
</svg>
