<svg width="18" height="19" viewBox="0 0 18 19" fill="none" xmlns="http://www.w3.org/2000/svg">
<path d="M1 3.72222C1 11.3315 7.16852 17.5 14.7778 17.5C15.1211 17.5 15.4614 17.4875 15.7985 17.4628C16.1852 17.4344 16.3786 17.4203 16.5547 17.3189C16.7004 17.235 16.8387 17.0862 16.9117 16.9347C17 16.7517 17 16.5383 17 16.1116V13.6073C17 13.2484 17 13.0689 16.9409 12.9151C16.8888 12.7792 16.804 12.6582 16.6941 12.5628C16.5698 12.4547 16.4011 12.3933 16.0638 12.2707L13.2133 11.2341C12.8209 11.0915 12.6246 11.0201 12.4385 11.0322C12.2743 11.0428 12.1164 11.0989 11.9821 11.194C11.83 11.3019 11.7226 11.4809 11.5077 11.839L10.7778 13.0556C8.42231 11.9888 6.5128 10.0768 5.44444 7.72222L6.661 6.99228C7.01907 6.77745 7.1981 6.67003 7.30596 6.51783C7.40107 6.38363 7.45716 6.22566 7.46782 6.06151C7.47991 5.87535 7.40853 5.67914 7.26587 5.28671L6.22932 2.43619C6.10667 2.0989 6.04534 1.93025 5.93726 1.80587C5.84179 1.69599 5.72079 1.61124 5.58491 1.55907C5.43108 1.5 5.25163 1.5 4.89273 1.5H2.38845C1.96167 1.5 1.74828 1.5 1.56532 1.58822C1.41378 1.6613 1.26501 1.79956 1.18107 1.94536C1.07972 2.1214 1.06556 2.31477 1.03724 2.70154C1.01256 3.03854 1 3.37892 1 3.72222Z" stroke="#0F5658" stroke-width="1.5" stroke-linecap="round" stroke-linejoin="round"/>
</svg>
