<svg width="128" height="20" viewBox="0 0 128 20" fill="none" xmlns="http://www.w3.org/2000/svg">
<g clip-path="url(#clip0_1919_19580)">
<path d="M7.16812 6.48057H2.28259V14.9641H0V4.30841H9.45073V14.9641H7.16812V6.48057Z" fill="#FF4A37"/>
<path d="M11.6719 4.3084H13.9545V5.47643C14.4217 5.02561 14.9222 4.67726 15.4562 4.43135C15.9901 4.18545 16.5908 4.0625 17.2582 4.0625C18.0057 4.0625 18.6932 4.20594 19.3206 4.49282C19.9613 4.76605 20.5086 5.15539 20.9624 5.66086C21.4163 6.15266 21.77 6.74012 22.0237 7.42312C22.2773 8.09256 22.4041 8.82344 22.4041 9.61575C22.4041 10.4354 22.2639 11.1868 21.9836 11.8699C21.7166 12.5393 21.3495 13.1199 20.8823 13.6117C20.4152 14.0898 19.8545 14.4655 19.2005 14.7388C18.5597 15.0119 17.8723 15.1486 17.1381 15.1486C16.484 15.1486 15.8967 15.0461 15.3761 14.8412C14.8555 14.6362 14.3816 14.3494 13.9545 13.9806V19.0625H11.6719V4.3084ZM16.7977 12.9764C17.2516 12.9764 17.672 12.9013 18.0591 12.751C18.4596 12.6007 18.8067 12.3822 19.1003 12.0953C19.394 11.7948 19.6209 11.4396 19.7811 11.0297C19.9546 10.6062 20.0414 10.1281 20.0414 9.59531C20.0414 9.1035 19.968 8.65269 19.8211 8.24281C19.6743 7.81931 19.4607 7.46412 19.1804 7.17725C18.9134 6.87669 18.5931 6.64444 18.2193 6.48056C17.8456 6.31663 17.4318 6.23463 16.9779 6.23463C16.2838 6.23463 15.6697 6.40538 15.1358 6.74694C14.6152 7.08844 14.2215 7.49831 13.9545 7.97644V11.2141C14.2215 11.7879 14.6019 12.2251 15.0958 12.5256C15.5896 12.8262 16.157 12.9764 16.7977 12.9764Z" fill="#FF4A37"/>
<path d="M23.5898 9.61575C23.5898 8.80975 23.7233 8.07206 23.9903 7.40269C24.2573 6.71963 24.6377 6.13217 25.1316 5.64037C25.6255 5.14856 26.2129 4.76605 26.8936 4.49282C27.5744 4.20594 28.3286 4.0625 29.1562 4.0625C29.9705 4.0625 30.718 4.20594 31.3988 4.49282C32.0929 4.76605 32.6869 5.14856 33.1808 5.64037C33.6747 6.13217 34.0551 6.71963 34.3221 7.40269C34.6024 8.07206 34.7425 8.80975 34.7425 9.61575C34.7425 10.4218 34.6024 11.1663 34.3221 11.8494C34.0551 12.5188 33.6747 13.0994 33.1808 13.5912C32.6869 14.083 32.0929 14.4655 31.3988 14.7388C30.718 15.0119 29.9705 15.1486 29.1562 15.1486C28.3419 15.1486 27.5944 15.0119 26.9136 14.7388C26.2329 14.4655 25.6455 14.083 25.1516 13.5912C24.6577 13.0994 24.2706 12.5188 23.9903 11.8494C23.7233 11.1663 23.5898 10.4218 23.5898 9.61575ZM25.9525 9.61575C25.9525 10.0939 26.026 10.5379 26.1728 10.9477C26.333 11.3576 26.5532 11.7127 26.8335 12.0133C27.1139 12.3139 27.4476 12.5529 27.8347 12.7306C28.2351 12.8944 28.6757 12.9764 29.1562 12.9764C29.6367 12.9764 30.0705 12.9013 30.4577 12.751C30.8581 12.5871 31.1985 12.3617 31.4789 12.0748C31.7592 11.7743 31.9794 11.4191 32.1396 11.0092C32.2998 10.5994 32.3798 10.1349 32.3798 9.61575C32.3798 9.09662 32.2931 8.63219 32.1196 8.22231C31.9594 7.79881 31.7325 7.44362 31.4388 7.15675C31.1451 6.85619 30.8047 6.63081 30.4176 6.48056C30.0305 6.31663 29.6101 6.23463 29.1562 6.23463C28.7023 6.23463 28.2752 6.31663 27.8747 6.48056C27.4876 6.63081 27.1473 6.85619 26.8536 7.15675C26.5733 7.44362 26.353 7.79881 26.1928 8.22231C26.0326 8.63219 25.9525 9.09662 25.9525 9.61575Z" fill="#FF4A37"/>
<path d="M35.3516 12.792H36.557C37.0257 12.1773 37.3405 11.4737 37.5012 10.6814C37.662 9.88901 37.7423 8.9942 37.7423 7.99695V4.30841H46.14V12.792H47.6066V17.4027H45.477V14.9641H37.4811V17.4027H35.3516V12.792ZM43.8497 12.792V6.48057H39.912V9.20595C39.912 9.8617 39.825 10.5174 39.6508 11.1731C39.4768 11.8153 39.2357 12.3549 38.9276 12.792H43.8497Z" fill="#3981F1"/>
<path d="M48.0703 9.61575C48.0703 8.80975 48.2042 8.07206 48.4721 7.40269C48.7399 6.71963 49.1217 6.13217 49.6172 5.64037C50.1128 5.14856 50.7021 4.76605 51.3851 4.49282C52.0682 4.20594 52.825 4.0625 53.6554 4.0625C54.4723 4.0625 55.2224 4.20594 55.9054 4.49282C56.6019 4.76605 57.1979 5.14856 57.6935 5.64037C58.189 6.13217 58.5708 6.71963 58.8386 7.40269C59.1199 8.07206 59.2605 8.80975 59.2605 9.61575C59.2605 10.4218 59.1199 11.1663 58.8386 11.8494C58.5708 12.5188 58.189 13.0994 57.6935 13.5912C57.1979 14.083 56.6019 14.4655 55.9054 14.7388C55.2224 15.0119 54.4723 15.1486 53.6554 15.1486C52.8384 15.1486 52.0883 15.0119 51.4053 14.7388C50.7222 14.4655 50.1329 14.083 49.6373 13.5912C49.1417 13.0994 48.7533 12.5188 48.4721 11.8494C48.2042 11.1663 48.0703 10.4218 48.0703 9.61575ZM50.4409 9.61575C50.4409 10.0939 50.5146 10.5379 50.6619 10.9477C50.8226 11.3576 51.0436 11.7127 51.3249 12.0133C51.6062 12.3139 51.941 12.5529 52.3294 12.7306C52.7312 12.8944 53.1732 12.9764 53.6554 12.9764C54.1375 12.9764 54.5728 12.9013 54.9612 12.751C55.363 12.5871 55.7045 12.3617 55.9858 12.0748C56.2671 11.7743 56.4881 11.4191 56.6488 11.0092C56.8095 10.5994 56.8899 10.1349 56.8899 9.61575C56.8899 9.09662 56.8028 8.63219 56.6287 8.22231C56.468 7.79881 56.2403 7.44362 55.9456 7.15675C55.651 6.85619 55.3094 6.63081 54.9211 6.48056C54.5326 6.31663 54.1108 6.23463 53.6554 6.23463C53.2 6.23463 52.7714 6.31663 52.3696 6.48056C51.9812 6.63081 51.6396 6.85619 51.345 7.15675C51.0637 7.44362 50.8427 7.79881 50.682 8.22231C50.5213 8.63219 50.4409 9.09662 50.4409 9.61575Z" fill="#3981F1"/>
<path d="M60.6797 4.30841H62.9699V8.6322L67.4901 4.30841H70.4835L65.4007 9.12401L70.6645 14.9641H67.7315L63.7336 10.5789L62.9699 11.3371V14.9641H60.6797V4.30841Z" fill="#3981F1"/>
<path d="M71.3867 4.30841H81.2311V6.48057H77.4539V14.9641H75.1639V6.48057H71.3867V4.30841Z" fill="#3981F1"/>
<path d="M81.7305 9.61575C81.7305 8.80975 81.8646 8.07206 82.1328 7.40269C82.4003 6.71963 82.7819 6.13217 83.2774 5.64037C83.773 5.14856 84.3624 4.76605 85.0457 4.49282C85.7283 4.20594 86.4854 4.0625 87.3155 4.0625C88.1329 4.0625 88.8826 4.20594 89.5659 4.49282C90.2626 4.76605 90.8581 5.14856 91.3536 5.64037C91.8492 6.13217 92.2313 6.71963 92.4989 7.40269C92.7805 8.07206 92.9207 8.80975 92.9207 9.61575C92.9207 10.4218 92.7805 11.1663 92.4989 11.8494C92.2313 12.5188 91.8492 13.0994 91.3536 13.5912C90.8581 14.083 90.2626 14.4655 89.5659 14.7388C88.8826 15.0119 88.1329 15.1486 87.3155 15.1486C86.4988 15.1486 85.7484 15.0119 85.0658 14.7388C84.3825 14.4655 83.7931 14.083 83.2976 13.5912C82.802 13.0994 82.4137 12.5188 82.1328 11.8494C81.8646 11.1663 81.7305 10.4218 81.7305 9.61575ZM84.1015 9.61575C84.1015 10.0939 84.1753 10.5379 84.3222 10.9477C84.4831 11.3576 84.7037 11.7127 84.9853 12.0133C85.2663 12.3139 85.6016 12.5529 85.9898 12.7306C86.3915 12.8944 86.8334 12.9764 87.3155 12.9764C87.7977 12.9764 88.2335 12.9013 88.6217 12.751C89.0234 12.5871 89.3648 12.3617 89.6464 12.0748C89.9273 11.7743 90.1486 11.4191 90.3089 11.0092C90.4698 10.5994 90.5503 10.1349 90.5503 9.61575C90.5503 9.09662 90.4631 8.63219 90.2888 8.22231C90.1285 7.79881 89.9005 7.44362 89.6061 7.15675C89.3111 6.85619 88.9698 6.63081 88.5815 6.48056C88.1933 6.31663 87.7709 6.23463 87.3155 6.23463C86.8602 6.23463 86.4317 6.31663 86.0301 6.48056C85.6418 6.63081 85.2998 6.85619 85.0054 7.15675C84.7238 7.44362 84.5032 7.79881 84.3423 8.22231C84.182 8.63219 84.1015 9.09662 84.1015 9.61575Z" fill="#3981F1"/>
<path d="M94.3203 4.3084H96.6103V5.47643C97.079 5.02561 97.5813 4.67726 98.117 4.43135C98.6528 4.18545 99.2556 4.0625 99.9255 4.0625C100.675 4.0625 101.365 4.20594 101.995 4.49282C102.637 4.76605 103.186 5.15539 103.642 5.66086C104.097 6.15266 104.452 6.74012 104.707 7.42312C104.961 8.09256 105.088 8.82344 105.088 9.61575C105.088 10.4354 104.948 11.1868 104.666 11.8699C104.399 12.5393 104.031 13.1199 103.561 13.6117C103.093 14.0898 102.53 14.4655 101.874 14.7388C101.231 15.0119 100.541 15.1486 99.8048 15.1486C99.1484 15.1486 98.5589 15.0461 98.0366 14.8412C97.5142 14.6362 97.0388 14.3494 96.6103 13.9806V19.0625H94.3203V4.3084ZM99.4635 12.9764C99.9188 12.9764 100.341 12.9013 100.729 12.751C101.131 12.6007 101.479 12.3822 101.774 12.0953C102.068 11.7948 102.296 11.4396 102.457 11.0297C102.631 10.6062 102.718 10.1281 102.718 9.59531C102.718 9.1035 102.644 8.65269 102.497 8.24281C102.35 7.81931 102.135 7.46412 101.854 7.17725C101.586 6.87669 101.265 6.64444 100.89 6.48056C100.514 6.31663 100.099 6.23463 99.6439 6.23463C98.9478 6.23463 98.3316 6.40538 97.7958 6.74694C97.2735 7.08844 96.8785 7.49831 96.6103 7.97644V11.2141C96.8785 11.7879 97.26 12.2251 97.7556 12.5256C98.2511 12.8262 98.8204 12.9764 99.4635 12.9764Z" fill="#3981F1"/>
<path d="M106.227 9.61575C106.227 8.80975 106.361 8.07206 106.628 7.40269C106.896 6.71963 107.278 6.13217 107.774 5.64037C108.269 5.14856 108.858 4.76605 109.541 4.49282C110.224 4.20594 110.981 4.0625 111.812 4.0625C112.628 4.0625 113.379 4.20594 114.062 4.49282C114.758 4.76605 115.354 5.14856 115.85 5.64037C116.345 6.13217 116.727 6.71963 116.995 7.40269C117.276 8.07206 117.417 8.80975 117.417 9.61575C117.417 10.4218 117.276 11.1663 116.995 11.8494C116.727 12.5188 116.345 13.0994 115.85 13.5912C115.354 14.083 114.758 14.4655 114.062 14.7388C113.379 15.0119 112.628 15.1486 111.812 15.1486C110.995 15.1486 110.245 15.0119 109.561 14.7388C108.879 14.4655 108.289 14.083 107.794 13.5912C107.298 13.0994 106.91 12.5188 106.628 11.8494C106.361 11.1663 106.227 10.4218 106.227 9.61575ZM108.597 9.61575C108.597 10.0939 108.671 10.5379 108.818 10.9477C108.979 11.3576 109.2 11.7127 109.481 12.0133C109.762 12.3139 110.097 12.5529 110.486 12.7306C110.888 12.8944 111.33 12.9764 111.812 12.9764C112.294 12.9764 112.729 12.9013 113.117 12.751C113.52 12.5871 113.861 12.3617 114.142 12.0748C114.423 11.7743 114.644 11.4191 114.805 11.0092C114.966 10.5994 115.046 10.1349 115.046 9.61575C115.046 9.09662 114.959 8.63219 114.785 8.22231C114.624 7.79881 114.397 7.44362 114.102 7.15675C113.807 6.85619 113.466 6.63081 113.077 6.48056C112.689 6.31663 112.267 6.23463 111.812 6.23463C111.356 6.23463 110.928 6.31663 110.526 6.48056C110.137 6.63081 109.796 6.85619 109.502 7.15675C109.22 7.44362 108.999 7.79881 108.838 8.22231C108.677 8.63219 108.597 9.09662 108.597 9.61575Z" fill="#3981F1"/>
<path d="M118.84 4.30841H123.3C124.76 4.30841 125.858 4.52016 126.595 4.94366C127.331 5.36715 127.7 6.09803 127.7 7.13626C127.7 7.62807 127.593 8.04476 127.378 8.38626C127.164 8.72782 126.883 9.0352 126.534 9.30839C127.03 9.4997 127.398 9.8207 127.64 10.2715C127.88 10.7087 128.001 11.2141 128.001 11.7879C128.001 12.8535 127.633 13.6527 126.896 14.1854C126.16 14.7046 125.122 14.9641 123.782 14.9641H118.84V4.30841ZM121.13 10.5584V12.8535H123.561C124.244 12.8535 124.76 12.7647 125.108 12.5871C125.456 12.4095 125.631 12.1226 125.631 11.7264C125.631 11.3029 125.463 11.0024 125.128 10.8248C124.806 10.6472 124.304 10.5584 123.622 10.5584H121.13ZM121.13 6.41907V8.5297H123.822C124.291 8.5297 124.66 8.44095 124.927 8.26332C125.195 8.08576 125.329 7.81251 125.329 7.44364C125.329 7.00651 125.148 6.72645 124.786 6.60351C124.438 6.48057 123.923 6.41907 123.239 6.41907H121.13Z" fill="#3981F1"/>
</g>
<defs>
<clipPath id="clip0_1919_19580">
<rect width="128" height="20" fill="white"/>
</clipPath>
</defs>
</svg>
