<svg width="66" height="48" viewBox="0 0 66 48" fill="none" xmlns="http://www.w3.org/2000/svg">
<path d="M5.36654 1.14961C3.27084 1.82891 1.47865 3.66446 0.857165 5.77461C0.654822 6.45391 0.625915 7.79805 0.625915 15.9063C0.625915 24.0145 0.654822 25.3586 0.857165 26.0379C1.47865 28.177 3.28529 29.998 5.4099 30.6629C6.14701 30.8941 6.75404 30.9375 9.16771 30.9375C10.7431 30.9375 12.0439 30.9664 12.0439 31.0098C12.0439 31.1977 10.7142 34.4785 10.3095 35.2734C8.71967 38.4531 6.50834 40.5055 2.86615 42.2254C1.68099 42.7746 1.29076 43.0348 1.0017 43.4684C0.293494 44.509 0.597009 46.0844 1.63763 46.7926C2.07123 47.0961 2.28802 47.125 3.97904 47.125C7.23099 47.125 10.2806 46.6625 13.0267 45.7375C19.0826 43.7285 23.4763 39.5227 26.9306 32.4551C28.9829 28.2492 29.9947 25.0406 30.4861 21.225C30.8185 18.5801 30.7029 13.8684 30.2548 11.7871C29.9079 10.1395 29.1708 8.10157 28.347 6.46836C27.6677 5.09531 25.8466 2.08907 25.4275 1.62656C24.7337 0.86055 25.0228 0.875004 15.2669 0.889454C6.86967 0.889454 6.13256 0.903908 5.36654 1.14961Z" fill="#C3F1C2"/>
<path d="M40.054 1.14961C37.9583 1.82891 36.1661 3.66446 35.5447 5.77461C35.3423 6.45391 35.3134 7.79805 35.3134 15.9063C35.3134 24.0145 35.3423 25.3586 35.5447 26.0379C36.1661 28.177 37.9728 29.998 40.0974 30.6629C40.8345 30.8941 41.4415 30.9375 43.8552 30.9375C45.4306 30.9375 46.7314 30.9664 46.7314 31.0098C46.7314 31.1977 45.4017 34.4785 44.997 35.2734C43.4072 38.4531 41.1958 40.5055 37.5536 42.2254C36.3685 42.7746 35.9783 43.0348 35.6892 43.4684C34.981 44.509 35.2845 46.0844 36.3251 46.7926C36.7587 47.0961 36.9755 47.125 38.6665 47.125C41.9185 47.125 44.9681 46.6625 47.7142 45.7375C53.7701 43.7285 58.1638 39.5227 61.6181 32.4551C63.6704 28.2492 64.6822 25.0406 65.1736 21.225C65.506 18.5801 65.3904 13.8684 64.9423 11.7871C64.5954 10.1395 63.8583 8.10157 63.0345 6.46836C62.3552 5.09531 60.5341 2.08907 60.115 1.62656C59.4212 0.86055 59.7103 0.875004 49.9544 0.889454C41.5572 0.889454 40.8201 0.903908 40.054 1.14961Z" fill="#C3F1C2"/>
</svg>
