<svg width="30" height="30" viewBox="0 0 30 30" fill="none" xmlns="http://www.w3.org/2000/svg">
<rect width="30" height="30" rx="5" fill="#206175"/>
<path d="M12.625 8.04547C10.5969 8.33609 8.91563 9.72984 8.26563 11.658C8.05625 12.283 8.01562 12.5548 8.01562 13.3767C8.01562 14.0236 8.025 14.1486 8.0875 14.4392C8.33125 15.5486 8.82188 16.4298 9.64375 17.2205C10.6813 18.2205 12.0344 18.733 13.4844 18.6798C14.175 18.6517 14.6875 18.5455 15.3281 18.2923C16.1438 17.9736 16.9781 17.3392 17.5469 16.6111C18.9531 14.808 19.05 12.2517 17.7844 10.3705C17.2375 9.55797 16.5688 8.97047 15.7031 8.54547C14.9375 8.17047 14.3625 8.03297 13.4844 8.01422C13.1188 8.00797 12.8188 8.02047 12.625 8.04547ZM13.5844 10.0642C13.8594 10.2298 13.8969 10.6048 13.6594 10.8205C13.5469 10.9205 13.3844 10.9705 13.1688 10.9705C12.9469 10.9705 12.5563 11.0767 12.2875 11.208C11.5156 11.5861 11.0156 12.3392 10.95 13.2267C10.9281 13.5236 10.875 13.6392 10.7156 13.758C10.4969 13.9205 10.1688 13.8205 10.0344 13.5517C9.95938 13.4048 9.95938 13.3923 9.99375 13.0673C10.1438 11.6423 11.1344 10.4642 12.4844 10.1111C12.8531 10.0142 12.8719 10.0111 13.2031 10.0048C13.4313 10.0017 13.5031 10.0142 13.5844 10.0642Z" fill="white"/>
<path d="M18.6094 16.7727C18.1531 17.4789 17.4656 18.1696 16.775 18.6164C16.6563 18.6914 16.5625 18.7633 16.5625 18.7758C16.5625 18.7883 17.2281 19.4602 18.0406 20.2696C19.3688 21.5946 19.5344 21.7477 19.7188 21.8352C20.6281 22.2664 21.6813 21.8071 21.9563 20.8602C22.0688 20.4727 22.0031 19.9664 21.7969 19.6039C21.7438 19.5102 21.1594 18.9008 20.2531 17.9914C19.4531 17.1883 18.7906 16.5321 18.7813 16.5321C18.7719 16.5321 18.6969 16.6414 18.6094 16.7727Z" fill="white"/>
</svg>
