<svg width="20" height="21" viewBox="0 0 20 21" fill="none" xmlns="http://www.w3.org/2000/svg">
<path fill-rule="evenodd" clip-rule="evenodd" d="M13.7521 11.2907C13.5567 11.1334 13.3279 11.0226 13.0831 10.9669C12.8384 10.9112 12.5841 10.912 12.3397 10.9692C11.9725 11.1215 11.7352 11.6968 11.498 11.9844C11.4479 12.0534 11.3744 12.1017 11.2912 12.1204C11.208 12.1391 11.1208 12.1269 11.046 12.086C9.70163 11.5603 8.57476 10.5963 7.84843 9.35052C7.78648 9.27278 7.75716 9.17408 7.76665 9.07519C7.77613 8.9763 7.82368 8.88494 7.89928 8.82035C8.16392 8.5588 8.35822 8.23485 8.46422 7.87846C8.48776 7.48536 8.39755 7.09379 8.20435 6.75045C8.05499 6.2691 7.77074 5.8405 7.38518 5.51528C7.18632 5.42599 6.96583 5.39605 6.75031 5.42907C6.53478 5.4621 6.33344 5.55668 6.17055 5.7014C5.88778 5.94496 5.66334 6.24874 5.51375 6.59038C5.36416 6.93201 5.29323 7.3028 5.30619 7.67542C5.30706 7.88467 5.33363 8.09303 5.38528 8.29583C5.51647 8.78308 5.71821 9.24859 5.98412 9.67764C6.17598 10.0063 6.3853 10.3245 6.61121 10.6308C7.34538 11.637 8.26825 12.4913 9.32858 13.1463C9.86067 13.4791 10.4294 13.7498 11.0234 13.9528C11.6405 14.2321 12.3218 14.3393 12.9951 14.263C13.3786 14.2051 13.7421 14.0539 14.0534 13.8227C14.3647 13.5916 14.6143 13.2877 14.7803 12.9376C14.8778 12.7261 14.9074 12.4897 14.865 12.2608C14.7633 11.7927 14.1362 11.5163 13.7521 11.2907Z" fill="white"/>
<path d="M0.015625 20.0178L1.45058 14.6823C0.293325 12.6038 -0.0743468 10.1785 0.415033 7.85121C0.904414 5.52397 2.21802 3.45097 4.1148 2.01261C6.01158 0.574244 8.36431 -0.132997 10.7412 0.020663C13.1182 0.174323 15.3599 1.17858 17.055 2.84914C18.7502 4.51971 19.785 6.74453 19.9697 9.11535C20.1543 11.4862 19.4764 13.8439 18.0603 15.756C16.6443 17.6681 14.585 19.0063 12.2604 19.5249C9.93583 20.0436 7.50188 19.7079 5.40518 18.5796L0.015625 20.0178ZM5.66505 16.583L5.99837 16.7804C7.51705 17.679 9.29085 18.0509 11.0433 17.8381C12.7958 17.6252 14.4286 16.8396 15.6871 15.6036C16.9457 14.3676 17.7593 12.7507 18.0013 11.0049C18.2433 9.25902 17.9 7.48229 17.0249 5.95156C16.1499 4.42083 14.7922 3.22208 13.1634 2.54213C11.5347 1.86217 9.72638 1.73921 8.02032 2.19239C6.31427 2.64558 4.80629 3.64946 3.73139 5.04759C2.65649 6.44573 2.07504 8.15958 2.07767 9.92206C2.07624 11.3834 2.48107 12.8166 3.2471 14.0619L3.45613 14.4059L2.65391 17.3839L5.66505 16.583Z" fill="white"/>
</svg>
