<svg width="13" height="12" viewBox="0 0 13 12" fill="none" xmlns="http://www.w3.org/2000/svg">
<g clip-path="url(#clip0_4037_26762)">
<path d="M6.64863 0.0328121C6.35801 0.128906 6.41426 0.0749998 3.75879 2.72578C2.36191 4.12031 1.18535 5.31562 1.14082 5.38125C0.962696 5.64609 0.911134 6.04922 1.01192 6.35391C1.16426 6.80625 1.5252 7.07344 2.04317 7.11562L2.22832 7.13203L2.23535 9.04453C2.24238 10.9195 2.24473 10.9594 2.2916 11.0859C2.46738 11.55 2.76035 11.8359 3.18926 11.9625C3.29942 11.9953 3.4752 12 4.44317 12C5.52598 12 5.57285 11.9977 5.64785 11.9531C5.69004 11.9273 5.74395 11.8734 5.76973 11.8312C5.81426 11.7562 5.8166 11.7094 5.8166 10.2656C5.8166 9.25078 5.82598 8.74687 5.84238 8.68359C5.88223 8.54297 5.99238 8.4 6.1166 8.32734L6.22676 8.26172H6.96738H7.70801L7.82285 8.33203C7.95176 8.41172 8.07363 8.59219 8.09942 8.73516C8.10645 8.78437 8.11348 9.48047 8.11348 10.2844C8.11348 11.8664 8.10879 11.8055 8.24238 11.9297L8.30567 11.9883L9.43301 11.9953C10.1877 12 10.6025 11.993 10.6846 11.9766C11.008 11.9086 11.383 11.6227 11.5307 11.332C11.6947 11.0039 11.6854 11.1375 11.6947 9.03281L11.7018 7.12969L11.8939 7.11328C12.365 7.07344 12.6744 6.86719 12.8689 6.46875C12.951 6.29531 12.9533 6.28828 12.9533 6C12.9533 5.70937 12.9533 5.70469 12.8643 5.51953C12.7752 5.33203 12.7729 5.32969 10.2041 2.76094C7.63301 0.189843 7.63301 0.189843 7.44551 0.10078C7.26738 0.0164061 7.24395 0.0117188 7.0002 0.00703049C6.83379 0.00234318 6.70957 0.0117188 6.64863 0.0328121Z" fill="white"/>
</g>
<defs>
<clipPath id="clip0_4037_26762">
<rect width="12" height="12" fill="white" transform="translate(0.984375)"/>
</clipPath>
</defs>
</svg>
