<svg width="12" height="12" viewBox="0 0 12 12" fill="none" xmlns="http://www.w3.org/2000/svg">
<g clip-path="url(#clip0_4038_26964)">
<path d="M5.67988 0.0328121C5.38926 0.128906 5.44551 0.0749998 2.79004 2.72578C1.39316 4.12031 0.216603 5.31562 0.172071 5.38125C-0.00605374 5.64609 -0.0576162 6.04922 0.043165 6.35391C0.195509 6.80625 0.556446 7.07344 1.07442 7.11562L1.25957 7.13203L1.2666 9.04453C1.27363 10.9195 1.27598 10.9594 1.32285 11.0859C1.49863 11.55 1.7916 11.8359 2.22051 11.9625C2.33067 11.9953 2.50645 12 3.47442 12C4.55723 12 4.6041 11.9977 4.6791 11.9531C4.72129 11.9273 4.7752 11.8734 4.80098 11.8312C4.84551 11.7562 4.84785 11.7094 4.84785 10.2656C4.84785 9.25078 4.85723 8.74687 4.87363 8.68359C4.91348 8.54297 5.02363 8.4 5.14785 8.32734L5.25801 8.26172H5.99863H6.73926L6.8541 8.33203C6.98301 8.41172 7.10488 8.59219 7.13067 8.73516C7.1377 8.78437 7.14473 9.48047 7.14473 10.2844C7.14473 11.8664 7.14004 11.8055 7.27363 11.9297L7.33692 11.9883L8.46426 11.9953C9.21895 12 9.63379 11.993 9.71582 11.9766C10.0393 11.9086 10.4143 11.6227 10.5619 11.332C10.726 11.0039 10.7166 11.1375 10.726 9.03281L10.733 7.12969L10.9252 7.11328C11.3963 7.07344 11.7057 6.86719 11.9002 6.46875C11.9822 6.29531 11.9846 6.28828 11.9846 6C11.9846 5.70937 11.9846 5.70469 11.8955 5.51953C11.8064 5.33203 11.8041 5.32969 9.23535 2.76094C6.66426 0.189843 6.66426 0.189843 6.47676 0.10078C6.29863 0.0164061 6.2752 0.0117188 6.03145 0.00703049C5.86504 0.00234318 5.74082 0.0117188 5.67988 0.0328121Z" fill="#0F5658"/>
</g>
<defs>
<clipPath id="clip0_4038_26964">
<rect width="12" height="12" fill="white"/>
</clipPath>
</defs>
</svg>
