<svg width="23" height="22" viewBox="0 0 23 22" fill="none" xmlns="http://www.w3.org/2000/svg">
<g clip-path="url(#clip0_4037_26734)">
<path d="M12.6899 2.56106C8.35633 3.13255 5.11719 6.74192 5.11719 11.0001C5.11719 14.9919 7.95916 18.4423 11.9662 19.3103C13.0121 19.538 14.3448 19.5681 15.3995 19.3833C19.1197 18.7474 21.9705 15.8685 22.5221 12.199C22.6148 11.5974 22.6148 10.4029 22.5221 9.8013C22.0455 6.61731 19.8302 3.99622 16.7366 2.95208C15.5231 2.53958 13.9653 2.38919 12.6899 2.56106ZM14.2609 9.13958L14.2742 11.4083L15.7614 12.3966C16.5778 12.938 17.2618 13.3978 17.2794 13.4193C17.3103 13.4493 16.644 14.4419 16.5954 14.4333C16.5822 14.4333 15.7658 13.8962 14.7817 13.2431L12.9944 12.0529L12.9812 9.46184L12.9723 6.87512H13.6122H14.2521L14.2609 9.13958Z" fill="#C3F1C2"/>
<path d="M1.19531 8.42188V9.06641H2.51921H3.84312V8.42188V7.77734H2.51921H1.19531V8.42188Z" fill="#C3F1C2"/>
<path d="M0 11V11.6445H1.91966H3.83932V11V10.3555H1.91966H0V11Z" fill="#C3F1C2"/>
<path d="M1.19531 13.5781V14.2227H2.51921H3.84312V13.5781V12.9336H2.51921H1.19531V13.5781Z" fill="#C3F1C2"/>
</g>
<defs>
<clipPath id="clip0_4037_26734">
<rect width="22.5946" height="22" fill="white"/>
</clipPath>
</defs>
</svg>
