<svg width="8" height="12" viewBox="0 0 8 12" fill="none" xmlns="http://www.w3.org/2000/svg">
<path d="M0.403479 0.0396967C0.280432 0.0982904 0.16743 0.213135 0.12474 0.320947C0.0745168 0.438134 0.0870726 0.632666 0.149852 0.747509C0.172452 0.785009 1.5561 1.98032 3.22351 3.39829C4.89092 4.81626 6.25448 5.98813 6.25448 5.99985C6.25448 6.01157 4.89092 7.18345 3.22351 8.60142C1.5561 10.0194 0.172452 11.2147 0.149852 11.2522C0.094606 11.353 0.0770279 11.5522 0.114695 11.6577C0.154874 11.7702 0.272898 11.8967 0.393434 11.9553C0.518992 12.0139 0.744997 12.0139 0.880599 11.9553C1.00365 11.9014 7.48746 6.39126 7.56029 6.27642C7.60046 6.21548 7.61051 6.15688 7.61051 5.99517C7.61051 5.80767 7.60549 5.78657 7.53517 5.69517C7.42217 5.54985 1.00113 0.0959473 0.880599 0.044384C0.755041 -0.00952244 0.508948 -0.0118656 0.403479 0.0396967Z" fill="white"/>
</svg>
