<svg width="20" height="20" viewBox="0 0 20 20" fill="none" xmlns="http://www.w3.org/2000/svg">
<path d="M8.08225 18H4.78046C3.80721 18 3.32058 18 2.94885 17.8062C2.62186 17.6358 2.35601 17.3638 2.18941 17.0293C2 16.6491 2 16.1512 2 15.1556V6.62222C2 5.62658 2 5.12875 2.18941 4.74846C2.35601 4.41395 2.62186 4.14198 2.94885 3.97155C3.32058 3.77778 3.80721 3.77778 4.78046 3.77778H14.8596C15.8329 3.77778 16.3195 3.77778 16.6913 3.97155C17.0182 4.14198 17.2841 4.41395 17.4507 4.74846C17.6401 5.12875 17.6401 5.62658 17.6401 6.62222V8.22222M5.47557 2V3.77778M14.1645 2V3.77778M2 7.33333H17.6401M11.5578 18L13.3173 17.64C13.4707 17.6086 13.5474 17.5929 13.6189 17.5642C13.6824 17.5388 13.7428 17.5057 13.7987 17.4658C13.8618 17.4208 13.917 17.3643 14.0277 17.251L17.6401 13.5556C18.12 13.0646 18.12 12.2687 17.6401 11.7778C17.1602 11.2868 16.3822 11.2868 15.9023 11.7778L12.29 15.4732C12.1793 15.5865 12.124 15.643 12.08 15.7076C12.041 15.7647 12.0087 15.8265 11.9838 15.8915C11.9558 15.9646 11.9404 16.0431 11.9097 16.2L11.5578 18Z" stroke="#405F6A" stroke-width="1.5" stroke-linecap="round" stroke-linejoin="round"/>
</svg>
