<svg width="19" height="18" viewBox="0 0 19 18" fill="none" xmlns="http://www.w3.org/2000/svg">
<path d="M1.66797 7.22222H17.668M5.22352 1V2.77778M14.1124 1V2.77778M4.51241 17H14.8235C15.8192 17 16.317 17 16.6973 16.8062C17.0318 16.6358 17.3038 16.3638 17.4742 16.0293C17.668 15.6491 17.668 15.1512 17.668 14.1556V5.62222C17.668 4.62657 17.668 4.12875 17.4742 3.74846C17.3038 3.41395 17.0318 3.14198 16.6973 2.97155C16.317 2.77778 15.8192 2.77778 14.8235 2.77778H4.51241C3.51677 2.77778 3.01894 2.77778 2.63865 2.97155C2.30414 3.14198 2.03217 3.41395 1.86174 3.74846C1.66797 4.12875 1.66797 4.62657 1.66797 5.62222V14.1556C1.66797 15.1512 1.66797 15.6491 1.86174 16.0293C2.03217 16.3638 2.30414 16.6358 2.63865 16.8062C3.01894 17 3.51676 17 4.51241 17Z" stroke="#405F6A" stroke-width="1.5" stroke-linecap="round" stroke-linejoin="round"/>
</svg>
