<svg width="16" height="14" viewBox="0 0 16 14" fill="none" xmlns="http://www.w3.org/2000/svg">
<path d="M11.4828 1.02675C10.4483 1.31288 7.69663 2.07237 5.36562 2.71175L1.12773 3.87394L3.15875 3.88454L5.18631 3.8916L8.66214 2.93783C10.5725 2.41502 12.169 1.98406 12.2173 1.98406C12.3138 1.98406 12.4242 2.10063 12.4759 2.25606C12.538 2.44681 12.6862 2.61284 12.8793 2.71175C13.0345 2.78593 13.1069 2.80006 13.3173 2.79653C13.4552 2.793 13.5966 2.78946 13.6276 2.793C13.7207 2.80006 13.7862 2.9343 13.8828 3.29461C13.9311 3.4783 13.9828 3.68672 14.0035 3.75737L14.0379 3.8916H14.5897C15.1 3.8916 15.1414 3.88807 15.1241 3.82802C15.1172 3.79623 14.9517 3.16744 14.7621 2.43621C14.569 1.70499 14.3966 1.06207 14.3793 1.00909C14.3138 0.839526 14.2035 0.712356 14.0242 0.606381C13.7069 0.419158 13.6276 0.433288 11.4828 1.02675Z" fill="white"/>
<path d="M9.65523 3.2063C8.35525 3.56308 7.2794 3.86334 7.25871 3.87041C7.24146 3.88101 8.638 3.88807 10.3656 3.88807L13.5104 3.8916L13.3655 3.33347L13.138 3.31934C12.7449 3.29814 12.3828 3.06147 12.069 2.62697C12.0173 2.55632 11.9897 2.56338 9.65523 3.2063Z" fill="white"/>
<path d="M0.46567 4.52392C0.389808 4.55925 0.279465 4.64403 0.217396 4.70761C-0.013636 4.95842 0.000156934 4.68642 0.000156934 8.98547C0.000156934 12.7052 0.00360518 12.8889 0.0656735 13.0231C0.144983 13.1962 0.320843 13.3728 0.489807 13.4435C0.603599 13.4929 1.41049 13.5 8.00008 13.5C14.5897 13.5 15.3966 13.4929 15.5104 13.4435C15.6793 13.3728 15.8552 13.1962 15.9345 13.0231C15.9966 12.8889 16 12.7052 16 8.9784C16 5.25162 15.9966 5.06793 15.9345 4.93369C15.8552 4.7606 15.6793 4.58397 15.5104 4.51332C15.3966 4.46387 14.5897 4.4568 7.99318 4.4568C0.869113 4.4568 0.600151 4.46034 0.46567 4.52392ZM13.6 5.63666C13.7207 5.68611 13.7931 5.82741 13.7931 6.00757C13.7966 6.32196 14.1897 6.7176 14.5 6.7176C14.6655 6.7176 14.8173 6.80945 14.8586 6.92955C14.9207 7.11324 14.9104 10.886 14.8483 11.0414C14.8 11.1615 14.6621 11.2392 14.4931 11.2392C14.1897 11.2392 13.7966 11.6384 13.7931 11.9492C13.7931 12.1294 13.7207 12.2707 13.6 12.3201C13.4276 12.3943 2.57255 12.3943 2.40013 12.3201C2.27945 12.2707 2.20703 12.1294 2.20703 11.9492C2.20358 11.6384 1.81048 11.2392 1.50704 11.2392C1.33807 11.2392 1.20015 11.1615 1.15187 11.0414C1.0898 10.886 1.07946 7.11324 1.14153 6.92955C1.18635 6.80592 1.33463 6.7176 1.50704 6.7176C1.81738 6.71407 2.20703 6.3149 2.20703 6.00051C2.20703 5.83448 2.28289 5.68611 2.39324 5.63666C2.5553 5.56601 13.4311 5.56248 13.6 5.63666Z" fill="white"/>
<path d="M2.68979 6.21599C2.68979 6.34669 2.47944 6.71407 2.31048 6.87303C2.13807 7.03553 1.83462 7.21215 1.71738 7.21215C1.65876 7.21215 1.65531 7.32166 1.65531 8.9784C1.65531 10.6351 1.65876 10.7447 1.71738 10.7447C1.83462 10.7447 2.13807 10.9213 2.31048 11.0838C2.47944 11.2427 2.68979 11.6101 2.68979 11.7408C2.68979 11.8009 2.86565 11.8044 8.00008 11.8044C13.1345 11.8044 13.3104 11.8009 13.3104 11.7408C13.3104 11.6101 13.5207 11.2427 13.6931 11.0802C13.8414 10.9389 14.0586 10.8118 14.2862 10.7341C14.3414 10.7129 14.3448 10.5963 14.3448 8.96074C14.3448 7.31813 14.3414 7.21215 14.2862 7.21215C14.1655 7.21215 13.8621 7.03553 13.6897 6.87303C13.5207 6.71407 13.3104 6.34669 13.3104 6.21599C13.3104 6.15594 13.1345 6.1524 8.00008 6.1524C2.86565 6.1524 2.68979 6.15594 2.68979 6.21599ZM8.53456 6.80945C9.27248 6.98607 9.92765 7.65725 10.1207 8.43086C10.1897 8.7064 10.1897 9.25394 10.1207 9.52241C9.78627 10.8224 8.42421 11.543 7.21388 11.0626C6.57595 10.8118 6.05527 10.2077 5.87941 9.52594C5.81389 9.25747 5.81389 8.69934 5.87941 8.43086C6.05527 7.74909 6.57595 7.14504 7.21388 6.89423C7.64836 6.72114 8.06215 6.69641 8.53456 6.80945Z" fill="white"/>
<path d="M7.47595 7.34992C6.97595 7.51595 6.54837 7.96458 6.40009 8.48032C6.32768 8.73113 6.32768 9.22568 6.40009 9.47649C6.54837 9.99929 6.9794 10.4444 7.48629 10.6069C7.93111 10.7482 8.52076 10.674 8.89317 10.4303C9.38282 10.1053 9.66213 9.58246 9.66213 8.9784C9.66213 8.37435 9.38282 7.85154 8.89317 7.52655C8.52076 7.2828 7.91387 7.20862 7.47595 7.34992Z" fill="white"/>
</svg>
