<svg width="16" height="14" viewBox="0 0 16 14" fill="none" xmlns="http://www.w3.org/2000/svg">
<path d="M6.30938 0.0561781C5.8375 0.186999 5.475 0.57946 5.3625 1.07658C5.33125 1.2074 5.3125 1.44615 5.3125 1.68816V2.09044H3.49375C1.4625 2.09044 1.4125 2.09698 1 2.30629C0.690625 2.46654 0.334375 2.83284 0.190625 3.137C0.0125 3.52292 0 3.61449 0 4.68068V5.64875L3.94688 7.02564C6.1375 7.79094 7.94063 8.40252 8 8.40252C8.05937 8.40252 9.8625 7.79094 12.0531 7.02564L16 5.64875V4.68068C16 3.61449 15.9875 3.52292 15.8094 3.137C15.6656 2.83284 15.3094 2.46654 15 2.30629C14.5875 2.09698 14.5375 2.09044 12.5094 2.09044H10.6875V1.6947C10.6875 1.19759 10.6281 0.913052 10.4719 0.661223C10.2719 0.337442 10 0.13467 9.65625 0.0496371C9.4875 0.00712047 9.19688 -0.00269106 7.98438 0.000579452C6.70312 0.000579452 6.49062 0.00712048 6.30938 0.0561781ZM9.3125 2.09044H6.6875V1.43633H9.3125V2.09044Z" fill="white"/>
<path d="M0 9.54066C0 11.915 0.009375 12.4056 0.046875 12.5561C0.21875 13.2396 0.7875 13.7989 1.45312 13.946C1.78125 14.018 14.2188 14.018 14.5469 13.946C15.2125 13.7989 15.7812 13.2396 15.9531 12.5561C15.9906 12.4056 16 11.915 16 9.54066V6.7084L8.23438 9.41965L7.95312 9.4033C7.68438 9.39022 7.52187 9.33789 3.8375 8.04931L0 6.7084V9.54066Z" fill="white"/>
</svg>
