<svg width="16" height="16" viewBox="0 0 16 16" fill="none" xmlns="http://www.w3.org/2000/svg">
<path d="M3.35313 0.0359697C3.0375 0.139145 2.75625 0.389267 2.6 0.708173C2.53125 0.851993 2.51562 0.933282 2.50625 1.18653L2.49375 1.49293H1.8625C1.37813 1.49293 1.19063 1.50544 1.05938 1.54295C0.596875 1.67739 0.203125 2.06821 0.059375 2.52781C0.00625 2.69664 0 2.82483 0 3.74403C0 4.66323 0.00625 4.79141 0.059375 4.96025C0.125 5.17285 0.2625 5.40421 0.40625 5.54178L0.5 5.63245V10.2034C0.5 14.6024 0.503125 14.7838 0.559375 14.9651C0.703125 15.4247 1.09688 15.8155 1.55938 15.95C1.7125 15.9937 2.36875 16 8 16C13.6313 16 14.2875 15.9937 14.4406 15.95C14.9031 15.8155 15.2969 15.4247 15.4406 14.9651C15.4969 14.7838 15.5 14.6024 15.5 10.2034V5.63245L15.5938 5.54178C15.7375 5.40421 15.875 5.17285 15.9406 4.96025C15.9938 4.79141 16 4.66323 16 3.74715C16 2.90612 15.9906 2.69351 15.95 2.55282C15.8156 2.0901 15.425 1.69615 14.9656 1.55233C14.8063 1.50231 14.675 1.49293 14.1406 1.49293H13.5063L13.4938 1.18653C13.4844 0.92703 13.4688 0.851993 13.3906 0.695666C13.275 0.454925 13.0375 0.217308 12.7969 0.0985003C12.6219 0.0140848 12.5844 0.00783157 12.25 0.00783157C11.9156 0.00783157 11.8781 0.0140848 11.7031 0.0985003C11.4625 0.217308 11.225 0.454925 11.1094 0.695666C11.0312 0.851993 11.0156 0.92703 11.0063 1.18653L10.9938 1.49293H8H5.00625L4.99375 1.18653C4.98438 0.92703 4.96875 0.851993 4.89062 0.695666C4.775 0.454925 4.53438 0.217308 4.29688 0.101627C4.13438 0.0203371 4.07188 0.00783157 3.79688 0.00157833C3.59687 -0.00467491 3.4375 0.00783157 3.35313 0.0359697ZM2.50625 2.79982C2.51562 3.05932 2.53125 3.13435 2.60938 3.29068C2.725 3.53142 2.96563 3.76904 3.20312 3.88785C3.37812 3.97226 3.41563 3.97852 3.75 3.97852C4.08437 3.97852 4.12188 3.97226 4.29688 3.88785C4.5375 3.76904 4.775 3.53142 4.89062 3.29068C4.96875 3.13435 4.98438 3.05932 4.99375 2.79982L5.00625 2.49342H8H10.9938L11.0063 2.79982C11.0156 3.05932 11.0312 3.13435 11.1094 3.29068C11.225 3.53142 11.4656 3.76904 11.7031 3.88785C11.8781 3.97226 11.9156 3.97852 12.25 3.97852C12.5844 3.97852 12.6219 3.97226 12.7969 3.88785C13.0375 3.76904 13.275 3.53142 13.3906 3.29068C13.4688 3.13435 13.4844 3.05932 13.4938 2.79669L13.5063 2.48716L14.0594 2.49967C14.6719 2.50905 14.7594 2.53406 14.8969 2.74041C14.9906 2.88111 15.0063 3.05932 14.9938 3.88472C14.9844 4.53504 14.9781 4.6132 14.9219 4.71012C14.8406 4.84769 14.7281 4.92898 14.575 4.96337C14.4125 5.00402 1.5875 5.00402 1.425 4.96337C1.27188 4.92898 1.15938 4.84769 1.07812 4.71012C1.01875 4.61007 1.01562 4.54754 1.01562 3.74403C1.01562 2.94051 1.01875 2.87798 1.07812 2.77793C1.15625 2.64662 1.27188 2.55595 1.40938 2.52468C1.46875 2.51218 1.73438 2.49967 2.00312 2.49654L2.49375 2.49342L2.50625 2.79982ZM4.21875 7.0769C4.46563 7.22072 4.5125 7.40206 4.49688 8.14305C4.48438 8.54011 4.475 8.6214 4.41875 8.7152C4.275 8.9622 4.09375 9.00909 3.35313 8.99346C2.95625 8.98095 2.875 8.97157 2.78125 8.9153C2.53437 8.77148 2.4875 8.59014 2.50312 7.84915C2.51562 7.34578 2.54688 7.24261 2.72187 7.11442C2.85313 7.01437 2.98125 6.99874 3.5625 7.00499C4.05 7.01124 4.12188 7.0175 4.21875 7.0769ZM7.21875 7.0769C7.46563 7.22072 7.5125 7.40206 7.49688 8.14305C7.48438 8.54011 7.475 8.6214 7.41875 8.7152C7.275 8.9622 7.09375 9.00909 6.35313 8.99346C5.95625 8.98095 5.875 8.97157 5.78125 8.9153C5.53438 8.77148 5.4875 8.59014 5.50313 7.84915C5.51562 7.34578 5.54688 7.24261 5.72188 7.11442C5.85313 7.01437 5.98125 6.99874 6.5625 7.00499C7.05 7.01124 7.12188 7.0175 7.21875 7.0769ZM10.2188 7.0769C10.4656 7.22072 10.5125 7.40206 10.4969 8.14305C10.4844 8.54011 10.475 8.6214 10.4187 8.7152C10.275 8.9622 10.0938 9.00909 9.35313 8.99346C8.95625 8.98095 8.875 8.97157 8.78125 8.9153C8.53438 8.77148 8.4875 8.59014 8.50313 7.84915C8.51562 7.34578 8.54688 7.24261 8.72188 7.11442C8.85313 7.01437 8.98125 6.99874 9.5625 7.00499C10.05 7.01124 10.1219 7.0175 10.2188 7.0769ZM13.2188 7.0769C13.4656 7.22072 13.5125 7.40206 13.4969 8.14305C13.4844 8.54011 13.475 8.6214 13.4187 8.7152C13.275 8.9622 13.0938 9.00909 12.3531 8.99346C11.9563 8.98095 11.875 8.97157 11.7812 8.9153C11.5344 8.77148 11.4875 8.59014 11.5031 7.84915C11.5156 7.34578 11.5469 7.24261 11.7219 7.11442C11.8531 7.01437 11.9812 6.99874 12.5625 7.00499C13.05 7.01124 13.1219 7.0175 13.2188 7.0769ZM4.21875 9.57812C4.46563 9.72194 4.5125 9.90328 4.49688 10.6443C4.48438 11.0413 4.475 11.1226 4.41875 11.2164C4.275 11.4634 4.09375 11.5103 3.35313 11.4947C2.95625 11.4822 2.875 11.4728 2.78125 11.4165C2.53437 11.2727 2.4875 11.0914 2.50312 10.3504C2.51562 9.847 2.54688 9.74383 2.72187 9.61564C2.85313 9.51559 2.98125 9.49996 3.5625 9.50621C4.05 9.51246 4.12188 9.51872 4.21875 9.57812ZM7.21875 9.57812C7.46563 9.72194 7.5125 9.90328 7.49688 10.6443C7.48438 11.0413 7.475 11.1226 7.41875 11.2164C7.275 11.4634 7.09375 11.5103 6.35313 11.4947C5.95625 11.4822 5.875 11.4728 5.78125 11.4165C5.53438 11.2727 5.4875 11.0914 5.50313 10.3504C5.51562 9.847 5.54688 9.74383 5.72188 9.61564C5.85313 9.51559 5.98125 9.49996 6.5625 9.50621C7.05 9.51246 7.12188 9.51872 7.21875 9.57812ZM10.2188 9.57812C10.4656 9.72194 10.5125 9.90328 10.4969 10.6443C10.4844 11.0413 10.475 11.1226 10.4187 11.2164C10.275 11.4634 10.0938 11.5103 9.35313 11.4947C8.95625 11.4822 8.875 11.4728 8.78125 11.4165C8.53438 11.2727 8.4875 11.0914 8.50313 10.3504C8.51562 9.847 8.54688 9.74383 8.72188 9.61564C8.85313 9.51559 8.98125 9.49996 9.5625 9.50621C10.05 9.51246 10.1219 9.51872 10.2188 9.57812ZM13.2188 9.57812C13.4656 9.72194 13.5125 9.90328 13.4969 10.6443C13.4844 11.0413 13.475 11.1226 13.4187 11.2164C13.275 11.4634 13.0938 11.5103 12.3531 11.4947C11.9563 11.4822 11.875 11.4728 11.7812 11.4165C11.5344 11.2727 11.4875 11.0914 11.5031 10.3504C11.5156 9.847 11.5469 9.74383 11.7219 9.61564C11.8531 9.51559 11.9812 9.49996 12.5625 9.50621C13.05 9.51246 13.1219 9.51872 13.2188 9.57812ZM4.21875 12.0793C4.46563 12.2232 4.5125 12.4045 4.49688 13.1455C4.48438 13.5426 4.475 13.6238 4.41875 13.7176C4.275 13.9646 4.09375 14.0115 3.35313 13.9959C2.95625 13.9834 2.875 13.974 2.78125 13.9177C2.53437 13.7739 2.4875 13.5926 2.50312 12.8516C2.51562 12.3482 2.54688 12.245 2.72187 12.1169C2.85313 12.0168 2.98125 12.0012 3.5625 12.0074C4.05 12.0137 4.12188 12.0199 4.21875 12.0793ZM7.21875 12.0793C7.46563 12.2232 7.5125 12.4045 7.49688 13.1455C7.48438 13.5426 7.475 13.6238 7.41875 13.7176C7.275 13.9646 7.09375 14.0115 6.35313 13.9959C5.95625 13.9834 5.875 13.974 5.78125 13.9177C5.53438 13.7739 5.4875 13.5926 5.50313 12.8516C5.51562 12.3482 5.54688 12.245 5.72188 12.1169C5.85313 12.0168 5.98125 12.0012 6.5625 12.0074C7.05 12.0137 7.12188 12.0199 7.21875 12.0793Z" fill="white"/>
</svg>
