<svg width="16" height="16" viewBox="0 0 16 16" fill="none" xmlns="http://www.w3.org/2000/svg">
<path d="M7.43673 0.027897C5.8203 0.131103 4.29387 0.727032 2.9874 1.75909C2.64745 2.02542 2.01088 2.6613 1.73759 3.00421C0.964373 3.97967 0.39446 5.19484 0.154496 6.36672C-0.00547991 7.15241 -0.0454739 8.25438 0.054511 9.03009C0.404458 11.7034 2.05754 14.0172 4.45385 15.1891C5.54035 15.7185 6.52353 15.9615 7.73668 15.9948C8.43991 16.0148 8.95316 15.9782 9.52974 15.8683C12.9692 15.2158 15.6122 12.336 15.9721 8.85364C16.0288 8.29766 15.9954 7.16906 15.9054 6.66635C15.4488 4.10618 13.8758 1.9888 11.5828 0.846883C10.5996 0.35416 9.63639 0.0978105 8.50323 0.0245678C7.97664 -0.00872431 7.99331 -0.00872431 7.43673 0.027897ZM8.79985 2.13862C10.1563 2.33171 11.3795 2.96426 12.3127 3.94971C14.519 6.29348 14.4657 9.91899 12.186 12.1928C10.8429 13.5378 8.90317 14.1671 7.05345 13.8574C4.09723 13.3647 1.95756 10.7513 2.08087 7.78163C2.10087 7.2989 2.15086 6.95266 2.25418 6.54983C2.85742 4.22936 4.80046 2.48819 7.1801 2.14195C7.5967 2.07869 8.37658 2.07869 8.79985 2.13862Z" fill="white"/>
<path d="M7.43673 3.02419C6.86015 3.08744 6.30357 3.25391 5.76365 3.52024C3.52399 4.63553 2.45081 7.20901 3.2407 9.5894C3.8806 11.5237 5.62034 12.872 7.64336 13.0052C9.13314 13.105 10.4896 12.6023 11.5394 11.5636C12.8959 10.2253 13.3658 8.25105 12.7659 6.43996C12.016 4.1761 9.8097 2.76118 7.43673 3.02419ZM8.20328 4.21605C8.2666 4.24934 8.34992 4.32924 8.38658 4.38917C8.44991 4.4957 8.45324 4.57227 8.46324 6.02381L8.47324 7.54859H9.97967C11.7027 7.54859 11.6561 7.54193 11.7961 7.82159C11.8627 7.95475 11.8694 7.99137 11.8361 8.1079C11.7861 8.30099 11.6194 8.43749 11.3961 8.46412C11.2995 8.47411 10.4663 8.48077 9.54641 8.47411C7.91999 8.46412 7.87333 8.46079 7.78334 8.39421C7.73335 8.35759 7.66003 8.28435 7.62336 8.23441C7.55338 8.14452 7.55338 8.10124 7.54338 6.35673L7.53671 4.56894L7.61003 4.42246C7.73668 4.1761 7.97664 4.09287 8.20328 4.21605Z" fill="white"/>
</svg>
