<svg width="24" height="21" viewBox="0 0 24 21" fill="none" xmlns="http://www.w3.org/2000/svg">
<path d="M0.420841 10.0798L5.93856 12.1436L8.08952 19.0854C8.18304 19.5545 8.74416 19.6483 9.11824 19.3668L12.2044 16.834C12.485 16.5526 12.9526 16.5526 13.3267 16.834L18.8443 20.8678C19.2184 21.1492 19.7796 20.9616 19.8731 20.4925L23.988 0.79282C24.0815 0.323779 23.6139 -0.145258 23.1463 0.0423587L0.420841 8.86033C-0.14028 9.04795 -0.14028 9.89222 0.420841 10.0798ZM7.80897 11.1117L18.6573 4.45134C18.8443 4.35753 19.0314 4.63896 18.8443 4.73277L9.95992 13.0817C9.67936 13.3631 9.39879 13.7384 9.39879 14.2074L9.11824 16.4588C9.11824 16.7402 8.65064 16.834 8.55712 16.4588L7.43486 12.3312C7.1543 11.8622 7.34136 11.2993 7.80897 11.1117Z" fill="white"/>
</svg>
