<svg width="24" height="24" viewBox="0 0 24 24" fill="none" xmlns="http://www.w3.org/2000/svg">
<path d="M4.44937 20.8984L16.4649 3.30241H20.0847L8.06912 20.8984H4.44937ZM6.05815 12.8294C5.20348 12.8294 4.43261 12.6367 3.74553 12.2512C3.05844 11.8658 2.52219 11.3128 2.13675 10.5922C1.75131 9.85483 1.55859 8.97503 1.55859 7.95278C1.55859 6.93054 1.75131 6.05912 2.13675 5.33852C2.52219 4.61792 3.05844 4.0649 3.74553 3.67946C4.43261 3.27727 5.20348 3.07617 6.05815 3.07617C6.92957 3.07617 7.70044 3.27727 8.37077 3.67946C9.05785 4.0649 9.59411 4.61792 9.97954 5.33852C10.3817 6.05912 10.5828 6.93054 10.5828 7.95278C10.5828 8.95827 10.3817 9.82969 9.97954 10.567C9.59411 11.3044 9.05785 11.8658 8.37077 12.2512C7.70044 12.6367 6.92957 12.8294 6.05815 12.8294ZM6.08328 10.4414C6.50224 10.4414 6.84578 10.2486 7.11391 9.86321C7.3988 9.47777 7.54124 8.84096 7.54124 7.95278C7.54124 7.0646 7.3988 6.42779 7.11391 6.04236C6.84578 5.65692 6.50224 5.4642 6.08328 5.4642C5.66433 5.4642 5.30403 5.65692 5.00239 6.04236C4.7175 6.42779 4.57505 7.0646 4.57505 7.95278C4.57505 8.84096 4.7175 9.47777 5.00239 9.86321C5.30403 10.2486 5.66433 10.4414 6.08328 10.4414ZM18.4759 21.1247C17.6045 21.1247 16.8252 20.9319 16.1382 20.5465C15.4678 20.1611 14.9399 19.608 14.5545 18.8874C14.1691 18.1501 13.9764 17.2703 13.9764 16.248C13.9764 15.2258 14.1691 14.3544 14.5545 13.6338C14.9399 12.9132 15.4678 12.3602 16.1382 11.9747C16.8252 11.5725 17.6045 11.3714 18.4759 11.3714C19.3473 11.3714 20.1182 11.5725 20.7885 11.9747C21.4756 12.3602 22.0119 12.9132 22.3973 13.6338C22.7995 14.3544 23.0006 15.2258 23.0006 16.248C23.0006 17.2703 22.7995 18.1501 22.3973 18.8874C22.0119 19.608 21.4756 20.1611 20.7885 20.5465C20.1182 20.9319 19.3473 21.1247 18.4759 21.1247ZM18.4759 18.7366C18.8949 18.7366 19.2468 18.5439 19.5317 18.1585C19.8166 17.773 19.959 17.1362 19.959 16.248C19.959 15.3599 19.8166 14.7231 19.5317 14.3376C19.2468 13.9522 18.8949 13.7595 18.4759 13.7595C18.0737 13.7595 17.7218 13.9522 17.4201 14.3376C17.1353 14.7231 16.9928 15.3599 16.9928 16.248C16.9928 17.1362 17.1353 17.773 17.4201 18.1585C17.7218 18.5439 18.0737 18.7366 18.4759 18.7366Z" fill="white"/>
</svg>
