<svg width="24" height="24" viewBox="0 0 24 24" fill="none" xmlns="http://www.w3.org/2000/svg">
<path d="M20.7273 21.8185C20.7273 22.421 20.2389 22.9094 19.6364 22.9094H4.36364C3.76115 22.9094 3.27273 22.421 3.27273 21.8185V12.9128C3.27273 12.4088 2.86419 12.0003 2.36024 12.0003C1.5262 12.0003 1.12929 10.9737 1.74643 10.4126L11.2661 1.75831C11.6822 1.38004 12.3178 1.38004 12.7339 1.75831L22.2536 10.4126C22.8707 10.9737 22.4738 12.0003 21.6398 12.0003C21.1358 12.0003 20.7273 12.4088 20.7273 12.9128V21.8185ZM10.5858 17.1315C11.3668 17.9126 12.6332 17.9126 13.4142 17.1315L15.6641 14.8816C16.6226 13.923 16.6226 12.3689 15.6641 11.4104C14.7056 10.4518 13.1515 10.4518 12.1929 11.4104C12.0864 11.5169 11.9136 11.5169 11.8071 11.4104C10.8485 10.4518 9.29446 10.4518 8.3359 11.4104C7.37734 12.3689 7.37734 13.923 8.3359 14.8816L10.5858 17.1315Z" fill="white"/>
</svg>
