<svg width="16" height="19" viewBox="0 0 16 19" fill="none" xmlns="http://www.w3.org/2000/svg">
<path d="M11.5 15.6003H15M13.25 13.8225V17.3781M8 1.37805H3.8C2.81991 1.37805 2.32986 1.37805 1.95552 1.57182C1.62623 1.74226 1.35851 2.01422 1.19074 2.34874C1 2.72902 1 3.22685 1 4.2225V14.5336C1 15.5293 1 16.0271 1.19074 16.4074C1.35851 16.7419 1.62623 17.0139 1.95552 17.1843C2.32986 17.3781 2.81991 17.3781 3.8 17.3781H7.125M8 1.37805L13.25 6.71139M8 1.37805V5.28916C8 5.78699 8 6.0359 8.09537 6.22604C8.17929 6.3933 8.31307 6.52928 8.47775 6.61451C8.66491 6.71139 8.90991 6.71139 9.4 6.71139H13.25M13.25 6.71139V9.37805M4.5 13.8225H7.125M4.5 10.2669H9.75M4.5 6.71139H5.375" stroke="#0F5658" stroke-width="1.5" stroke-linecap="round" stroke-linejoin="round"/>
</svg>
