<svg width="26" height="23" viewBox="0 0 26 23" fill="none" xmlns="http://www.w3.org/2000/svg">
<path d="M21 6.25V5.2C21 3.72987 21 2.99479 20.7093 2.43328C20.4537 1.93934 20.0457 1.53777 19.544 1.28611C18.9736 1 18.2268 1 16.7333 1H5.26667C3.77319 1 3.02645 1 2.45603 1.28611C1.95425 1.53777 1.54631 1.93934 1.29065 2.43328C1 2.99479 1 3.72987 1 5.2V6.25M1 6.25V17.8C1 19.2701 1 20.0053 1.29065 20.5668C1.54631 21.0606 1.95425 21.4623 2.45603 21.7139C3.02645 22 3.77319 22 5.26667 22H20.7333C22.2268 22 22.9736 22 23.544 21.7139C24.0457 21.4623 24.4537 21.0606 24.7093 20.5668C25 20.0053 25 19.2701 25 17.8V10.45C25 8.97987 25 8.24479 24.7093 7.68328C24.4537 7.18934 24.0457 6.78777 23.544 6.53611C22.9736 6.25 22.2268 6.25 20.7333 6.25H1ZM25 11.5H22.3333C20.8605 11.5 19.6667 12.6752 19.6667 14.125C19.6667 15.5748 20.8605 16.75 22.3333 16.75H25" stroke="white" stroke-width="2" stroke-linecap="round" stroke-linejoin="round"/>
</svg>
