<svg width="26" height="21" viewBox="0 0 26 21" fill="none" xmlns="http://www.w3.org/2000/svg">
<path d="M1 6.42857H25M6.33333 14.5714H9M5.26667 20H20.7333C22.2268 20 22.9736 20 23.544 19.7041C24.0457 19.444 24.4537 19.0287 24.7093 18.518C25 17.9374 25 17.1773 25 15.6571V5.34286C25 3.82272 25 3.06264 24.7093 2.48203C24.4537 1.97129 24.0457 1.55606 23.544 1.29584C22.9736 1 22.2268 1 20.7333 1H5.26667C3.7732 1 3.02645 1 2.45603 1.29584C1.95425 1.55606 1.54631 1.97129 1.29065 2.48203C1 3.06264 1 3.82271 1 5.34286V15.6571C1 17.1773 1 17.9374 1.29065 18.518C1.54631 19.0287 1.95425 19.444 2.45603 19.7041C3.02645 20 3.77319 20 5.26667 20Z" stroke="white" stroke-width="2" stroke-linecap="round" stroke-linejoin="round"/>
</svg>
