<svg width="22" height="22" viewBox="0 0 22 22" fill="none" xmlns="http://www.w3.org/2000/svg">
<path d="M9.92578 4.47305C6.41094 4.82539 3.19258 6.70313 0.567187 9.93867C0.0386719 10.5875 0 10.6648 0 11.0129C0 11.3395 0.0644531 11.4512 0.661719 12.1773C3.52773 15.6621 7.18867 17.5742 11 17.5742C14.8586 17.5742 18.5324 15.632 21.4328 12.0613C21.9613 11.4125 22 11.3352 22 10.9871C22 10.6605 21.9355 10.5488 21.3383 9.82266C18.4465 6.30352 14.7555 4.3957 10.9184 4.43008C10.5746 4.43438 10.1277 4.45156 9.92578 4.47305ZM11.9711 6.50547C13.4879 6.83203 14.7598 7.94492 15.3184 9.42734C15.5203 9.96445 15.5719 10.2781 15.5676 11.0215C15.5676 11.6273 15.5547 11.7605 15.4559 12.1258C15.0219 13.7543 13.7543 15.0219 12.1258 15.4559C11.7605 15.5547 11.6273 15.5676 11.0215 15.5676C10.2781 15.5719 9.96445 15.5203 9.42734 15.3184C7.94492 14.7598 6.85352 13.5094 6.50117 11.9711C6.38945 11.4855 6.40234 10.4371 6.52266 9.95586C6.98242 8.12539 8.37461 6.81914 10.2438 6.4625C10.6262 6.38945 11.55 6.41094 11.9711 6.50547Z" fill="#3D7C85"/>
<path d="M10.248 8.61094C9.80547 8.75703 9.55195 8.91602 9.2168 9.25977C8.73125 9.74961 8.50781 10.2996 8.50781 11C8.50781 11.7219 8.73125 12.2633 9.23398 12.766C9.73672 13.2687 10.2781 13.4922 11 13.4922C11.7004 13.4922 12.2504 13.2687 12.7402 12.7832C13.2645 12.2676 13.4922 11.7305 13.4922 11.0043C13.4922 10.7723 13.4621 10.4801 13.4277 10.3426C13.2086 9.50039 12.4996 8.79141 11.6574 8.57227C11.2707 8.47344 10.6133 8.49062 10.248 8.61094Z" fill="#3D7C85"/>
</svg>
