<svg width="23" height="22" viewBox="0 0 23 22" fill="none" xmlns="http://www.w3.org/2000/svg">
<g clip-path="url(#clip0_1919_21566)">
<path d="M12.6899 2.56082C8.35633 3.1323 5.11719 6.74168 5.11719 10.9999C5.11719 14.9917 7.95916 18.4421 11.9662 19.31C13.0121 19.5378 14.3448 19.5679 15.3995 19.3831C19.1197 18.7471 21.9705 15.8682 22.5221 12.1987C22.6148 11.5971 22.6148 10.4026 22.5221 9.80105C22.0455 6.61707 19.8302 3.99597 16.7366 2.95183C15.5231 2.53933 13.9653 2.38894 12.6899 2.56082ZM14.2609 9.13933L14.2742 11.4081L15.7614 12.3964C16.5778 12.9378 17.2618 13.3975 17.2794 13.419C17.3103 13.4491 16.644 14.4417 16.5954 14.4331C16.5822 14.4331 15.7658 13.896 14.7817 13.2428L12.9944 12.0526L12.9812 9.4616L12.9723 6.87488H13.6122H14.2521L14.2609 9.13933Z" fill="#3D7C85"/>
<path d="M1.19141 8.42188V9.06641H2.51531H3.83921V8.42188V7.77734H2.51531H1.19141V8.42188Z" fill="#3D7C85"/>
<path d="M0 11V11.6445H1.91966H3.83932V11V10.3555H1.91966H0V11Z" fill="#3D7C85"/>
<path d="M1.19141 13.5781V14.2227H2.51531H3.83921V13.5781V12.9336H2.51531H1.19141V13.5781Z" fill="#3D7C85"/>
</g>
<defs>
<clipPath id="clip0_1919_21566">
<rect width="22.5946" height="22" fill="white"/>
</clipPath>
</defs>
</svg>
