<svg width="32" height="32" viewBox="0 0 32 32" fill="none" xmlns="http://www.w3.org/2000/svg">
<path fill-rule="evenodd" clip-rule="evenodd" d="M3.46872 7.99835C8.10094 7.94075 12.5548 6.20389 16.0031 3.11035C19.4512 6.20447 23.9051 7.94191 28.5375 7.99995C28.7135 9.03995 28.8031 10.112 28.8031 11.2016C28.8031 19.5616 23.4591 26.6736 16.0031 29.3088C8.54713 26.672 3.20312 19.56 3.20312 11.2C3.20312 10.1088 3.29432 9.03995 3.46872 7.99835ZM21.9343 13.9312C22.2258 13.6294 22.387 13.2252 22.3834 12.8057C22.3798 12.3862 22.2115 11.9849 21.9148 11.6882C21.6182 11.3916 21.2169 11.2233 20.7974 11.2197C20.3779 11.216 19.9737 11.3773 19.6719 11.6688L14.4031 16.9376L12.3343 14.8688C12.0326 14.5773 11.6284 14.416 11.2089 14.4197C10.7894 14.4233 10.3881 14.5916 10.0914 14.8882C9.79476 15.1849 9.62649 15.5862 9.62285 16.0057C9.6192 16.4252 9.78047 16.8294 10.0719 17.1312L13.2719 20.3312C13.572 20.6311 13.9789 20.7996 14.4031 20.7996C14.8274 20.7996 15.2343 20.6311 15.5343 20.3312L21.9343 13.9312Z" fill="#C3F1C2"/>
</svg>
