<svg width="20" height="20" viewBox="0 0 20 20" fill="none" xmlns="http://www.w3.org/2000/svg">
<g clip-path="url(#clip0_1919_25029)">
<path d="M4.19141 0.0546875C3.79688 0.183594 3.44531 0.496094 3.25 0.894531C3.16406 1.07422 3.14453 1.17578 3.13281 1.49219L3.11719 1.875H2.32812C1.72266 1.875 1.48828 1.89062 1.32422 1.9375C0.746094 2.10547 0.253906 2.59375 0.0742188 3.16797C0.0078125 3.37891 0 3.53906 0 4.6875C0 5.83594 0.0078125 5.99609 0.0742188 6.20703C0.15625 6.47266 0.328125 6.76172 0.507812 6.93359L0.625 7.04688V12.7578C0.625 18.2539 0.628906 18.4805 0.699219 18.707C0.878906 19.2812 1.37109 19.7695 1.94922 19.9375C2.14062 19.9922 2.96094 20 10 20C17.0391 20 17.8594 19.9922 18.0508 19.9375C18.6289 19.7695 19.1211 19.2812 19.3008 18.707C19.3711 18.4805 19.375 18.2539 19.375 12.7578V7.04688L19.4922 6.93359C19.6719 6.76172 19.8438 6.47266 19.9258 6.20703C19.9922 5.99609 20 5.83594 20 4.69141C20 3.64062 19.9883 3.375 19.9375 3.19922C19.7695 2.62109 19.2812 2.12891 18.707 1.94922C18.5078 1.88672 18.3438 1.875 17.6758 1.875H16.8828L16.8672 1.49219C16.8555 1.16797 16.8359 1.07422 16.7383 0.878906C16.5938 0.578125 16.2969 0.28125 15.9961 0.132812C15.7773 0.0273438 15.7305 0.0195312 15.3125 0.0195312C14.8945 0.0195312 14.8477 0.0273438 14.6289 0.132812C14.3281 0.28125 14.0312 0.578125 13.8867 0.878906C13.7891 1.07422 13.7695 1.16797 13.7578 1.49219L13.7422 1.875H10H6.25781L6.24219 1.49219C6.23047 1.16797 6.21094 1.07422 6.11328 0.878906C5.96875 0.578125 5.66797 0.28125 5.37109 0.136719C5.16797 0.0351562 5.08984 0.0195312 4.74609 0.0117188C4.49609 0.00390625 4.29688 0.0195312 4.19141 0.0546875ZM3.13281 3.50781C3.14453 3.83203 3.16406 3.92578 3.26172 4.12109C3.40625 4.42188 3.70703 4.71875 4.00391 4.86719C4.22266 4.97266 4.26953 4.98047 4.6875 4.98047C5.10547 4.98047 5.15234 4.97266 5.37109 4.86719C5.67188 4.71875 5.96875 4.42188 6.11328 4.12109C6.21094 3.92578 6.23047 3.83203 6.24219 3.50781L6.25781 3.125H10H13.7422L13.7578 3.50781C13.7695 3.83203 13.7891 3.92578 13.8867 4.12109C14.0312 4.42188 14.332 4.71875 14.6289 4.86719C14.8477 4.97266 14.8945 4.98047 15.3125 4.98047C15.7305 4.98047 15.7773 4.97266 15.9961 4.86719C16.2969 4.71875 16.5938 4.42188 16.7383 4.12109C16.8359 3.92578 16.8555 3.83203 16.8672 3.50391L16.8828 3.11719L17.5742 3.13281C18.3398 3.14453 18.4492 3.17578 18.6211 3.43359C18.7383 3.60938 18.7578 3.83203 18.7422 4.86328C18.7305 5.67578 18.7227 5.77344 18.6523 5.89453C18.5508 6.06641 18.4102 6.16797 18.2188 6.21094C18.0156 6.26172 1.98438 6.26172 1.78125 6.21094C1.58984 6.16797 1.44922 6.06641 1.34766 5.89453C1.27344 5.76953 1.26953 5.69141 1.26953 4.6875C1.26953 3.68359 1.27344 3.60547 1.34766 3.48047C1.44531 3.31641 1.58984 3.20312 1.76172 3.16406C1.83594 3.14844 2.16797 3.13281 2.50391 3.12891L3.11719 3.125L3.13281 3.50781ZM5.27344 8.85156C5.58203 9.03125 5.64062 9.25781 5.62109 10.1836C5.60547 10.6797 5.59375 10.7812 5.52344 10.8984C5.34375 11.207 5.11719 11.2656 4.19141 11.2461C3.69531 11.2305 3.59375 11.2188 3.47656 11.1484C3.16797 10.9688 3.10938 10.7422 3.12891 9.81641C3.14453 9.1875 3.18359 9.05859 3.40234 8.89844C3.56641 8.77344 3.72656 8.75391 4.45312 8.76172C5.0625 8.76953 5.15234 8.77734 5.27344 8.85156ZM9.02344 8.85156C9.33203 9.03125 9.39062 9.25781 9.37109 10.1836C9.35547 10.6797 9.34375 10.7812 9.27344 10.8984C9.09375 11.207 8.86719 11.2656 7.94141 11.2461C7.44531 11.2305 7.34375 11.2188 7.22656 11.1484C6.91797 10.9688 6.85938 10.7422 6.87891 9.81641C6.89453 9.1875 6.93359 9.05859 7.15234 8.89844C7.31641 8.77344 7.47656 8.75391 8.20312 8.76172C8.8125 8.76953 8.90234 8.77734 9.02344 8.85156ZM12.7734 8.85156C13.082 9.03125 13.1406 9.25781 13.1211 10.1836C13.1055 10.6797 13.0938 10.7812 13.0234 10.8984C12.8438 11.207 12.6172 11.2656 11.6914 11.2461C11.1953 11.2305 11.0938 11.2188 10.9766 11.1484C10.668 10.9688 10.6094 10.7422 10.6289 9.81641C10.6445 9.1875 10.6836 9.05859 10.9023 8.89844C11.0664 8.77344 11.2266 8.75391 11.9531 8.76172C12.5625 8.76953 12.6523 8.77734 12.7734 8.85156ZM16.5234 8.85156C16.832 9.03125 16.8906 9.25781 16.8711 10.1836C16.8555 10.6797 16.8438 10.7812 16.7734 10.8984C16.5938 11.207 16.3672 11.2656 15.4414 11.2461C14.9453 11.2305 14.8438 11.2188 14.7266 11.1484C14.418 10.9688 14.3594 10.7422 14.3789 9.81641C14.3945 9.1875 14.4336 9.05859 14.6523 8.89844C14.8164 8.77344 14.9766 8.75391 15.7031 8.76172C16.3125 8.76953 16.4023 8.77734 16.5234 8.85156ZM5.27344 11.9766C5.58203 12.1562 5.64062 12.3828 5.62109 13.3086C5.60547 13.8047 5.59375 13.9062 5.52344 14.0234C5.34375 14.332 5.11719 14.3906 4.19141 14.3711C3.69531 14.3555 3.59375 14.3438 3.47656 14.2734C3.16797 14.0938 3.10938 13.8672 3.12891 12.9414C3.14453 12.3125 3.18359 12.1836 3.40234 12.0234C3.56641 11.8984 3.72656 11.8789 4.45312 11.8867C5.0625 11.8945 5.15234 11.9023 5.27344 11.9766ZM9.02344 11.9766C9.33203 12.1562 9.39062 12.3828 9.37109 13.3086C9.35547 13.8047 9.34375 13.9062 9.27344 14.0234C9.09375 14.332 8.86719 14.3906 7.94141 14.3711C7.44531 14.3555 7.34375 14.3438 7.22656 14.2734C6.91797 14.0938 6.85938 13.8672 6.87891 12.9414C6.89453 12.3125 6.93359 12.1836 7.15234 12.0234C7.31641 11.8984 7.47656 11.8789 8.20312 11.8867C8.8125 11.8945 8.90234 11.9023 9.02344 11.9766ZM12.7734 11.9766C13.082 12.1562 13.1406 12.3828 13.1211 13.3086C13.1055 13.8047 13.0938 13.9062 13.0234 14.0234C12.8438 14.332 12.6172 14.3906 11.6914 14.3711C11.1953 14.3555 11.0938 14.3438 10.9766 14.2734C10.668 14.0938 10.6094 13.8672 10.6289 12.9414C10.6445 12.3125 10.6836 12.1836 10.9023 12.0234C11.0664 11.8984 11.2266 11.8789 11.9531 11.8867C12.5625 11.8945 12.6523 11.9023 12.7734 11.9766ZM16.5234 11.9766C16.832 12.1562 16.8906 12.3828 16.8711 13.3086C16.8555 13.8047 16.8438 13.9062 16.7734 14.0234C16.5938 14.332 16.3672 14.3906 15.4414 14.3711C14.9453 14.3555 14.8438 14.3438 14.7266 14.2734C14.418 14.0938 14.3594 13.8672 14.3789 12.9414C14.3945 12.3125 14.4336 12.1836 14.6523 12.0234C14.8164 11.8984 14.9766 11.8789 15.7031 11.8867C16.3125 11.8945 16.4023 11.9023 16.5234 11.9766ZM5.27344 15.1016C5.58203 15.2812 5.64062 15.5078 5.62109 16.4336C5.60547 16.9297 5.59375 17.0312 5.52344 17.1484C5.34375 17.457 5.11719 17.5156 4.19141 17.4961C3.69531 17.4805 3.59375 17.4688 3.47656 17.3984C3.16797 17.2188 3.10938 16.9922 3.12891 16.0664C3.14453 15.4375 3.18359 15.3086 3.40234 15.1484C3.56641 15.0234 3.72656 15.0039 4.45312 15.0117C5.0625 15.0195 5.15234 15.0273 5.27344 15.1016ZM9.02344 15.1016C9.33203 15.2812 9.39062 15.5078 9.37109 16.4336C9.35547 16.9297 9.34375 17.0312 9.27344 17.1484C9.09375 17.457 8.86719 17.5156 7.94141 17.4961C7.44531 17.4805 7.34375 17.4688 7.22656 17.3984C6.91797 17.2188 6.85938 16.9922 6.87891 16.0664C6.89453 15.4375 6.93359 15.3086 7.15234 15.1484C7.31641 15.0234 7.47656 15.0039 8.20312 15.0117C8.8125 15.0195 8.90234 15.0273 9.02344 15.1016Z" fill="#3D7C85"/>
</g>
<defs>
<clipPath id="clip0_1919_25029">
<rect width="20" height="20" fill="white"/>
</clipPath>
</defs>
</svg>
