<svg width="24" height="24" viewBox="0 0 24 24" fill="none" xmlns="http://www.w3.org/2000/svg">
<path d="M17.2242 3.26986C15.6725 3.68806 11.5449 4.79808 8.04843 5.73256L1.6916 7.43115L4.73812 7.44663L7.77947 7.45696L12.9932 6.06298C15.8587 5.29888 18.2535 4.669 18.3259 4.669C18.4707 4.669 18.6363 4.83938 18.7138 5.06655C18.8069 5.34534 19.0294 5.588 19.319 5.73256C19.5518 5.84098 19.6604 5.86163 19.9759 5.85647C20.1828 5.8513 20.3949 5.84614 20.4414 5.8513C20.5811 5.86163 20.6793 6.05782 20.8242 6.58443C20.8966 6.8529 20.9742 7.15751 21.0052 7.26077L21.0569 7.45696H21.8845C22.65 7.45696 22.7121 7.4518 22.6862 7.36403C22.6759 7.31756 22.4276 6.39857 22.1431 5.32985C21.8535 4.26114 21.5948 3.32149 21.569 3.24405C21.4707 2.99623 21.3052 2.81037 21.0362 2.65548C20.5604 2.38185 20.4414 2.4025 17.2242 3.26986Z" fill="#3D7C85"/>
<path d="M14.4829 6.45536C12.5329 6.97681 10.9191 7.41566 10.8881 7.42598C10.8622 7.44147 12.957 7.4518 15.5484 7.4518L20.2656 7.45696L20.0483 6.64122L19.7069 6.62057C19.1173 6.5896 18.5742 6.24368 18.1035 5.60865C18.0259 5.50539 17.9845 5.51572 14.4829 6.45536Z" fill="#3D7C85"/>
<path d="M0.698504 8.38111C0.584712 8.43274 0.419197 8.55665 0.326094 8.64959C-0.020454 9.01615 0.0002354 8.61861 0.0002354 14.9018C0.0002354 20.3384 0.00540777 20.6068 0.0985103 20.803C0.217475 21.056 0.481265 21.3141 0.734711 21.4174C0.905399 21.4897 2.11573 21.5 12.0001 21.5C21.8845 21.5 23.0948 21.4897 23.2655 21.4174C23.519 21.3141 23.7828 21.056 23.9017 20.803C23.9948 20.6068 24 20.3384 24 14.8915C24 9.44467 23.9948 9.1762 23.9017 8.98001C23.7828 8.72703 23.519 8.46888 23.2655 8.36563C23.0948 8.29335 21.8845 8.28302 11.9898 8.28302C1.30367 8.28302 0.900227 8.28818 0.698504 8.38111ZM20.4 10.0074C20.5811 10.0797 20.6897 10.2862 20.6897 10.5495C20.6949 11.009 21.2845 11.5873 21.75 11.5873C21.9983 11.5873 22.2259 11.7215 22.2879 11.897C22.3811 12.1655 22.3655 17.6795 22.2724 17.9066C22.2 18.0822 21.9931 18.1958 21.7397 18.1958C21.2845 18.1958 20.6949 18.7792 20.6897 19.2335C20.6897 19.4968 20.5811 19.7033 20.4 19.7756C20.1414 19.884 3.85882 19.884 3.6002 19.7756C3.41917 19.7033 3.31055 19.4968 3.31055 19.2335C3.30538 18.7792 2.71573 18.1958 2.26056 18.1958C2.00711 18.1958 1.80022 18.0822 1.7278 17.9066C1.6347 17.6795 1.61918 12.1655 1.71229 11.897C1.77953 11.7163 2.00194 11.5873 2.26056 11.5873C2.72607 11.5821 3.31055 10.9987 3.31055 10.5392C3.31055 10.2965 3.42434 10.0797 3.58986 10.0074C3.83296 9.90417 20.1466 9.899 20.4 10.0074Z" fill="#3D7C85"/>
<path d="M4.03468 10.8541C4.03468 11.0452 3.71916 11.5821 3.46572 11.8144C3.2071 12.0519 2.75193 12.3101 2.57607 12.3101C2.48814 12.3101 2.48297 12.4701 2.48297 14.8915C2.48297 17.3129 2.48814 17.473 2.57607 17.473C2.75193 17.473 3.2071 17.7311 3.46572 17.9686C3.71916 18.2009 4.03468 18.7379 4.03468 18.9289C4.03468 19.0167 4.29847 19.0218 12.0001 19.0218C19.7018 19.0218 19.9656 19.0167 19.9656 18.9289C19.9656 18.7379 20.2811 18.2009 20.5397 17.9634C20.7621 17.7569 21.088 17.571 21.4293 17.4575C21.5121 17.4265 21.5173 17.2561 21.5173 14.8657C21.5173 12.465 21.5121 12.3101 21.4293 12.3101C21.2483 12.3101 20.7931 12.0519 20.5345 11.8144C20.2811 11.5821 19.9656 11.0452 19.9656 10.8541C19.9656 10.7664 19.7018 10.7612 12.0001 10.7612C4.29847 10.7612 4.03468 10.7664 4.03468 10.8541ZM12.8018 11.7215C13.9087 11.9796 14.8915 12.9606 15.1811 14.0913C15.2846 14.494 15.2846 15.2942 15.1811 15.6866C14.6794 17.5865 12.6363 18.6398 10.8208 17.9376C9.86393 17.571 9.0829 16.6882 8.81911 15.6918C8.72084 15.2994 8.72084 14.4836 8.81911 14.0913C9.0829 13.0948 9.86393 12.212 10.8208 11.8454C11.4725 11.5924 12.0932 11.5563 12.8018 11.7215Z" fill="#3D7C85"/>
<path d="M11.2139 12.5114C10.4639 12.7541 9.82255 13.4098 9.60014 14.1635C9.49152 14.5301 9.49152 15.2529 9.60014 15.6195C9.82255 16.3836 10.4691 17.0341 11.2294 17.2716C11.8967 17.4781 12.7811 17.3697 13.3398 17.0135C14.0742 16.5385 14.4932 15.7744 14.4932 14.8915C14.4932 14.0087 14.0742 13.2446 13.3398 12.7696C12.7811 12.4133 11.8708 12.3049 11.2139 12.5114Z" fill="#3D7C85"/>
</svg>
