<svg width="20" height="20" viewBox="0 0 20 20" fill="none" xmlns="http://www.w3.org/2000/svg">
<path d="M7.88672 1.71094C7.29688 1.86719 6.84375 2.33594 6.70312 2.92969C6.66406 3.08594 6.64062 3.37109 6.64062 3.66016V4.14062H4.36719C1.82812 4.14062 1.76562 4.14844 1.25 4.39844C0.863281 4.58984 0.417969 5.02734 0.238281 5.39062C0.015625 5.85156 0 5.96094 0 7.23438V8.39062L4.93359 10.0352C7.67188 10.9492 9.92578 11.6797 10 11.6797C10.0742 11.6797 12.3281 10.9492 15.0664 10.0352L20 8.39062V7.23438C20 5.96094 19.9844 5.85156 19.7617 5.39062C19.582 5.02734 19.1367 4.58984 18.75 4.39844C18.2344 4.14844 18.1719 4.14062 15.6367 4.14062H13.3594V3.66797C13.3594 3.07422 13.2852 2.73438 13.0898 2.43359C12.8398 2.04688 12.5 1.80469 12.0703 1.70312C11.8594 1.65234 11.4961 1.64062 9.98047 1.64453C8.37891 1.64453 8.11328 1.65234 7.88672 1.71094ZM11.6406 3.75V4.14062H10H8.35938V3.75V3.35938H10H11.6406V3.75Z" fill="#3D7C85"/>
<path d="M0 13.0391C0 15.875 0.0117188 16.4609 0.0585938 16.6406C0.273438 17.457 0.984375 18.125 1.81641 18.3008C2.22656 18.3867 17.7734 18.3867 18.1836 18.3008C19.0156 18.125 19.7266 17.457 19.9414 16.6406C19.9883 16.4609 20 15.875 20 13.0391V9.65625L15.1484 11.2734L10.293 12.8945L9.94141 12.875C9.60547 12.8594 9.40234 12.7969 4.79688 11.2578L0 9.65625V13.0391Z" fill="#3D7C85"/>
</svg>
