<svg width="20" height="20" viewBox="0 0 20 20" fill="none" xmlns="http://www.w3.org/2000/svg">
<g clip-path="url(#clip0_1919_25020)">
<path d="M9.33342 0.628908C7.43889 0.750002 5.64983 1.44922 4.11858 2.66016C3.72014 2.97266 2.97405 3.71875 2.65373 4.1211C1.74748 5.26563 1.07951 6.69141 0.798265 8.06641C0.610765 8.98828 0.56389 10.2813 0.681077 11.1914C1.09123 14.3281 3.02873 17.043 5.83733 18.418C7.11076 19.0391 8.26311 19.3242 9.68498 19.3633C10.5092 19.3867 11.1108 19.3438 11.7865 19.2148C15.8178 18.4492 18.9155 15.0703 19.3373 10.9844C19.4037 10.332 19.3647 9.00782 19.2592 8.41797C18.724 5.41407 16.8803 2.92969 14.1928 1.58985C13.0405 1.01172 11.9115 0.710939 10.5834 0.625002C9.96623 0.585939 9.98576 0.585939 9.33342 0.628908ZM10.9311 3.10547C12.5209 3.33203 13.9545 4.07422 15.0483 5.23047C17.6342 7.98047 17.5717 12.2344 14.8998 14.9023C13.3256 16.4805 11.0522 17.2188 8.8842 16.8555C5.41936 16.2773 2.91155 13.2109 3.05608 9.72657C3.07951 9.16016 3.13811 8.75391 3.2592 8.28125C3.96623 5.5586 6.24358 3.51563 9.03264 3.10938C9.52092 3.03516 10.435 3.03516 10.9311 3.10547Z" fill="#3D7C85"/>
<path d="M9.33 4.14457C8.65422 4.21879 8.00188 4.4141 7.36906 4.7266C4.74406 6.03519 3.48625 9.05472 4.41203 11.8477C5.16203 14.1172 7.2011 15.6993 9.57219 15.8555C11.3183 15.9727 12.9081 15.3828 14.1386 14.1641C15.7284 12.5938 16.2792 10.2774 15.5761 8.15238C14.6972 5.49613 12.1113 3.83597 9.33 4.14457ZM10.2284 5.543C10.3027 5.58207 10.4003 5.67582 10.4433 5.74613C10.5175 5.87113 10.5214 5.96097 10.5331 7.6641L10.5448 9.45316H12.3105C14.33 9.45316 14.2753 9.44535 14.4394 9.77347C14.5175 9.92972 14.5253 9.97269 14.4863 10.1094C14.4277 10.336 14.2323 10.4961 13.9706 10.5274C13.8573 10.5391 12.8808 10.5469 11.8027 10.5391C9.89641 10.5274 9.84172 10.5235 9.73625 10.4453C9.67766 10.4024 9.59172 10.3164 9.54875 10.2578C9.46672 10.1524 9.46672 10.1016 9.455 8.05472L9.44719 5.95707L9.53313 5.78519C9.68156 5.49613 9.96281 5.39847 10.2284 5.543Z" fill="#3D7C85"/>
</g>
<defs>
<clipPath id="clip0_1919_25020">
<rect width="20" height="20" fill="white"/>
</clipPath>
</defs>
</svg>
