<svg width="20" height="20" viewBox="0 0 20 20" fill="none" xmlns="http://www.w3.org/2000/svg">
<path d="M10 10C11.2124 10 12.3752 9.52589 13.2325 8.68198C14.0898 7.83807 14.5714 6.69347 14.5714 5.5C14.5714 4.30653 14.0898 3.16193 13.2325 2.31802C12.3752 1.47411 11.2124 1 10 1C8.78758 1 7.62482 1.47411 6.76751 2.31802C5.9102 3.16193 5.42857 4.30653 5.42857 5.5C5.42857 6.69347 5.9102 7.83807 6.76751 8.68198C7.62482 9.52589 8.78758 10 10 10ZM6.57143 11.9406C3.92857 12.7035 2 15.1082 2 17.9559C2 18.5324 2.475 19 3.06071 19H16.9393C17.525 19 18 18.5324 18 17.9559C18 15.1082 16.0714 12.7035 13.4286 11.9406V13.7266C14.4143 13.9762 15.1429 14.8586 15.1429 15.9062V17.3125C15.1429 17.6219 14.8857 17.875 14.5714 17.875H14C13.6857 17.875 13.4286 17.6219 13.4286 17.3125C13.4286 17.0031 13.6857 16.75 14 16.75V15.9062C14 15.284 13.4893 14.7812 12.8571 14.7812C12.225 14.7812 11.7143 15.284 11.7143 15.9062V16.75C12.0286 16.75 12.2857 17.0031 12.2857 17.3125C12.2857 17.6219 12.0286 17.875 11.7143 17.875H11.1429C10.8286 17.875 10.5714 17.6219 10.5714 17.3125V15.9062C10.5714 14.8586 11.3 13.9762 12.2857 13.7266V11.7191C12.0714 11.698 11.8536 11.6875 11.6321 11.6875H8.36786C8.14643 11.6875 7.92857 11.698 7.71429 11.7191V14.0184C8.53929 14.2609 9.14286 15.0133 9.14286 15.9062C9.14286 16.9926 8.24643 17.875 7.14286 17.875C6.03929 17.875 5.14286 16.9926 5.14286 15.9062C5.14286 15.0133 5.74643 14.2609 6.57143 14.0184V11.9406ZM7.14286 16.75C7.37019 16.75 7.5882 16.6611 7.74895 16.5029C7.90969 16.3446 8 16.13 8 15.9062C8 15.6825 7.90969 15.4679 7.74895 15.3096C7.5882 15.1514 7.37019 15.0625 7.14286 15.0625C6.91553 15.0625 6.69751 15.1514 6.53677 15.3096C6.37602 15.4679 6.28571 15.6825 6.28571 15.9062C6.28571 16.13 6.37602 16.3446 6.53677 16.5029C6.69751 16.6611 6.91553 16.75 7.14286 16.75Z" fill="#10996E"/>
</svg>
