<svg width="20" height="20" viewBox="0 0 20 20" fill="none" xmlns="http://www.w3.org/2000/svg">
<path d="M8.85603 1C8.24982 1 7.66844 1.23705 7.23978 1.65901C6.81113 2.08097 6.57031 2.65326 6.57031 3.25V12.25C6.57031 12.8467 6.81113 13.419 7.23978 13.841C7.66844 14.2629 8.24982 14.5 8.85603 14.5H15.7132C16.3194 14.5 16.9008 14.2629 17.3294 13.841C17.7581 13.419 17.9989 12.8467 17.9989 12.25V5.96575C17.9988 5.36906 17.7579 4.79686 17.3292 4.375L14.5703 1.65925C14.1418 1.23726 13.5605 1.00013 12.9543 1H8.85603Z" fill="#10996E"/>
<path d="M2 7.75C2 7.15326 2.24082 6.58097 2.66947 6.15901C3.09812 5.73705 3.67951 5.5 4.28571 5.5V16.75H13.4286C13.4286 17.3467 13.1878 17.919 12.7591 18.341C12.3304 18.7629 11.7491 19 11.1429 19H4.28571C3.67951 19 3.09812 18.7629 2.66947 18.341C2.24082 17.919 2 17.3467 2 16.75V7.75Z" fill="#10996E"/>
</svg>
