<svg width="53" height="41" viewBox="0 0 53 41" fill="none" xmlns="http://www.w3.org/2000/svg">
<path d="M12.3205 0.5C5.51605 0.5 0 6.14954 0 13.1192C0 20.0864 5.51605 25.7359 12.3205 25.7359C12.3205 25.7359 12.2609 30.4233 8.54184 37.1697C8.12873 38.5215 8.86514 39.961 10.1862 40.3816C11.1235 40.6835 12.1098 40.39 12.7467 39.707C21.2983 30.1299 24.6457 18.8583 24.6457 13.1192C24.6457 6.14954 19.1298 0.5 12.3205 0.5Z" fill="#206175" fill-opacity="0.2"/>
<path d="M40.4747 0.5C33.6702 0.5 28.1542 6.14964 28.1542 13.1192C28.1542 20.0864 33.6702 25.7359 40.4747 25.7359C40.4747 25.7359 40.4151 30.4233 36.696 37.1697C36.2829 38.5215 37.0194 39.961 38.3403 40.3816C39.2776 40.6835 40.2639 40.39 40.9007 39.707C49.4525 30.1299 52.8 18.8583 52.8 13.1192C52.8 6.14954 47.2839 0.5 40.4747 0.5Z" fill="#206175" fill-opacity="0.2"/>
</svg>
