<svg width="129" height="20" viewBox="0 0 129 20" fill="none" xmlns="http://www.w3.org/2000/svg">
<g clip-path="url(#clip0_4113_2329)">
<path d="M7.48062 6.48076H2.59509V14.9643H0.3125V4.30859H9.76323V14.9643H7.48062V6.48076Z" fill="white"/>
<path d="M11.9844 4.3084H14.267V5.47643C14.7342 5.02561 15.2347 4.67726 15.7687 4.43135C16.3026 4.18545 16.9033 4.0625 17.5707 4.0625C18.3182 4.0625 19.0057 4.20594 19.6331 4.49282C20.2738 4.76605 20.8211 5.15539 21.2749 5.66086C21.7288 6.15266 22.0825 6.74012 22.3362 7.42312C22.5898 8.09256 22.7166 8.82344 22.7166 9.61575C22.7166 10.4354 22.5764 11.1868 22.2961 11.8699C22.0291 12.5393 21.662 13.1199 21.1948 13.6117C20.7277 14.0898 20.167 14.4655 19.513 14.7388C18.8722 15.0119 18.1848 15.1486 17.4506 15.1486C16.7965 15.1486 16.2092 15.0461 15.6886 14.8412C15.168 14.6362 14.6941 14.3494 14.267 13.9806V19.0625H11.9844V4.3084ZM17.1102 12.9764C17.5641 12.9764 17.9845 12.9013 18.3716 12.751C18.7721 12.6007 19.1192 12.3822 19.4128 12.0953C19.7065 11.7948 19.9334 11.4396 20.0936 11.0297C20.2671 10.6062 20.3539 10.1281 20.3539 9.59531C20.3539 9.1035 20.2805 8.65269 20.1336 8.24281C19.9868 7.81931 19.7732 7.46412 19.4929 7.17725C19.2259 6.87669 18.9056 6.64444 18.5318 6.48056C18.1581 6.31663 17.7443 6.23463 17.2904 6.23463C16.5963 6.23463 15.9822 6.40538 15.4483 6.74694C14.9277 7.08844 14.534 7.49831 14.267 7.97644V11.2141C14.534 11.7879 14.9144 12.2251 15.4083 12.5256C15.9021 12.8262 16.4695 12.9764 17.1102 12.9764Z" fill="white"/>
<path d="M23.9062 9.61575C23.9062 8.80975 24.0397 8.07206 24.3067 7.40269C24.5737 6.71963 24.9541 6.13217 25.448 5.64037C25.9419 5.14856 26.5293 4.76605 27.2101 4.49282C27.8908 4.20594 28.645 4.0625 29.4726 4.0625C30.2869 4.0625 31.0344 4.20594 31.7152 4.49282C32.4093 4.76605 33.0033 5.14856 33.4972 5.64037C33.9911 6.13217 34.3715 6.71963 34.6385 7.40269C34.9188 8.07206 35.059 8.80975 35.059 9.61575C35.059 10.4218 34.9188 11.1663 34.6385 11.8494C34.3715 12.5188 33.9911 13.0994 33.4972 13.5912C33.0033 14.083 32.4093 14.4655 31.7152 14.7388C31.0344 15.0119 30.2869 15.1486 29.4726 15.1486C28.6583 15.1486 27.9108 15.0119 27.23 14.7388C26.5493 14.4655 25.9619 14.083 25.468 13.5912C24.9741 13.0994 24.587 12.5188 24.3067 11.8494C24.0397 11.1663 23.9062 10.4218 23.9062 9.61575ZM26.2689 9.61575C26.2689 10.0939 26.3424 10.5379 26.4892 10.9477C26.6494 11.3576 26.8696 11.7127 27.15 12.0133C27.4303 12.3139 27.764 12.5529 28.1511 12.7306C28.5516 12.8944 28.9921 12.9764 29.4726 12.9764C29.9532 12.9764 30.387 12.9013 30.7741 12.751C31.1745 12.5871 31.5149 12.3617 31.7953 12.0748C32.0756 11.7743 32.2958 11.4191 32.456 11.0092C32.6162 10.5994 32.6963 10.1349 32.6963 9.61575C32.6963 9.09662 32.6095 8.63219 32.436 8.22231C32.2758 7.79881 32.0489 7.44362 31.7552 7.15675C31.4615 6.85619 31.1211 6.63081 30.734 6.48056C30.3469 6.31663 29.9265 6.23463 29.4726 6.23463C29.0188 6.23463 28.5916 6.31663 28.1911 6.48056C27.804 6.63081 27.4637 6.85619 27.17 7.15675C26.8897 7.44362 26.6694 7.79881 26.5092 8.22231C26.349 8.63219 26.2689 9.09662 26.2689 9.61575Z" fill="white"/>
<path d="M35.6641 12.7922H36.8695C37.3382 12.1774 37.653 11.4739 37.8137 10.6816C37.9745 9.88919 38.0548 8.99438 38.0548 7.99713V4.30859H46.4525V12.7922H47.9191V17.4029H45.7895V14.9643H37.7936V17.4029H35.6641V12.7922ZM44.1622 12.7922V6.48076H40.2245V9.20613C40.2245 9.86188 40.1375 10.5176 39.9633 11.1733C39.7893 11.8154 39.5482 12.3551 39.2401 12.7922H44.1622Z" fill="white"/>
<path d="M48.3828 9.61575C48.3828 8.80975 48.5167 8.07206 48.7846 7.40269C49.0524 6.71963 49.4342 6.13217 49.9297 5.64037C50.4253 5.14856 51.0146 4.76605 51.6976 4.49282C52.3807 4.20594 53.1375 4.0625 53.9679 4.0625C54.7848 4.0625 55.5349 4.20594 56.2179 4.49282C56.9144 4.76605 57.5104 5.14856 58.006 5.64037C58.5015 6.13217 58.8833 6.71963 59.1511 7.40269C59.4324 8.07206 59.573 8.80975 59.573 9.61575C59.573 10.4218 59.4324 11.1663 59.1511 11.8494C58.8833 12.5188 58.5015 13.0994 58.006 13.5912C57.5104 14.083 56.9144 14.4655 56.2179 14.7388C55.5349 15.0119 54.7848 15.1486 53.9679 15.1486C53.1509 15.1486 52.4008 15.0119 51.7178 14.7388C51.0347 14.4655 50.4454 14.083 49.9498 13.5912C49.4542 13.0994 49.0658 12.5188 48.7846 11.8494C48.5167 11.1663 48.3828 10.4218 48.3828 9.61575ZM50.7534 9.61575C50.7534 10.0939 50.8271 10.5379 50.9744 10.9477C51.1351 11.3576 51.3561 11.7127 51.6374 12.0133C51.9187 12.3139 52.2535 12.5529 52.6419 12.7306C53.0437 12.8944 53.4857 12.9764 53.9679 12.9764C54.45 12.9764 54.8853 12.9013 55.2737 12.751C55.6755 12.5871 56.017 12.3617 56.2983 12.0748C56.5796 11.7743 56.8006 11.4191 56.9613 11.0092C57.122 10.5994 57.2024 10.1349 57.2024 9.61575C57.2024 9.09662 57.1153 8.63219 56.9412 8.22231C56.7805 7.79881 56.5528 7.44362 56.2581 7.15675C55.9635 6.85619 55.6219 6.63081 55.2336 6.48056C54.8451 6.31663 54.4233 6.23463 53.9679 6.23463C53.5125 6.23463 53.0839 6.31663 52.6821 6.48056C52.2937 6.63081 51.9521 6.85619 51.6575 7.15675C51.3762 7.44362 51.1552 7.79881 50.9945 8.22231C50.8338 8.63219 50.7534 9.09662 50.7534 9.61575Z" fill="white"/>
<path d="M60.9922 4.30859H63.2824V8.63238L67.8026 4.30859H70.796L65.7132 9.12419L70.977 14.9643H68.044L64.0461 10.5791L63.2824 11.3373V14.9643H60.9922V4.30859Z" fill="white"/>
<path d="M71.7031 4.30859H81.5475V6.48076H77.7703V14.9643H75.4803V6.48076H71.7031V4.30859Z" fill="white"/>
<path d="M82.0469 9.61575C82.0469 8.80975 82.181 8.07206 82.4492 7.40269C82.7167 6.71963 83.0983 6.13217 83.5939 5.64037C84.0894 5.14856 84.6788 4.76605 85.3621 4.49282C86.0447 4.20594 86.8018 4.0625 87.6319 4.0625C88.4493 4.0625 89.199 4.20594 89.8823 4.49282C90.579 4.76605 91.1745 5.14856 91.67 5.64037C92.1656 6.13217 92.5478 6.71963 92.8153 7.40269C93.0969 8.07206 93.2371 8.80975 93.2371 9.61575C93.2371 10.4218 93.0969 11.1663 92.8153 11.8494C92.5478 12.5188 92.1656 13.0994 91.67 13.5912C91.1745 14.083 90.579 14.4655 89.8823 14.7388C89.199 15.0119 88.4493 15.1486 87.6319 15.1486C86.8152 15.1486 86.0649 15.0119 85.3822 14.7388C84.6989 14.4655 84.1095 14.083 83.614 13.5912C83.1184 13.0994 82.7302 12.5188 82.4492 11.8494C82.181 11.1663 82.0469 10.4218 82.0469 9.61575ZM84.4179 9.61575C84.4179 10.0939 84.4917 10.5379 84.6386 10.9477C84.7995 11.3576 85.0201 11.7127 85.3017 12.0133C85.5827 12.3139 85.918 12.5529 86.3062 12.7306C86.7079 12.8944 87.1498 12.9764 87.6319 12.9764C88.1141 12.9764 88.5499 12.9013 88.9382 12.751C89.3398 12.5871 89.6812 12.3617 89.9628 12.0748C90.2438 11.7743 90.465 11.4191 90.6253 11.0092C90.7862 10.5994 90.8667 10.1349 90.8667 9.61575C90.8667 9.09662 90.7795 8.63219 90.6052 8.22231C90.4449 7.79881 90.2169 7.44362 89.9225 7.15675C89.6275 6.85619 89.2862 6.63081 88.8979 6.48056C88.5097 6.31663 88.0873 6.23463 87.6319 6.23463C87.1766 6.23463 86.7481 6.31663 86.3465 6.48056C85.9582 6.63081 85.6162 6.85619 85.3218 7.15675C85.0402 7.44362 84.8196 7.79881 84.6587 8.22231C84.4984 8.63219 84.4179 9.09662 84.4179 9.61575Z" fill="white"/>
<path d="M94.6328 4.3084H96.9228V5.47643C97.3915 5.02561 97.8938 4.67726 98.4295 4.43135C98.9653 4.18545 99.5681 4.0625 100.238 4.0625C100.988 4.0625 101.678 4.20594 102.307 4.49282C102.95 4.76605 103.499 5.15539 103.954 5.66086C104.41 6.15266 104.765 6.74012 105.019 7.42312C105.274 8.09256 105.401 8.82344 105.401 9.61575C105.401 10.4354 105.26 11.1868 104.979 11.8699C104.711 12.5393 104.343 13.1199 103.874 13.6117C103.405 14.0898 102.842 14.4655 102.187 14.7388C101.544 15.0119 100.854 15.1486 100.117 15.1486C99.4609 15.1486 98.8714 15.0461 98.3491 14.8412C97.8267 14.6362 97.3513 14.3494 96.9228 13.9806V19.0625H94.6328V4.3084ZM99.776 12.9764C100.231 12.9764 100.653 12.9013 101.041 12.751C101.443 12.6007 101.792 12.3822 102.086 12.0953C102.38 11.7948 102.608 11.4396 102.769 11.0297C102.943 10.6062 103.03 10.1281 103.03 9.59531C103.03 9.1035 102.956 8.65269 102.81 8.24281C102.662 7.81931 102.448 7.46412 102.167 7.17725C101.898 6.87669 101.577 6.64444 101.202 6.48056C100.827 6.31663 100.412 6.23463 99.9564 6.23463C99.2603 6.23463 98.6441 6.40538 98.1083 6.74694C97.586 7.08844 97.191 7.49831 96.9228 7.97644V11.2141C97.191 11.7879 97.5725 12.2251 98.0681 12.5256C98.5636 12.8262 99.1329 12.9764 99.776 12.9764Z" fill="white"/>
<path d="M106.539 9.61575C106.539 8.80975 106.673 8.07206 106.941 7.40269C107.209 6.71963 107.59 6.13217 108.086 5.64037C108.582 5.14856 109.171 4.76605 109.854 4.49282C110.537 4.20594 111.294 4.0625 112.124 4.0625C112.941 4.0625 113.691 4.20594 114.374 4.49282C115.071 4.76605 115.667 5.14856 116.162 5.64037C116.658 6.13217 117.039 6.71963 117.308 7.40269C117.589 8.07206 117.729 8.80975 117.729 9.61575C117.729 10.4218 117.589 11.1663 117.308 11.8494C117.039 12.5188 116.658 13.0994 116.162 13.5912C115.667 14.083 115.071 14.4655 114.374 14.7388C113.691 15.0119 112.941 15.1486 112.124 15.1486C111.307 15.1486 110.557 15.0119 109.874 14.7388C109.191 14.4655 108.602 14.083 108.106 13.5912C107.611 13.0994 107.222 12.5188 106.941 11.8494C106.673 11.1663 106.539 10.4218 106.539 9.61575ZM108.91 9.61575C108.91 10.0939 108.983 10.5379 109.131 10.9477C109.292 11.3576 109.512 11.7127 109.794 12.0133C110.075 12.3139 110.41 12.5529 110.798 12.7306C111.2 12.8944 111.642 12.9764 112.124 12.9764C112.606 12.9764 113.041 12.9013 113.43 12.751C113.832 12.5871 114.173 12.3617 114.454 12.0748C114.736 11.7743 114.957 11.4191 115.118 11.0092C115.278 10.5994 115.359 10.1349 115.359 9.61575C115.359 9.09662 115.272 8.63219 115.097 8.22231C114.936 7.79881 114.709 7.44362 114.414 7.15675C114.12 6.85619 113.778 6.63081 113.39 6.48056C113.001 6.31663 112.579 6.23463 112.124 6.23463C111.669 6.23463 111.24 6.31663 110.839 6.48056C110.45 6.63081 110.108 6.85619 109.814 7.15675C109.532 7.44362 109.312 7.79881 109.151 8.22231C108.99 8.63219 108.91 9.09662 108.91 9.61575Z" fill="white"/>
<path d="M119.148 4.30859H123.608C125.068 4.30859 126.166 4.52034 126.903 4.94384C127.64 5.36734 128.008 6.09821 128.008 7.13644C128.008 7.62826 127.901 8.04494 127.687 8.38644C127.473 8.72801 127.191 9.03538 126.843 9.30857C127.339 9.49988 127.707 9.82088 127.948 10.2717C128.189 10.7089 128.31 11.2143 128.31 11.7881C128.31 12.8537 127.941 13.6529 127.205 14.1856C126.468 14.7048 125.43 14.9643 124.09 14.9643H119.148V4.30859ZM121.439 10.5586V12.8537H123.87C124.552 12.8537 125.068 12.7649 125.417 12.5873C125.765 12.4097 125.939 12.1228 125.939 11.7266C125.939 11.3031 125.772 11.0026 125.437 10.825C125.115 10.6474 124.613 10.5586 123.93 10.5586H121.439ZM121.439 6.41926V8.52988H124.131C124.599 8.52988 124.968 8.44113 125.236 8.26351C125.504 8.08594 125.637 7.81269 125.637 7.44382C125.637 7.00669 125.457 6.72663 125.095 6.60369C124.747 6.48076 124.231 6.41926 123.548 6.41926H121.439Z" fill="white"/>
</g>
<defs>
<clipPath id="clip0_4113_2329">
<rect width="128" height="20" fill="white" transform="translate(0.3125)"/>
</clipPath>
</defs>
</svg>
