<svg width="24" height="22" viewBox="0 0 24 22" fill="none" xmlns="http://www.w3.org/2000/svg">
<path d="M1.5 6.14286L7.85824 10.5547C9.35511 11.5933 10.1036 12.1126 10.9124 12.3145C11.6274 12.4927 12.3726 12.4927 13.0876 12.3145C13.8964 12.1126 14.6449 11.5933 16.1418 10.5547L22.5 6.14286M5.23333 19.5H18.7667C20.0734 19.5 20.7269 19.5 21.226 19.2353C21.665 19.0025 22.022 18.6309 22.2457 18.174C22.5 17.6545 22.5 16.9744 22.5 15.6143V6.38571C22.5 5.02559 22.5 4.34552 22.2457 3.82602C22.022 3.36905 21.665 2.99753 21.226 2.7647C20.7269 2.5 20.0734 2.5 18.7667 2.5H5.23333C3.92655 2.5 3.27315 2.5 2.77402 2.7647C2.33497 2.99753 1.97802 3.36905 1.75432 3.82602C1.5 4.34552 1.5 5.02558 1.5 6.38571V15.6143C1.5 16.9744 1.5 17.6545 1.75432 18.174C1.97802 18.6309 2.33497 19.0025 2.77402 19.2353C3.27315 19.5 3.92654 19.5 5.23333 19.5Z" fill="white"/>
<path d="M1.5 6.14286L7.85824 10.5547C9.35511 11.5933 10.1036 12.1126 10.9124 12.3145C11.6274 12.4927 12.3726 12.4927 13.0876 12.3145C13.8964 12.1126 14.645 11.5933 16.1418 10.5547L22.5 6.14286M5.23333 19.5H18.7667C20.0734 19.5 20.7269 19.5 21.226 19.2353C21.665 19.0025 22.022 18.6309 22.2457 18.174C22.5 17.6545 22.5 16.9744 22.5 15.6143V6.38571C22.5 5.02559 22.5 4.34552 22.2457 3.82602C22.022 3.36905 21.665 2.99753 21.226 2.7647C20.7269 2.5 20.0734 2.5 18.7667 2.5H5.23333C3.92655 2.5 3.27315 2.5 2.77402 2.7647C2.33497 2.99753 1.97802 3.36905 1.75432 3.82602C1.5 4.34552 1.5 5.02558 1.5 6.38571V15.6143C1.5 16.9744 1.5 17.6545 1.75432 18.174C1.97802 18.6309 2.33497 19.0025 2.77402 19.2353C3.27315 19.5 3.92654 19.5 5.23333 19.5Z" stroke="#003649" stroke-width="1.5" stroke-linecap="round" stroke-linejoin="round"/>
</svg>
