<svg width="26" height="21" viewBox="0 0 26 21" fill="none" xmlns="http://www.w3.org/2000/svg">
<path d="M14.3333 17.2509L20.7333 17.25C22.2268 17.25 22.9736 17.25 23.544 17.0047C24.0457 16.7891 24.4537 16.4448 24.7093 16.0215C25 15.5402 25 14.9101 25 13.65V5.1C25 3.83989 25 3.20982 24.7093 2.72852C24.4537 2.30515 24.0457 1.96095 23.544 1.74524C22.9736 1.5 22.2268 1.5 20.7333 1.5H5.26667C3.7732 1.5 3.02645 1.5 2.45603 1.74524C1.95425 1.96095 1.54631 2.30515 1.29065 2.72852C1 3.20982 1 3.83989 1 5.1V12.75M1 6H23.6667M9 17.2509L1 17.25M9 17.2509L6.33333 15M9 17.2509L6.33333 19.5" stroke="white" stroke-width="2" stroke-linecap="round" stroke-linejoin="round"/>
</svg>
