<svg width="18" height="19" viewBox="0 0 18 19" fill="none" xmlns="http://www.w3.org/2000/svg">
<path d="M1 3.60027C1 11.2095 7.16852 17.3781 14.7778 17.3781C15.1211 17.3781 15.4614 17.3655 15.7985 17.3408C16.1852 17.3125 16.3786 17.2983 16.5547 17.197C16.7004 17.1131 16.8387 16.9643 16.9117 16.8127C17 16.6298 17 16.4164 17 15.9896V13.4853C17 13.1264 17 12.9469 16.9409 12.7932C16.8888 12.6573 16.804 12.5363 16.6941 12.4408C16.5698 12.3327 16.4011 12.2714 16.0638 12.1487L13.2133 11.1122C12.8209 10.9695 12.6246 10.8981 12.4385 10.9102C12.2743 10.9209 12.1164 10.977 11.9821 11.0721C11.83 11.1799 11.7226 11.3589 11.5077 11.7171L10.7778 12.9336C8.42231 11.8669 6.5128 9.95485 5.44444 7.60027L6.661 6.87034C7.01907 6.6555 7.1981 6.54808 7.30596 6.39588C7.40107 6.26168 7.45716 6.10371 7.46782 5.93956C7.47991 5.7534 7.40853 5.55719 7.26587 5.16476L6.22932 2.31424C6.10667 1.97695 6.04534 1.8083 5.93726 1.68392C5.84179 1.57404 5.72079 1.4893 5.58491 1.43712C5.43108 1.37805 5.25163 1.37805 4.89273 1.37805H2.38845C1.96167 1.37805 1.74828 1.37805 1.56532 1.46627C1.41378 1.53935 1.26501 1.67762 1.18107 1.82341C1.07972 1.99945 1.06556 2.19282 1.03724 2.57959C1.01256 2.91659 1 3.25697 1 3.60027Z" stroke="#0F5658" stroke-width="1.5" stroke-linecap="round" stroke-linejoin="round"/>
</svg>
