<svg width="36" height="32" viewBox="0 0 36 32" fill="none" xmlns="http://www.w3.org/2000/svg">
<g clip-path="url(#clip0_4019_16897)">
<path d="M3 0C1.34375 0 0 1.34375 0 3V16H9C9.55 16 10 16.45 10 17C10 17.55 9.55 18 9 18H0V22H9C9.55 22 10 22.45 10 23C10 23.55 9.55 24 9 24H0V29C0 30.6562 1.34375 32 3 32H16.6187C16.225 31.3625 16 30.6125 16 29.8062C16 26.875 17.6125 24.3188 20 22.9813V3C20 1.34375 18.6562 0 17 0H3ZM9.5 4H10.5C11.05 4 11.5 4.45 11.5 5V6.5H13C13.55 6.5 14 6.95 14 7.5V8.5C14 9.05 13.55 9.5 13 9.5H11.5V11C11.5 11.55 11.05 12 10.5 12H9.5C8.95 12 8.5 11.55 8.5 11V9.5H7C6.45 9.5 6 9.05 6 8.5V7.5C6 6.95 6.45 6.5 7 6.5H8.5V5C8.5 4.45 8.95 4 9.5 4ZM32 17C32 15.6739 31.4732 14.4021 30.5355 13.4645C29.5979 12.5268 28.3261 12 27 12C25.6739 12 24.4021 12.5268 23.4645 13.4645C22.5268 14.4021 22 15.6739 22 17C22 18.3261 22.5268 19.5979 23.4645 20.5355C24.4021 21.4732 25.6739 22 27 22C28.3261 22 29.5979 21.4732 30.5355 20.5355C31.4732 19.5979 32 18.3261 32 17ZM18 29.8188C18 31.025 18.975 32 20.1812 32H33.8187C35.025 32 36 31.025 36 29.8188C36 26.6063 33.3937 24 30.1812 24H23.8188C20.6063 24 18 26.6063 18 29.8188Z" fill="#C3F1C2"/>
</g>
<defs>
<clipPath id="clip0_4019_16897">
<rect width="36" height="32" fill="white"/>
</clipPath>
</defs>
</svg>
