<svg width="32" height="32" viewBox="0 0 32 32" fill="none" xmlns="http://www.w3.org/2000/svg">
<path d="M25.3281 4H24.0156C24.9531 4.35625 25.4406 5.2875 25.4406 6.66875V25.3375C25.4406 26.7188 25.0031 27.6688 24.0156 28.0063H25.3281C26.8094 28.0063 28.0031 26.8062 28.0031 25.3375V6.66875C28.0031 5.2 26.8094 4 25.3281 4Z" fill="#C3F1C2"/>
<path d="M21.5938 4.0125C21.5063 4.00625 21.4187 4 21.3312 4H6.66875C5.2 4 4 5.2 4 6.66875V25.3375C4 26.8062 5.2 28.0063 6.66875 28.0063H21.3375C21.425 28.0063 21.5125 28 21.6 27.9937C22.9438 27.8625 24.0063 26.7188 24.0063 25.3375V6.66875C24 5.2875 22.9375 4.14375 21.5938 4.0125ZM13 16L9.5 14L6 16V6H13V16Z" fill="#C3F1C2"/>
</svg>
