<svg width="305" height="304" viewBox="0 0 305 304" fill="none" xmlns="http://www.w3.org/2000/svg">
<path d="M19.4734 280.26H10.9844C8.22295 280.26 5.98438 282.499 5.98438 285.26V294C5.98438 296.761 8.22295 299 10.9844 299H294.984C297.746 299 299.984 296.761 299.984 294V285.26C299.984 282.499 297.746 280.26 294.984 280.26H285.269M19.4734 280.26V122.661M19.4734 280.26H142.408M19.4734 122.661H10.9844C8.22295 122.661 5.98438 120.423 5.98438 117.661V107.693C5.98438 104.931 8.22295 102.693 10.9844 102.693H19.4734M19.4734 122.661H160.298M19.4734 102.693L39.1487 46.4432C39.8503 44.4373 41.7432 43.094 43.8683 43.094H222.116M19.4734 102.693H179.212M285.269 102.693L266.484 46.5086C265.802 44.4691 263.892 43.094 261.742 43.094H250.933M285.269 102.693H294.984C297.746 102.693 299.984 104.931 299.984 107.693V117.661C299.984 120.423 297.746 122.661 294.984 122.661H285.269M285.269 102.693H214.129M285.269 122.661V280.26M285.269 122.661H233.043M285.269 280.26H250.933M250.933 43.094H222.116M250.933 43.094V24.047M222.116 43.094V24.047M222.116 24.047V10C222.116 7.23858 224.354 5 227.116 5H245.933C248.695 5 250.933 7.23858 250.933 10V24.047M222.116 24.047H250.933M142.408 280.26V265.906C142.408 263.145 144.646 260.906 147.408 260.906H152.525M142.408 280.26H250.933M250.933 280.26V265.906C250.933 263.145 248.695 260.906 245.933 260.906H241.123M152.525 260.906V156.762M152.525 260.906H172.758M152.525 156.762H139.622C135.232 156.762 132.973 151.51 135.992 148.323L160.298 122.661M152.525 156.762L192.995 112.546C194.972 110.385 198.375 110.379 200.36 112.533L241.123 156.762M241.123 156.762H253.719C258.109 156.762 260.368 151.51 257.349 148.323L233.043 122.661M241.123 156.762V260.906M241.123 260.906H221.503M214.129 102.693L200.301 88.0928C198.328 86.0106 195.013 86.0106 193.04 88.0928L179.212 102.693M214.129 102.693L233.043 122.661M179.212 102.693L160.298 122.661M172.758 260.906V187.26C172.758 184.499 174.997 182.26 177.758 182.26H216.503C219.264 182.26 221.503 184.499 221.503 187.26V260.906M172.758 260.906H221.503M192.072 208.373V223.119M108.379 220.969V235.63C108.379 238.392 106.14 240.63 103.379 240.63H45.3201C42.5587 240.63 40.3201 238.392 40.3201 235.63V220.969M108.379 220.969H74.3493M108.379 220.969V191.476M40.3201 220.969H74.3493M40.3201 220.969V191.476M74.3493 220.969V161.984M74.3493 161.984H45.3201C42.5587 161.984 40.3201 164.223 40.3201 166.984V191.476M74.3493 161.984H103.379C106.14 161.984 108.379 164.223 108.379 166.984V191.476M108.379 191.476H40.3201" stroke="#F7F8FA" stroke-width="10"/>
</svg>
