<svg width="305" height="304" viewBox="0 0 305 304" fill="none" xmlns="http://www.w3.org/2000/svg">
<path d="M203.357 46.4129V10C203.357 7.23858 201.119 5 198.357 5H107.612C104.85 5 102.612 7.23858 102.612 10V46.4129M203.357 46.4129H244.612C247.373 46.4129 249.612 48.6515 249.612 51.4129V62.2774C249.612 65.0388 247.373 67.2774 244.612 67.2774H238.206M203.357 46.4129V67.2774M238.206 67.2774V112.8M238.206 67.2774H203.357M238.206 112.8H294.984C297.746 112.8 299.984 115.039 299.984 117.8V132.084M238.206 112.8V132.084M203.357 67.2774V102.426C203.357 105.187 201.119 107.426 198.357 107.426H107.612C104.85 107.426 102.612 105.187 102.612 102.426V67.2774M238.206 299H294.984C297.746 299 299.984 296.761 299.984 294V132.084M238.206 299V132.084M238.206 299H192.902M238.206 132.084H299.984M192.902 299V245.2C192.902 242.439 190.664 240.2 187.902 240.2H152.984M192.902 299H152.984M102.612 46.4129H61.3572C58.5958 46.4129 56.3572 48.6515 56.3572 51.4129V62.2774C56.3572 65.0388 58.5958 67.2774 61.3572 67.2774H67.7624M102.612 46.4129V67.2774M67.7624 67.2774V112.8M67.7624 67.2774H102.612M67.7624 112.8H10.9844C8.22295 112.8 5.98438 115.039 5.98438 117.8V132.084M67.7624 112.8V132.084M67.7624 299H10.9844C8.22295 299 5.98438 296.761 5.98438 294V132.084M67.7624 299V132.084M67.7624 299H113.066M67.7624 132.084H5.98438M113.066 299V245.2C113.066 242.439 115.305 240.2 118.066 240.2H152.984M113.066 299H152.984M152.984 240.2V299M26.577 273.135V263.535C26.577 260.774 28.8156 258.535 31.5771 258.535H41.2193C43.9807 258.535 46.2193 260.774 46.2193 263.535V273.135C46.2193 275.897 43.9807 278.135 41.2193 278.135H31.577C28.8156 278.135 26.577 275.897 26.577 273.135ZM26.577 238.045V228.445C26.577 225.684 28.8156 223.445 31.5771 223.445H41.2193C43.9807 223.445 46.2193 225.684 46.2193 228.445V238.045C46.2193 240.807 43.9807 243.045 41.2193 243.045H31.577C28.8156 243.045 26.577 240.807 26.577 238.045ZM41.2193 208.271H31.577C28.8156 208.271 26.577 206.032 26.577 203.271V193.671C26.577 190.91 28.8156 188.671 31.5771 188.671H41.2193C43.9807 188.671 46.2193 190.91 46.2193 193.671V203.271C46.2193 206.032 43.9807 208.271 41.2193 208.271ZM26.577 167.548V157.948C26.577 155.187 28.8156 152.948 31.5771 152.948H41.2193C43.9807 152.948 46.2193 155.187 46.2193 157.948V167.548C46.2193 170.31 43.9807 172.548 41.2193 172.548H31.577C28.8156 172.548 26.577 170.31 26.577 167.548ZM117.254 218.071H107.612C104.85 218.071 102.612 215.832 102.612 213.071V203.471C102.612 200.71 104.85 198.471 107.612 198.471H117.254C120.015 198.471 122.254 200.71 122.254 203.471V213.071C122.254 215.832 120.015 218.071 117.254 218.071ZM117.254 182.981H107.612C104.85 182.981 102.612 180.742 102.612 177.981V168.381C102.612 165.619 104.85 163.381 107.612 163.381H117.254C120.015 163.381 122.254 165.619 122.254 168.381V177.981C122.254 180.742 120.015 182.981 117.254 182.981ZM117.254 147.258H107.612C104.85 147.258 102.612 145.019 102.612 142.258V132.658C102.612 129.897 104.85 127.658 107.612 127.658H117.254C120.015 127.658 122.254 129.897 122.254 132.658V142.258C122.254 145.019 120.015 147.258 117.254 147.258ZM143.163 213.071V203.471C143.163 200.71 145.402 198.471 148.163 198.471H157.805C160.567 198.471 162.805 200.71 162.805 203.471V213.071C162.805 215.832 160.567 218.071 157.805 218.071H148.163C145.402 218.071 143.163 215.832 143.163 213.071ZM143.163 177.981V169.013C143.163 166.251 145.402 164.013 148.163 164.013H157.805C160.567 164.013 162.805 166.251 162.805 169.013V177.981C162.805 180.742 160.567 182.981 157.805 182.981H148.163C145.402 182.981 143.163 180.742 143.163 177.981ZM143.163 142.258V132.658C143.163 129.897 145.402 127.658 148.163 127.658H157.805C160.567 127.658 162.805 129.897 162.805 132.658V142.258C162.805 145.019 160.567 147.258 157.805 147.258H148.163C145.402 147.258 143.163 145.019 143.163 142.258ZM143.163 31.8129V41.4129C143.163 44.1743 140.925 46.4129 138.163 46.4129H127.254C124.492 46.4129 122.254 48.6515 122.254 51.4129V62.2774C122.254 65.0388 124.492 67.2774 127.254 67.2774H138.163C140.925 67.2774 143.163 69.516 143.163 72.2774V82.5097C143.163 85.2711 145.402 87.5097 148.163 87.5097H157.805C160.567 87.5097 162.805 85.2711 162.805 82.5097V72.2774C162.805 69.516 165.044 67.2774 167.805 67.2774H178.715C181.476 67.2774 183.715 65.0388 183.715 62.2774V51.4129C183.715 48.6515 181.476 46.4129 178.715 46.4129H167.805C165.044 46.4129 162.805 44.1743 162.805 41.4129V31.8129C162.805 29.0515 160.567 26.8129 157.805 26.8129H148.163C145.402 26.8129 143.163 29.0515 143.163 31.8129ZM264.749 278.135H274.392C277.153 278.135 279.392 275.897 279.392 273.135V263.535C279.392 260.774 277.153 258.535 274.392 258.535H264.749C261.988 258.535 259.749 260.774 259.749 263.535V273.135C259.749 275.897 261.988 278.135 264.749 278.135ZM274.392 223.445H264.749C261.988 223.445 259.749 225.684 259.749 228.445V238.045C259.749 240.807 261.988 243.045 264.749 243.045H274.392C277.153 243.045 279.392 240.807 279.392 238.045V228.445C279.392 225.684 277.153 223.445 274.392 223.445ZM264.749 208.271H274.392C277.153 208.271 279.392 206.032 279.392 203.271V193.671C279.392 190.91 277.153 188.671 274.392 188.671H264.749C261.988 188.671 259.749 190.91 259.749 193.671V203.271C259.749 206.032 261.988 208.271 264.749 208.271ZM264.749 172.548H274.392C277.153 172.548 279.392 170.31 279.392 167.548V157.948C279.392 155.187 277.153 152.948 274.392 152.948H264.749C261.988 152.948 259.749 155.187 259.749 157.948V167.548C259.749 170.31 261.988 172.548 264.749 172.548ZM188.715 218.071H198.357C201.119 218.071 203.357 215.832 203.357 213.071V203.471C203.357 200.71 201.119 198.471 198.357 198.471H188.715C185.954 198.471 183.715 200.71 183.715 203.471V213.071C183.715 215.832 185.954 218.071 188.715 218.071ZM188.715 182.981H198.357C201.119 182.981 203.357 180.742 203.357 177.981V168.381C203.357 165.619 201.119 163.381 198.357 163.381H188.715C185.954 163.381 183.715 165.619 183.715 168.381V177.981C183.715 180.742 185.954 182.981 188.715 182.981ZM188.715 147.258H198.357C201.119 147.258 203.357 145.019 203.357 142.258V132.658C203.357 129.897 201.119 127.658 198.357 127.658H188.715C185.954 127.658 183.715 129.897 183.715 132.658V142.258C183.715 145.019 185.954 147.258 188.715 147.258Z" stroke="#ECEFF6" stroke-width="10"/>
</svg>
