<svg width="23" height="22" viewBox="0 0 23 22" fill="none" xmlns="http://www.w3.org/2000/svg">
<g clip-path="url(#clip0_1919_21699)">
<path d="M12.6918 2.5609C8.35823 3.13239 5.11909 6.74176 5.11909 11C5.11909 14.9918 7.96106 18.4422 11.9681 19.3101C13.014 19.5379 14.3467 19.5679 15.4014 19.3832C19.1216 18.7472 21.9724 15.8683 22.524 12.1988C22.6167 11.5972 22.6167 10.4027 22.524 9.80114C22.0474 6.61715 19.8321 3.99606 16.7385 2.95192C15.525 2.53942 13.9672 2.38903 12.6918 2.5609ZM14.2628 9.13942L14.2761 11.4082L15.7633 12.3965C16.5797 12.9379 17.2637 13.3976 17.2813 13.4191C17.3122 13.4492 16.6459 14.4418 16.5973 14.4332C16.5841 14.4332 15.7677 13.8961 14.7836 13.2429L12.9963 12.0527L12.9831 9.46168L12.9742 6.87497H14.254L14.2628 9.13942Z" fill="#3D7C85"/>
<path d="M1.19151 9.06637H3.83932V7.77731H1.19151V9.06637Z" fill="#3D7C85"/>
<path d="M0 11.6445H3.83932V10.3554H0V11.6445Z" fill="#3D7C85"/>
<path d="M1.19151 14.2226H3.83932V12.9336H1.19151V14.2226Z" fill="#3D7C85"/>
</g>
<defs>
<clipPath id="clip0_1919_21699">
<rect width="22.5946" height="22" fill="white"/>
</clipPath>
</defs>
</svg>
