<svg width="22" height="22" viewBox="0 0 22 22" fill="none" xmlns="http://www.w3.org/2000/svg">
<path d="M9.92578 4.47311C6.41094 4.82546 3.19258 6.70319 0.567187 9.93874C0.0386719 10.5876 0 10.6649 0 11.013C0 11.3395 0.0644531 11.4512 0.661719 12.1774C3.52773 15.6622 7.18867 17.5743 11 17.5743C14.8586 17.5743 18.5324 15.6321 21.4328 12.0614C21.9613 11.4126 22 11.3352 22 10.9872C22 10.6606 21.9355 10.5489 21.3383 9.82272C18.4465 6.30358 14.7555 4.39577 10.9184 4.43014C10.5746 4.43444 10.1277 4.45163 9.92578 4.47311ZM11.9711 6.50553C13.4879 6.8321 14.7598 7.94499 15.3184 9.42741C15.5203 9.96452 15.5719 10.2782 15.5676 11.0215C15.5676 11.6274 15.5547 11.7606 15.4559 12.1258C15.0219 13.7544 13.7543 15.0219 12.1258 15.4559C11.7605 15.5548 11.6273 15.5676 11.0215 15.5676C10.2781 15.5719 9.96445 15.5204 9.42734 15.3184C7.94492 14.7598 6.85352 13.5094 6.50117 11.9712C6.38945 11.4856 6.40234 10.4372 6.52266 9.95592C6.98242 8.12546 8.37461 6.81921 10.2438 6.46257C10.6262 6.38952 11.55 6.411 11.9711 6.50553Z" fill="#3D7C85"/>
<path d="M10.248 8.611C9.80547 8.7571 9.55195 8.91608 9.2168 9.25983C8.73125 9.74967 8.50781 10.2997 8.50781 11.0001C8.50781 11.7219 8.73125 12.2633 9.23398 12.7661C9.73672 13.2688 10.2781 13.4923 11 13.4923C11.7004 13.4923 12.2504 13.2688 12.7402 12.7833C13.2645 12.2676 13.4922 11.7305 13.4922 11.0044C13.4922 10.7723 13.4621 10.4801 13.4277 10.3426C13.2086 9.50045 12.4996 8.79147 11.6574 8.57233C11.2707 8.4735 10.6133 8.49069 10.248 8.611Z" fill="#3D7C85"/>
</svg>
