<svg width="18" height="18" viewBox="0 0 18 18" fill="none" xmlns="http://www.w3.org/2000/svg">
<path d="M7.27822 5.88889C7.24169 5.74684 7.22222 5.59791 7.22222 5.44444C7.22222 4.4626 8.01813 3.66667 9 3.66667C9.1256 3.66667 9.24818 3.6797 9.3664 3.70447M2.77778 1.88889L1 1M15.2222 1.88889L17 1M1.88889 7.22222H1M17 7.22222H16.1111M3.31111 17H14.6889C15.1868 17 15.4356 17 15.6258 16.9031C15.7931 16.8179 15.929 16.682 16.0142 16.5147C16.1111 16.3245 16.1111 16.0756 16.1111 15.5778V14.8667C16.1111 14.3688 16.1111 14.1199 16.0142 13.9298C15.929 13.7625 15.7931 13.6266 15.6258 13.5413C15.4356 13.4444 15.1868 13.4444 14.6889 13.4444H3.31111C2.81329 13.4444 2.56437 13.4444 2.37423 13.5413C2.20698 13.6266 2.071 13.7625 1.98577 13.9298C1.88889 14.1199 1.88889 14.3688 1.88889 14.8667V15.5778C1.88889 16.0756 1.88889 16.3245 1.98577 16.5147C2.071 16.682 2.20698 16.8179 2.37423 16.9031C2.56437 17 2.81329 17 3.31111 17ZM13.4444 10.7778V5.44444C13.4444 2.98985 11.4546 1 9 1C6.5454 1 4.55556 2.98985 4.55556 5.44444V10.7778H13.4444Z" stroke="#0F5658" stroke-width="1.5" stroke-linecap="round" stroke-linejoin="round"/>
</svg>
