<svg width="21" height="16" viewBox="0 0 21 16" fill="none" xmlns="http://www.w3.org/2000/svg">
<path d="M6.7 12.6429H14.3M6.7 12.6429C6.7 13.6686 5.84934 14.5 4.8 14.5C3.75066 14.5 2.9 13.6686 2.9 12.6429M6.7 12.6429C6.7 11.6172 5.84934 10.7857 4.8 10.7857C3.75066 10.7857 2.9 11.6172 2.9 12.6429M14.3 12.6429C14.3 13.6686 15.1506 14.5 16.2 14.5C17.2494 14.5 18.1 13.6686 18.1 12.6429M14.3 12.6429C14.3 11.6172 15.1506 10.7857 16.2 10.7857C17.2494 10.7857 18.1 11.6172 18.1 12.6429M2.9 12.6429H2.52C1.98795 12.6429 1.72192 12.6429 1.51871 12.5416C1.33996 12.4526 1.19463 12.3106 1.10354 12.1359C1 11.9372 1 11.6772 1 11.1571V10.0429C1 9.00276 1 8.48267 1.20709 8.08543C1.38924 7.73601 1.67991 7.45186 2.03742 7.27386C2.44385 7.07143 2.9759 7.07143 4.04 7.07143H15.44C16.146 7.07143 16.4991 7.07143 16.7944 7.11711C18.4204 7.36885 19.6957 8.61536 19.9533 10.2047C20 10.4934 20 10.8385 20 11.5286C20 11.7011 20 11.7874 19.9883 11.8595C19.9239 12.2569 19.6051 12.5685 19.1986 12.6314C19.1248 12.6429 19.0365 12.6429 18.86 12.6429H18.1M8.6 1.5V7.07143M2.9 7.07143L3.21494 5.22439C3.44056 3.90122 3.55337 3.23963 3.89114 2.74317C4.18887 2.30554 4.6072 1.95915 5.09779 1.74404C5.65434 1.5 6.34052 1.5 7.7129 1.5H10.9095C11.8018 1.5 12.2479 1.5 12.6529 1.6202C13.0114 1.72663 13.3449 1.90109 13.6343 2.13362C13.9613 2.39629 14.2088 2.75912 14.7037 3.48477L17.15 7.07143" stroke="#0F5658" stroke-width="1.5" stroke-linecap="round" stroke-linejoin="round"/>
</svg>
