<svg width="30" height="32" viewBox="0 0 30 32" fill="none" xmlns="http://www.w3.org/2000/svg">
<path d="M9.9375 16.0375L13.3125 19.4047L20.0625 12.6704M28.5 16.0375C28.5 23.5481 19.2862 28.9903 16.0824 30.6559C15.7359 30.836 15.5626 30.9261 15.3223 30.9727C15.135 31.0091 14.865 31.0091 14.6777 30.9727C14.4374 30.9261 14.2641 30.836 13.9176 30.6559C10.7137 28.9903 1.5 23.5481 1.5 16.0375V9.66964C1.5 8.32362 1.5 7.65062 1.72066 7.0721C1.91558 6.56102 2.23234 6.10501 2.64355 5.74347C3.10903 5.33421 3.74066 5.09791 5.00392 4.62528L14.052 1.2402C14.4028 1.10895 14.5781 1.04333 14.7587 1.0173C14.9187 0.994234 15.0813 0.994234 15.2413 1.0173C15.4219 1.04333 15.5972 1.10895 15.948 1.2402L24.9961 4.62528C26.2593 5.09791 26.891 5.33421 27.3564 5.74347C27.7676 6.10501 28.0844 6.56102 28.2793 7.0721C28.5 7.65062 28.5 8.32362 28.5 9.66964V16.0375Z" stroke="#C3F1C2" stroke-width="2" stroke-linecap="round" stroke-linejoin="round"/>
</svg>
