<svg width="30" height="32" viewBox="0 0 30 32" fill="none" xmlns="http://www.w3.org/2000/svg">
<path d="M12.5625 30.6869H4.6C3.68992 30.6869 3.23487 30.6869 2.88727 30.5072C2.58151 30.349 2.33291 30.0968 2.17711 29.7864C2 29.4336 2 28.9718 2 28.0481V25.2181C2 24.1698 2 23.6455 2.07797 23.2085C2.44016 21.1779 4.00593 19.5888 6.00656 19.2212C6.13156 19.1983 6.26351 19.1819 6.41309 19.1704C6.77878 19.142 6.96163 19.1278 7.20586 19.1463C7.45972 19.1656 7.6017 19.191 7.8467 19.2611C8.0824 19.3285 8.50697 19.5238 9.35608 19.9142C9.86166 20.1466 10.3903 20.3366 10.9375 20.4796M19.875 7.59709C19.875 11.2406 16.9648 14.1942 13.375 14.1942C9.78514 14.1942 6.875 11.2406 6.875 7.59709C6.875 3.95362 9.78514 1 13.375 1C16.9648 1 19.875 3.95362 19.875 7.59709ZM22.3086 22.79C21.1714 21.5051 19.2752 21.1594 17.8504 22.3362C16.4258 23.5128 16.2251 25.4802 17.3441 26.8718C17.9757 27.6575 19.4765 29.0349 20.6638 30.0854C21.2268 30.5837 21.5083 30.8329 21.8489 30.9348C22.1393 31.0217 22.4779 31.0217 22.7683 30.9348C23.1089 30.8329 23.3903 30.5837 23.9534 30.0854C25.1406 29.0349 26.6415 27.6575 27.2731 26.8718C28.3921 25.4802 28.2159 23.5004 26.7668 22.3362C25.3174 21.1718 23.4458 21.5051 22.3086 22.79Z" stroke="#C3F1C2" stroke-width="2" stroke-linecap="round" stroke-linejoin="round"/>
</svg>
