<svg width="32" height="30" viewBox="0 0 32 30" fill="none" xmlns="http://www.w3.org/2000/svg">
<path d="M12.4417 20.1053L19.5388 13.161M16.1045 5.24593L15.8955 5.03978C15.319 4.4715 15.0307 4.18737 14.6943 3.98418C14.396 3.80403 14.0708 3.67127 13.7308 3.59078C13.3472 3.5 12.9395 3.5 12.1242 3.5H6.33333C4.4665 3.5 3.53307 3.5 2.82003 3.85813C2.19282 4.17313 1.68288 4.67578 1.36332 5.29403C1 5.99688 1 6.91696 1 8.75714V21.2429C1 23.083 1 24.0032 1.36332 24.706C1.68288 25.3242 2.19282 25.8269 2.82003 26.1419C3.53307 26.5 4.46648 26.5 6.33333 26.5H25.6667C27.5335 26.5 28.467 26.5 29.18 26.1419C29.8072 25.8269 30.3172 25.3242 30.6367 24.706C31 24.0032 31 23.083 31 21.2429V12.0429C31 10.2027 31 9.28259 30.6367 8.57975C30.3172 7.96149 29.8072 7.45884 29.18 7.14384C28.467 6.78571 27.5335 6.78571 25.6667 6.78571H19.8758C19.0605 6.78571 18.6528 6.78571 18.2692 6.69493C17.9292 6.61445 17.604 6.48169 17.3057 6.30153C16.9693 6.09834 16.681 5.81421 16.1045 5.24593ZM21 16.6429C21 19.3649 18.7615 21.5714 16 21.5714C13.2385 21.5714 11 19.3649 11 16.6429C11 13.9208 13.2385 11.7143 16 11.7143C18.7615 11.7143 21 13.9208 21 16.6429Z" stroke="#C3F1C2" stroke-width="2" stroke-linecap="round" stroke-linejoin="round"/>
</svg>
