<svg width="12" height="16" viewBox="0 0 12 16" fill="none" xmlns="http://www.w3.org/2000/svg">
<g clip-path="url(#clip0_4002_11707)">
<path d="M11.9596 5.40426C11.901 5.28121 11.7861 5.16821 11.6783 5.12552C11.5611 5.07529 11.3666 5.08785 11.2518 5.15063C11.2143 5.17323 10.0189 6.55688 8.60098 8.22429C7.18301 9.8917 6.01113 11.2553 5.99941 11.2553C5.9877 11.2553 4.81582 9.8917 3.39785 8.22429C1.97988 6.55688 0.78457 5.17323 0.74707 5.15063C0.646289 5.09538 0.44707 5.07781 0.341602 5.11547C0.229102 5.15565 0.102539 5.27368 0.0439453 5.39421C-0.0146484 5.51977 -0.0146484 5.74577 0.0439453 5.88138C0.0978516 6.00442 5.60801 12.4882 5.72285 12.5611C5.78379 12.6012 5.84238 12.6113 6.0041 12.6113C6.1916 12.6113 6.2127 12.6063 6.3041 12.536C6.44941 12.423 11.9033 6.00191 11.9549 5.88138C12.0088 5.75582 12.0111 5.50973 11.9596 5.40426Z" fill="#206175"/>
</g>
<defs>
<clipPath id="clip0_4002_11707">
<rect width="15.4286" height="12" fill="white" transform="matrix(0 1 -1 0 12 0.28566)"/>
</clipPath>
</defs>
</svg>
