<svg width="14" height="13" viewBox="0 0 14 13" fill="none" xmlns="http://www.w3.org/2000/svg">
<path fill-rule="evenodd" clip-rule="evenodd" d="M3.79961 0.100006C3.58744 0.100006 3.38395 0.184292 3.23392 0.334321C3.08389 0.48435 2.99961 0.687833 2.99961 0.900006V1.70001H2.19961C1.77526 1.70001 1.3683 1.86858 1.06824 2.16864C0.76818 2.46869 0.599609 2.87566 0.599609 3.30001V11.3C0.599609 11.7244 0.76818 12.1313 1.06824 12.4314C1.3683 12.7314 1.77526 12.9 2.19961 12.9H11.7996C12.224 12.9 12.6309 12.7314 12.931 12.4314C13.231 12.1313 13.3996 11.7244 13.3996 11.3V3.30001C13.3996 2.87566 13.231 2.46869 12.931 2.16864C12.6309 1.86858 12.224 1.70001 11.7996 1.70001H10.9996V0.900006C10.9996 0.687833 10.9153 0.48435 10.7653 0.334321C10.6153 0.184292 10.4118 0.100006 10.1996 0.100006C9.98744 0.100006 9.78395 0.184292 9.63392 0.334321C9.4839 0.48435 9.39961 0.687833 9.39961 0.900006V1.70001H4.59961V0.900006C4.59961 0.687833 4.51532 0.48435 4.36529 0.334321C4.21527 0.184292 4.01178 0.100006 3.79961 0.100006ZM3.79961 4.10001C3.58744 4.10001 3.38395 4.18429 3.23392 4.33432C3.08389 4.48435 2.99961 4.68783 2.99961 4.90001C2.99961 5.11218 3.08389 5.31566 3.23392 5.46569C3.38395 5.61572 3.58744 5.70001 3.79961 5.70001H10.1996C10.4118 5.70001 10.6153 5.61572 10.7653 5.46569C10.9153 5.31566 10.9996 5.11218 10.9996 4.90001C10.9996 4.68783 10.9153 4.48435 10.7653 4.33432C10.6153 4.18429 10.4118 4.10001 10.1996 4.10001H3.79961Z" fill="#3D7C85"/>
</svg>
