<svg width="14" height="15" viewBox="0 0 14 15" fill="none" xmlns="http://www.w3.org/2000/svg">
<path d="M6.36176 0.849951C5.61176 0.915576 4.78051 1.14995 4.07113 1.49683C2.69926 2.17183 1.67113 3.19995 0.996132 4.57183C-0.610118 7.84683 0.736757 11.8312 3.99926 13.4687C4.64613 13.7937 5.29613 14 6.03051 14.1125C6.52113 14.1875 7.47113 14.1875 7.96801 14.1125C10.1868 13.7718 12.018 12.4281 13.0024 10.4281C14.1493 8.08745 13.818 5.27808 12.1524 3.2437C10.7649 1.54995 8.59613 0.653076 6.36176 0.849951ZM7.27738 3.77808C7.48988 3.9312 7.48363 3.87183 7.49301 5.68745L7.50238 7.32808L8.44926 8.2812C8.97113 8.8062 9.41488 9.26558 9.43363 9.30308C9.48988 9.41245 9.47426 9.62808 9.40551 9.7437C9.28676 9.93745 8.99301 10.0312 8.80238 9.93433C8.70238 9.88433 6.63051 7.81558 6.56801 7.70308C6.52113 7.6187 6.51488 7.44058 6.50551 5.99995C6.49926 5.11558 6.50551 4.30308 6.51488 4.19683C6.53988 3.97183 6.62113 3.8312 6.78051 3.7437C6.92113 3.66558 7.13988 3.6812 7.27738 3.77808Z" fill="#3D7C85"/>
</svg>
