<svg width="15" height="22" viewBox="0 0 15 22" fill="none" xmlns="http://www.w3.org/2000/svg">
<g clip-path="url(#clip0_1919_22290)">
<path d="M7.23809 11C8.33504 11 9.38707 10.5786 10.1627 9.82843C10.9384 9.07828 11.3741 8.06087 11.3741 7C11.3741 5.93913 10.9384 4.92172 10.1627 4.17157C9.38707 3.42143 8.33504 3 7.23809 3C6.14114 3 5.08912 3.42143 4.31346 4.17157C3.5378 4.92172 3.10204 5.93913 3.10204 7C3.10204 8.06087 3.5378 9.07828 4.31346 9.82843C5.08912 10.5786 6.14114 11 7.23809 11ZM4.13605 12.725C1.7449 13.4031 0 15.5406 0 18.0719C0 18.5844 0.429762 19 0.959694 19H13.5165C14.0464 19 14.4762 18.5844 14.4762 18.0719C14.4762 15.5406 12.7313 13.4031 10.3401 12.725V14.3125C11.232 14.5344 11.8912 15.3188 11.8912 16.25V17.5C11.8912 17.775 11.6585 18 11.3741 18H10.8571C10.5728 18 10.3401 17.775 10.3401 17.5C10.3401 17.225 10.5728 17 10.8571 17V16.25C10.8571 15.6969 10.3951 15.25 9.82313 15.25C9.25119 15.25 8.78911 15.6969 8.78911 16.25V17C9.07347 17 9.30612 17.225 9.30612 17.5C9.30612 17.775 9.07347 18 8.78911 18H8.27211C7.98775 18 7.7551 17.775 7.7551 17.5V16.25C7.7551 15.3188 8.41428 14.5344 9.30612 14.3125V12.5281C9.11224 12.5094 8.91514 12.5 8.7148 12.5H5.76139C5.56105 12.5 5.36395 12.5094 5.17007 12.5281V14.5719C5.9165 14.7875 6.46258 15.4563 6.46258 16.25C6.46258 17.2156 5.65153 18 4.65306 18C3.65459 18 2.84354 17.2156 2.84354 16.25C2.84354 15.4563 3.38963 14.7875 4.13605 14.5719V12.725ZM4.65306 17C4.85874 17 5.05599 16.921 5.20143 16.7803C5.34687 16.6397 5.42857 16.4489 5.42857 16.25C5.42857 16.0511 5.34687 15.8603 5.20143 15.7197C5.05599 15.579 4.85874 15.5 4.65306 15.5C4.44738 15.5 4.25013 15.579 4.10469 15.7197C3.95926 15.8603 3.87755 16.0511 3.87755 16.25C3.87755 16.4489 3.95926 16.6397 4.10469 16.7803C4.25013 16.921 4.44738 17 4.65306 17Z" fill="#3D7C85"/>
</g>
<defs>
<clipPath id="clip0_1919_22290">
<rect width="14.4762" height="16" fill="white" transform="translate(0 3)"/>
</clipPath>
</defs>
</svg>
