<svg width="20" height="20" viewBox="0 0 20 20" fill="none" xmlns="http://www.w3.org/2000/svg">
<path d="M10 13.2581C9.80093 13.2581 9.60339 13.2489 9.40852 13.2316C8.40301 13.1414 7.43069 12.8246 6.56386 12.3048C5.69703 11.7851 4.95799 11.0757 4.4017 10.2296L1 16.3226H5.38559L7.59746 20L10.7448 13.2163C10.4975 13.2439 10.2488 13.2579 10 13.2581ZM15.6059 10.2219C14.8003 11.4474 13.6202 12.3769 12.2431 12.8704L10.675 16.3034L12.4025 20L14.6144 16.3226H19L15.6059 10.2219Z" fill="#10996E"/>
<path d="M10.0008 8.35484C11.0117 8.35484 11.8313 7.53162 11.8313 6.51613C11.8313 5.50064 11.0117 4.67742 10.0008 4.67742C8.9898 4.67742 8.17025 5.50064 8.17025 6.51613C8.17025 7.53162 8.9898 8.35484 10.0008 8.35484Z" fill="#10996E"/>
<path d="M10 1C6.97203 1 4.50847 3.4746 4.50847 6.51613C4.50847 9.55766 6.97203 12.0323 10 12.0323C13.028 12.0323 15.4915 9.55766 15.4915 6.51613C15.4915 3.4746 13.028 1 10 1ZM10 9.58065C9.3966 9.58065 8.80675 9.40091 8.30504 9.06418C7.80333 8.72745 7.4123 8.24884 7.18138 7.68887C6.95047 7.1289 6.89006 6.51273 7.00777 5.91827C7.12549 5.32381 7.41606 4.77777 7.84273 4.34919C8.26939 3.92061 8.813 3.62874 9.40481 3.5105C9.99662 3.39225 10.61 3.45294 11.1675 3.68489C11.725 3.91683 12.2015 4.30962 12.5367 4.81358C12.8719 5.31753 13.0508 5.91003 13.0508 6.51613C13.0499 7.32861 12.7282 8.10755 12.1563 8.68206C11.5843 9.25657 10.8089 9.57973 10 9.58065Z" fill="#10996E"/>
</svg>
