<svg width="20" height="20" viewBox="0 0 20 20" fill="none" xmlns="http://www.w3.org/2000/svg">
<path d="M16.213 2H15.3382C15.963 2.23744 16.2879 2.85811 16.2879 3.7787V16.2213C16.2879 17.1419 15.9964 17.7751 15.3382 18H16.213C17.2002 18 17.9958 17.2002 17.9958 16.2213V3.7787C17.9958 2.79979 17.2002 2 16.213 2Z" fill="#10996E"/>
<path d="M13.7261 2.00833C13.6678 2.00417 13.6095 2 13.5512 2H3.7787C2.79979 2 2 2.79979 2 3.7787V16.2213C2 17.2002 2.79979 18 3.7787 18H13.5553C13.6136 18 13.672 17.9958 13.7303 17.9917C14.6259 17.9042 15.334 17.1419 15.334 16.2213V3.7787C15.3299 2.85811 14.6217 2.09581 13.7261 2.00833ZM7.99844 9.99792L5.66571 8.66493L3.33299 9.99792V3.33299H7.99844V9.99792Z" fill="#10996E"/>
</svg>
